<svg id="Layer_1" data-name="Layer 1" xmlns="http://www.w3.org/2000/svg" viewBox="0 0 716.67 716.67"><defs><style>.cls-1{fill:none;stroke:#5864ff;stroke-linecap:round;stroke-miterlimit:133.33;stroke-width:50px;}</style></defs><path class="cls-1" d="M431.75,396.17a82.41,82.41,0,0,1,50.32-.15M334.88,428.44a61.93,61.93,0,0,0-11.07-1c-31.56,0-57.14,23.7-57.14,52.94s25.58,52.94,57.14,52.94H457.14c42.08,0,76.19-31.6,76.19-70.58,0-30.9-21.42-57.16-51.26-66.73M334.88,428.44a65.9,65.9,0,0,1-4.72-24.52c0-39,34.11-70.59,76.19-70.59,39.2,0,71.48,27.42,75.72,62.69M334.88,428.44a59.37,59.37,0,0,1,20.68,7.93" transform="translate(-41.67 -41.67)"/><path class="cls-1" d="M733.33,393.26c0-87.74,0-131.62-25.65-160.13a97.63,97.63,0,0,0-7.47-7.48C671.69,200,627.82,200,540.07,200H527.61c-38.45,0-57.68,0-75.6-5.11a132.78,132.78,0,0,1-28.27-11.71c-16.28-9.06-29.88-22.65-57.07-49.85L348.32,115c-9.11-9.11-13.67-13.67-18.46-17.64a133.2,133.2,0,0,0-72.67-30.1c-6.2-.58-12.64-.58-25.53-.58-29.42,0-44.13,0-56.38,2.31A133.3,133.3,0,0,0,69,175.28c-2.31,12.25-2.31,27-2.31,56.38M733,533.33c-1.19,82.66-7.32,129.51-38.76,160.95-39,39.05-101.91,39.05-227.61,39.05H333.33c-125.7,0-188.56,0-227.61-39.05s-39-101.91-39-227.61v-100" transform="translate(-41.67 -41.67)"/></svg>