<?xml version="1.0" encoding="utf-8"?>
<!-- Generator: Adobe Illustrator 25.4.1, SVG Export Plug-In . SVG Version: 6.00 Build 0)  -->
<svg version="1.1" id="Layer_1" xmlns="http://www.w3.org/2000/svg" xmlns:xlink="http://www.w3.org/1999/xlink" x="0px" y="0px"
	 viewBox="0 0 750 500" style="enable-background:new 0 0 750 500;" xml:space="preserve">
<style type="text/css">
	.st0{fill:#F5F5F5;}
	.st1{fill:#E0E0E0;}
	.st2{fill:#EBEBEB;}
	.st3{fill:#263238;}
	.st4{fill:#FAFAFA;}
	.st5{fill:#5762FF;}
	.st6{fill-rule:evenodd;clip-rule:evenodd;fill:#263238;}
	.st7{opacity:0.62;}
	.st8{fill:#455A64;}
	.st9{fill:none;}
	.st10{opacity:0.8;}
	.st11{fill:#FFFFFF;}
	.st12{opacity:0.3;}
	.st13{opacity:0.5;}
	.st14{fill:#A36957;}
	.st15{fill:#7C3B29;}
	.st16{fill:#E8BEAC;}
	.st17{fill:#DDB4A6;}
	.st18{fill:#AF3519;}
</style>
<g id="freepik--background-complete--inject-14">
	<rect x="54.7" y="348.9" class="st0" width="153.6" height="70.8"/>
	<path class="st1" d="M204.7,416.4H58.2v-63.8h146.4V416.4z M59.2,415.4h144.5v-61.8H59.2L59.2,415.4z"/>
	<rect x="208.3" y="348.9" class="st1" width="37.5" height="70.8"/>
	<path class="st1" d="M58.7,372.4h145.5c0.1,0,0.2-0.1,0.2-0.2s-0.1-0.2-0.2-0.2H58.7c-0.1,0-0.2,0.1-0.2,0.2S58.6,372.4,58.7,372.4
		z"/>
	<path class="st1" d="M131.9,372.2c0.4-6.4,0.4-12.8,0-19.2c0-0.1-0.1-0.2-0.2-0.2c-0.1,0-0.1,0.1-0.2,0.2c-0.4,6.4-0.4,12.8,0,19.2
		c0,0.1,0.1,0.1,0.2,0.1c0.1,0,0.1-0.1,0.1-0.1H131.9z"/>
	<path class="st1" d="M171.1,362.5c0,1.1-0.9,2-2,2s-2-0.9-2-2s0.9-2,2-2S171.1,361.4,171.1,362.5z"/>
	<path class="st1" d="M94.7,362.5c0,1.1-0.9,2-2,2s-2-0.9-2-2s0.9-2,2-2S94.7,361.4,94.7,362.5z"/>
	<path class="st1" d="M133.4,384.5c0,1.1-0.9,2-2,2s-2-0.9-2-2s0.9-2,2-2S133.4,383.4,133.4,384.5z"/>
	<polygon class="st1" points="73.1,419.7 65.2,464.2 69.6,464.2 84.2,419.7 	"/>
	<polygon class="st1" points="197.5,419.7 204.1,464.3 199.6,464.3 186.3,419.7 	"/>
	<polygon class="st1" points="227.1,419.7 234.6,464.3 230.2,464.3 216,419.7 	"/>
	<path class="st1" d="M133.3,404.5c0,1.1-0.9,2-2,2s-2-0.9-2-2s0.9-2,2-2S133.3,403.4,133.3,404.5z"/>
	<path class="st1" d="M58.7,394.3h145.5c0.1,0,0.2-0.1,0.2-0.2c0-0.1-0.1-0.1-0.2-0.2H58.7c-0.1,0-0.2,0.1-0.2,0.2
		C58.6,394.2,58.6,394.3,58.7,394.3z"/>
	
		<rect x="115.5" y="315.5" transform="matrix(1 -5.236017e-03 5.236017e-03 1 -1.6748 0.7307)" class="st1" width="46.4" height="9.4"/>
	
		<rect x="115.7" y="334.1" transform="matrix(1 -5.236017e-03 5.236017e-03 1 -1.786 0.7462)" class="st0" width="51.8" height="14.7"/>
	<path class="st1" d="M157.6,348.6c-0.3-2.4-0.3-4.9-0.2-7.4c-0.1-2.4,0-4.9,0.2-7.3c0.3,2.4,0.3,4.9,0.2,7.3
		C157.9,343.7,157.8,346.1,157.6,348.6z"/>
	<path class="st1" d="M159.8,348.6c-0.3-2.4-0.3-4.9-0.2-7.4c-0.1-2.4,0-4.9,0.2-7.3c0.3,2.4,0.3,4.9,0.2,7.3
		C160.1,343.7,160,346.1,159.8,348.6z"/>
	<path class="st1" d="M123.6,348.6c-0.3-2.4-0.3-4.9-0.2-7.4c-0.1-2.4,0-4.9,0.2-7.3c0.3,2.4,0.3,4.9,0.2,7.3
		C123.9,343.7,123.8,346.1,123.6,348.6z"/>
	<path class="st1" d="M125.7,348.6c-0.2-2.4-0.3-4.9-0.2-7.4c-0.1-2.4,0-4.9,0.2-7.3c0.3,2.4,0.3,4.9,0.3,7.3
		C126.1,343.7,126,346.1,125.7,348.6z"/>
	<path class="st1" d="M130.5,341.5c0-0.1,5.2-0.2,11.7-0.2s11.7,0.1,11.7,0.2s-5.2,0.3-11.7,0.3S130.5,341.6,130.5,341.5z"/>
	
		<rect x="123.1" y="324.6" transform="matrix(1 -5.236017e-03 5.236017e-03 1 -1.7223 0.8162)" class="st2" width="63.9" height="9.4"/>
	<path class="st1" d="M177.8,332.7c-1.7,0-3.1-1.3-3.1-3s1.3-3.1,3-3.1c1.7,0,3.1,1.3,3.1,3c0,0,0,0,0,0.1
		C180.9,331.3,179.5,332.7,177.8,332.7C177.9,332.7,177.9,332.7,177.8,332.7z"/>
	<rect x="126.8" y="328.7" class="st1" width="42.8" height="1.9"/>
	
		<rect x="662.3" y="86.6" transform="matrix(1 -5.410494e-03 5.410494e-03 1 -0.5804 3.6092)" class="st1" width="9" height="44.9"/>
	
		<rect x="584" y="86.8" transform="matrix(1 -5.410494e-03 5.410494e-03 1 -0.5278 3.2245)" class="st2" width="23.4" height="24.8"/>
	
		<rect x="607.3" y="86.6" transform="matrix(1 -5.410494e-03 5.410494e-03 1 -0.5268 3.3504)" class="st0" width="23.4" height="24.8"/>
	<path class="st1" d="M584,93.7c15.5,0.1,31.1,0.1,46.6-0.2c0.1,0,0.2-0.2,0.2-0.3c0-0.1-0.1-0.2-0.2-0.2c-15.5-0.1-31.1,0-46.6,0.3
		c-0.1,0-0.2,0.1-0.2,0.3C583.8,93.6,583.9,93.7,584,93.7z"/>
	
		<rect x="569.4" y="111.2" transform="matrix(1 -5.410494e-03 5.410494e-03 1 -0.6477 3.1976)" class="st2" width="42.5" height="20.2"/>
	
		<rect x="611.7" y="111" transform="matrix(1 -5.410494e-03 5.410494e-03 1 -0.6458 3.4262)" class="st0" width="42.5" height="20.2"/>
	<path class="st1" d="M569.4,117c28.2,0.3,56.5,0,84.7-0.4c0.1,0,0.2-0.2,0.2-0.3c0-0.1-0.1-0.2-0.2-0.2
		c-28.2-0.2-56.5-0.1-84.7,0.5c-0.1,0-0.2,0.1-0.2,0.2C569.2,116.9,569.3,117,569.4,117L569.4,117z"/>
	<rect x="553.5" y="131.6" class="st1" width="164.5" height="7.2"/>
	<rect x="580.5" y="135" class="st1" width="6.7" height="24.7"/>
	<rect x="680.2" y="135" class="st1" width="6.7" height="24.7"/>
	<rect x="671.1" y="69.9" transform="matrix(1 -5.410494e-03 5.410494e-03 1 -0.5353 3.657)" class="st2" width="9" height="61.8"/>
	
		<rect x="680.2" y="81.4" transform="matrix(1 -5.410494e-03 5.410494e-03 1 -0.5657 3.7196)" class="st0" width="14" height="50.1"/>
	<path class="st1" d="M694,91c-4.7,0.3-9.3,0.3-14,0C684.7,90.7,689.3,90.7,694,91z"/>
	<path class="st1" d="M694,88.9c-4.7,0.3-9.3,0.3-14,0C684.7,88.6,689.3,88.6,694,88.9z"/>
	<path class="st1" d="M694,123.9c-4.7,0.3-9.3,0.3-14,0C684.7,123.6,689.3,123.6,694,123.9z"/>
	<path class="st1" d="M694,121.8c-4.7,0.3-9.3,0.3-14,0C684.7,121.5,689.3,121.5,694,121.8z"/>
	<path class="st1" d="M687.2,117.2c-0.1,0-0.2-5-0.2-11.3s0.1-11.3,0.2-11.3s0.2,5,0.2,11.3S687.3,117.2,687.2,117.2z"/>
	<rect x="694.1" y="93.7" class="st2" width="15.3" height="37.8"/>
	<path class="st1" d="M677.9,80.4c0,1.4-1.2,2.6-2.6,2.6c-1.4,0-2.6-1.2-2.6-2.6c0-1.4,1.2-2.6,2.6-2.6l0,0
		C676.8,77.8,677.9,79,677.9,80.4C677.9,80.4,677.9,80.4,677.9,80.4z"/>
	<rect x="674.5" y="87.6" class="st1" width="1.6" height="36.7"/>
	<path class="st2" d="M695.4,266.2c0,0-10.4-5.6-20.3,19s-13.2,38.6-13.2,38.6s-2.7,5.2-6.4,2.3s-9.1-11.6-14.7-9.5
		c-5.8,2.2-7.2,9.1-5.2,18.8s5.6,31.1,6,33s-0.5,4.8-3.3,3.2s-19.6-17.2-26.6-8.8s3.1,34.5,4.1,37.3s0.6,4.2-0.8,5
		s-6.5-4.9-11.4-9.2s-11.5-8.3-15.1-3.1s-3.1,25.4,18.9,56.2l11.1,13.6l17.5-2.5c37.1-7.7,51.2-22.2,52.1-28.5s-6.7-7.7-13.2-7.9
		s-14.2,0.5-14.7-1s0.2-2.8,2.9-4.2s27.8-13.7,28.4-24.6S669.2,383,666,382.3s-1.8-3.5-0.3-4.6s18.7-14.4,26.8-20.2
		s11.7-11.7,8.9-17.3c-2.7-5.4-12.6-2.7-17.3-3s-3.1-6-3.1-6s7-12.5,16.5-37.3s-2.3-27.7-2.3-27.7"/>
	<path class="st1" d="M619.1,459c7-18.2,16.9-43.2,27.9-70.8s20.9-52.5,28-70.7l8.4-21.5c1-2.5,1.8-4.5,2.3-5.8
		c0.3-0.6,0.5-1.1,0.6-1.5s0.2-0.5,0.2-0.5s0,0.2-0.2,0.5s-0.3,0.9-0.5,1.5l-2.2,5.9c-1.9,5.1-4.7,12.5-8.2,21.5
		c-7,18.2-16.9,43.2-27.9,70.7s-20.9,52.6-28,70.7"/>
	<path class="st1" d="M647.9,329.1c0.2,0.4,0.4,0.7,0.6,1.1c0.3,0.8,0.8,1.9,1.3,3.2c1,2.7,2.4,6.5,3.8,10.8s2.6,7.9,3.6,10.9
		l1.1,3.3c0.2,0.4,0.3,0.8,0.3,1.2c-0.2-0.4-0.4-0.7-0.6-1.1c-0.3-0.8-0.8-1.9-1.3-3.2c-1-2.7-2.3-6.6-3.7-10.8s-2.7-7.9-3.6-10.8
		c-0.4-1.3-0.8-2.4-1.1-3.3C648.1,329.9,648,329.5,647.9,329.1z"/>
	<path class="st1" d="M660.2,359.7c-0.1-0.1,7.7-3.3,17.3-7s17.4-6.6,17.5-6.4s-7.7,3.3-17.3,7S660.3,359.9,660.2,359.7z"/>
	<path class="st1" d="M641.4,401.3c0.4-0.1,0.9-0.2,1.3-0.2l3.5-0.3c3-0.3,7.1-0.6,11.6-1.2s8.6-1.2,11.5-1.7l3.5-0.6
		c0.4-0.1,0.9-0.2,1.3-0.1c-0.4,0.2-0.8,0.3-1.2,0.4c-0.8,0.2-2,0.5-3.5,0.8c-2.9,0.6-7,1.3-11.5,1.9s-8.7,0.9-11.6,1
		c-1.5,0.1-2.7,0.1-3.5,0.1C642.3,401.4,641.9,401.4,641.4,401.3z"/>
	<path class="st1" d="M624.2,376c0.3,0.3,0.6,0.6,0.8,0.9c0.5,0.6,1.1,1.5,2,2.6c1.6,2.2,3.8,5.3,6.2,8.8s4.6,6.6,6.1,8.9
		c0.8,1.1,1.4,2.1,1.8,2.7c0.2,0.3,0.4,0.7,0.6,1c-0.3-0.3-0.6-0.6-0.8-0.9c-0.5-0.6-1.1-1.5-2-2.6c-1.6-2.2-3.8-5.3-6.2-8.8
		s-4.6-6.6-6.1-8.9c-0.8-1.1-1.4-2.1-1.8-2.7C624.6,376.8,624.4,376.4,624.2,376z"/>
	<path class="st1" d="M602.9,410.7c0.4,0.4,0.7,0.7,1,1.2l2.5,3.4c2.1,2.8,5,6.8,8.1,11.2s6,8.4,8,11.3l2.4,3.5
		c0.3,0.4,0.6,0.9,0.8,1.3c-0.4-0.4-0.7-0.8-1-1.2l-2.5-3.4c-2.1-2.9-5-6.8-8.1-11.2s-6-8.4-8-11.3l-2.4-3.4
		C603.4,411.6,603.2,411.1,602.9,410.7z"/>
	<path class="st1" d="M625.3,441.5c0.5-0.1,1.1-0.2,1.6-0.3l4.5-0.5c3.8-0.5,8.9-1.1,14.6-2s10.8-1.8,14.6-2.5l4.4-0.8
		c0.5-0.1,1.1-0.2,1.6-0.2c-0.5,0.2-1,0.4-1.6,0.5c-1,0.3-2.5,0.6-4.4,1c-3.7,0.8-8.8,1.8-14.6,2.7s-10.9,1.5-14.7,1.9
		c-1.9,0.2-3.4,0.3-4.5,0.4C626.4,441.6,625.9,441.6,625.3,441.5z"/>
</g>
<g id="freepik--Floor--inject-14">
	<path class="st3" d="M709.6,464.1c0,0.1-149.8,0.3-334.6,0.3s-334.7-0.1-334.7-0.3s149.8-0.3,334.7-0.3S709.6,464,709.6,464.1z"/>
</g>
<g id="freepik--Dasboard--inject-14">
	<path class="st4" d="M142.6,67h487.6c4.8,0,8.7,3.9,8.7,8.7v338.9c0,4.8-3.9,8.7-8.7,8.7H142.6c-4.8,0-8.7-3.9-8.7-8.7V75.7
		C133.9,70.9,137.8,67,142.6,67z"/>
	<path class="st1" d="M621.9,351.4H532c-4,0-7.2-3.2-7.2-7.2v-189c0-4,3.2-7.2,7.2-7.2h89.9c4,0,7.2,3.2,7.2,7.2v189
		C629.1,348.2,625.9,351.4,621.9,351.4z M532,148.9c-3.4,0-6.2,2.8-6.2,6.2v189c0,3.4,2.8,6.2,6.2,6.3c0,0,0,0,0,0h89.9
		c3.4,0,6.2-2.8,6.2-6.2v-189c0-3.4-2.8-6.2-6.2-6.2L532,148.9z"/>
	<path class="st5" d="M143.4,67.3H171c5.3,0,9.6,4.3,9.6,9.7v336.9c0,5.3-4.3,9.6-9.6,9.6h-27.6c-5.3,0-9.6-4.3-9.6-9.6V77
		C133.7,71.7,138,67.3,143.4,67.3z"/>
	<path class="st4" d="M178.1,220.9h-36c-1.5,0-2.8,1.2-2.8,2.8c0,0,0,0,0,0v28.4c0,1.5,1.2,2.8,2.8,2.8c0,0,0,0,0,0h39
		c1.5,0,2.8-1.3,2.8-2.8c0-0.1,0-0.2,0-0.3l3.5-31.1L178.1,220.9z"/>
	<path class="st3" d="M575.7,100.6l0.2-0.2c0.2-0.1,0.4-0.3,0.6-0.5c0.5-0.8,0.8-1.8,0.8-2.8c0-0.7,0.2-1.4,0.4-2.1
		c0.4-1.5,1.9-2.4,3.4-2c0.4,0.1,0.7,0.3,1,0.5c0.8,0.7,1.2,1.6,1.3,2.7c0.1,0.4,0.1,0.9,0.1,1.3c0,0.4,0,0.8,0.1,1.2
		c0.3,0.7,0.8,1.3,1.3,1.8l0.5,0.4h-0.7c-2.8,0-5.2-0.1-6.8-0.2L575.7,100.6l2.7-0.1c1.7-0.1,3.9-0.2,6.5-0.2l-0.1,0.4
		c-0.7-0.5-1.2-1.2-1.5-2c-0.1-0.4-0.2-0.9-0.2-1.3c0-0.4,0-0.8-0.1-1.2c-0.1-0.9-0.5-1.7-1.1-2.3c-0.7-0.5-1.5-0.6-2.3-0.3
		c-0.7,0.3-1.2,0.9-1.4,1.6c-0.2,0.6-0.4,1.3-0.4,2c0,0.6-0.2,1.2-0.3,1.7c-0.1,0.4-0.4,0.8-0.7,1.2c-0.2,0.2-0.4,0.4-0.7,0.5
		C576,100.5,575.9,100.5,575.7,100.6L575.7,100.6z"/>
	<circle class="st5" cx="583" cy="94.4" r="2"/>
	<path class="st6" d="M579.1,101.8h2.7c0,0.7-0.5,1.4-1.3,1.4c-0.1,0-0.1,0-0.2,0c-0.6,0.1-1.2-0.4-1.3-1
		C579.1,102.1,579.1,102,579.1,101.8z"/>
	<path class="st5" d="M600.3,87.8h11.9c2.5,0,4.5,2,4.5,4.5v11.9c0,2.5-2,4.5-4.5,4.5h-11.9c-2.5,0-4.5-2-4.5-4.5V92.3
		C595.8,89.8,597.8,87.8,600.3,87.8z"/>
	<path class="st5" d="M373,269.5c-9,0-13-7.1-16.8-13.9c-3.2-5.6-6.5-11.4-11.9-11.4c-6,0-9,2.3-12.4,4.9c-3.7,2.9-8,6.1-16.3,6.1
		c-9.1,0-12.9-8.6-16.9-17.6c-3.1-7-6.6-14.9-11.8-14.9s-8.7,7.9-11.8,14.9c-4,9.1-7.8,17.6-16.9,17.6c-8.6,0-12.8-4.6-16.6-8.6
		c-3.4-3.7-6.4-6.9-12.2-6.9v-0.9c6.1,0,9.2,3.3,12.8,7.1s7.7,8.3,15.9,8.3c8.6,0,12.2-8.3,16.1-17.1c3.2-7.2,6.8-15.4,12.6-15.4
		s9.4,8.2,12.6,15.4c3.9,8.8,7.6,17.1,16.1,17.1c8,0,12.1-3.1,15.8-5.9s6.6-5.1,13-5.1c5.9,0,9.3,6,12.6,11.9
		c3.8,6.6,7.6,13.4,16.1,13.4s12.3-6.4,16.1-12.6c3.5-5.7,6.7-11.1,12.7-11.1c6.1,0,9.2,3.4,12.8,7.4s7.7,8.6,16,8.6
		c8.6,0,12.3-8.9,16.1-18.2c3.2-7.7,6.8-16.5,12.6-16.5s9.3,6.7,12.6,13.2c3.8,7.3,7.6,14.9,16.1,14.9c8.2,0,12.3-4.4,16-8.3
		s6.6-7.1,12.8-7.1v0.9c-5.8,0-8.7,3.2-12.2,6.9c-3.8,4-8,8.6-16.6,8.6c-9,0-13-7.8-16.9-15.3c-3.2-6.3-6.5-12.8-11.9-12.8
		s-8.7,8.5-11.8,15.9c-4,9.6-7.8,18.8-16.9,18.8c-8.6,0-12.9-4.7-16.6-8.9c-3.4-3.8-6.4-7.1-12.1-7.1c-5.5,0-8.6,5.2-11.9,10.7
		C386,262.9,381.9,269.5,373,269.5z"/>
	<path class="st1" d="M230.4,281.4l0.2-0.3c0.2,0.3,0.5,0.4,0.8,0.4c0.4,0,0.7-0.3,0.7-0.8v-2.2h-1.3v-0.3h1.7v2.5
		c0,0.8-0.4,1.1-1,1.1C231,281.9,230.6,281.7,230.4,281.4z"/>
	<path class="st1" d="M235.5,280.2v1.7h-0.3v-0.4c-0.2,0.3-0.6,0.5-0.9,0.4c-0.6,0-1-0.3-1-0.8s0.3-0.8,1-0.8h0.9v-0.2
		c0-0.5-0.3-0.7-0.8-0.7c-0.3,0-0.6,0.1-0.9,0.3l-0.2-0.3c0.3-0.2,0.7-0.4,1.1-0.4c0.5-0.1,1.1,0.3,1.1,0.8
		C235.5,280,235.5,280.1,235.5,280.2z M235.2,281v-0.4h-0.8c-0.5,0-0.7,0.2-0.7,0.5s0.2,0.5,0.7,0.5
		C234.7,281.6,235,281.4,235.2,281L235.2,281z"/>
	<path class="st1" d="M239,280.3v1.6h-0.4v-1.5c0.1-0.4-0.2-0.8-0.6-0.8c-0.1,0-0.1,0-0.2,0c-0.5,0-0.9,0.3-0.9,0.8
		c0,0.1,0,0.1,0,0.2v1.4h-0.4v-2.7h0.4v0.5c0.2-0.3,0.6-0.5,1-0.5c0.5-0.1,1.1,0.3,1.1,0.9C239,280.1,239,280.2,239,280.3z"/>
	<path class="st1" d="M269.5,278.6v1.4h1.9v0.3h-1.9v1.5h-0.4v-3.6h2.5v0.3L269.5,278.6z"/>
	<path class="st1" d="M274.5,280.6h-2.2c0,0.5,0.5,1,1.1,0.9c0.3,0,0.6-0.1,0.8-0.4l0.2,0.2c-0.3,0.3-0.6,0.4-1,0.4
		c-0.7,0-1.4-0.5-1.4-1.2c0,0,0-0.1,0-0.1c0-0.7,0.5-1.3,1.2-1.4c0,0,0.1,0,0.1,0c0.7,0,1.3,0.6,1.3,1.3c0,0,0,0.1,0,0.1
		L274.5,280.6z M272.2,280.3h1.9c-0.2-0.5-0.7-0.8-1.3-0.7C272.6,279.8,272.3,280,272.2,280.3z"/>
	<path class="st1" d="M278,280.5c0,0.7-0.5,1.3-1.2,1.4c0,0-0.1,0-0.1,0c-0.4,0-0.8-0.2-1-0.5v0.5h-0.3V278h0.4v1.6
		c0.2-0.3,0.6-0.5,1-0.5C277.4,279.1,278,279.7,278,280.5C278,280.4,278,280.5,278,280.5z M277.6,280.5c0-0.6-0.5-1-1-0.9
		s-1,0.5-0.9,1c0,0.5,0.5,0.9,1,1C277.2,281.5,277.6,281.1,277.6,280.5C277.6,280.5,277.6,280.5,277.6,280.5L277.6,280.5z"/>
	<path class="st1" d="M312.7,278.3v3.6h-0.4V279l-1.4,2.4h-0.2l-1.4-2.4v2.9H309v-3.6h0.3l1.6,2.6l1.5-2.6L312.7,278.3z"/>
	<path class="st1" d="M315.8,280.2v1.7h-0.4v-0.4c-0.2,0.3-0.6,0.5-0.9,0.4c-0.6,0-1-0.3-1-0.8s0.3-0.8,1-0.8h0.9v-0.2
		c0-0.5-0.3-0.7-0.8-0.7c-0.3,0-0.6,0.1-0.9,0.3l-0.2-0.3c0.3-0.2,0.7-0.4,1.1-0.4c0.5-0.1,1.1,0.3,1.1,0.8
		C315.8,280,315.8,280.1,315.8,280.2z M315.5,281v-0.4h-0.9c-0.5,0-0.7,0.2-0.7,0.5s0.2,0.5,0.7,0.5
		C315,281.6,315.3,281.4,315.5,281L315.5,281z"/>
	<path class="st1" d="M318.2,279.1v0.4h-0.1c-0.5,0-0.9,0.3-0.9,0.8c0,0.1,0,0.1,0,0.2v1.4h-0.4v-2.7h0.4v0.5
		C317.3,279.3,317.7,279.1,318.2,279.1z"/>
	<path class="st1" d="M349.3,280.9h-2l-0.4,1h-0.4l1.6-3.6h0.4l1.6,3.6h-0.4L349.3,280.9z M349.2,280.6l-0.9-1.9l-0.9,1.9H349.2z"/>
	<path class="st1" d="M353.4,280.5c0,0.7-0.5,1.3-1.2,1.4c0,0-0.1,0-0.1,0c-0.4,0-0.8-0.2-1-0.5v1.5h-0.4v-3.7h0.3v0.5
		c0.2-0.3,0.6-0.6,1-0.5c0.7,0,1.3,0.5,1.4,1.2C353.4,280.4,353.4,280.4,353.4,280.5z M353,280.5c0-0.6-0.5-1-1-0.9s-1,0.5-0.9,1
		c0,0.5,0.5,0.9,1,1C352.6,281.5,353,281.1,353,280.5C353,280.5,353,280.5,353,280.5L353,280.5z"/>
	<path class="st1" d="M355.5,279.1v0.4h-0.1c-0.6,0-0.9,0.4-0.9,1v1.4h-0.4v-2.7h0.4v0.5C354.6,279.3,355,279.1,355.5,279.1z"/>
	<path class="st1" d="M392.5,278.3v3.6h-0.4V279l-1.4,2.4h-0.2l-1.4-2.4v2.9h-0.4v-3.6h0.3l1.6,2.6l1.5-2.6L392.5,278.3z"/>
	<path class="st1" d="M395.6,280.2v1.7h-0.4v-0.4c-0.2,0.3-0.6,0.5-0.9,0.4c-0.6,0-1-0.3-1-0.8s0.3-0.8,1-0.8h0.9v-0.2
		c0-0.5-0.3-0.7-0.8-0.7c-0.3,0-0.6,0.1-0.9,0.3l-0.2-0.3c0.3-0.2,0.7-0.4,1.1-0.4c0.5-0.1,1.1,0.3,1.1,0.8
		C395.6,280,395.6,280.1,395.6,280.2z M395.3,281v-0.4h-0.9c-0.5,0-0.7,0.2-0.7,0.5s0.2,0.5,0.7,0.5
		C394.8,281.6,395.1,281.4,395.3,281L395.3,281z"/>
	<path class="st1" d="M398.8,279.1l-1.4,3c-0.2,0.5-0.5,0.7-0.9,0.7c-0.2,0-0.5-0.1-0.6-0.2l0.2-0.3c0.1,0.1,0.3,0.2,0.5,0.2
		c0.2,0,0.4-0.1,0.6-0.5l0.1-0.3l-1.2-2.7h0.4l1,2.3l1-2.3L398.8,279.1z"/>
	<path class="st1" d="M426.3,281.4l0.2-0.3c0.2,0.3,0.5,0.4,0.8,0.4c0.4,0,0.7-0.3,0.7-0.8v-2.2h-1.3v-0.3h1.7v2.5
		c0,0.8-0.4,1.1-1,1.1C426.9,281.9,426.5,281.7,426.3,281.4z"/>
	<path class="st1" d="M431.8,279.1v2.7h-0.3v-0.5c-0.2,0.3-0.6,0.5-1,0.5c-0.5,0.1-1.1-0.3-1.1-0.8c0-0.1,0-0.2,0-0.3v-1.6h0.4v1.5
		c0,0.6,0.3,0.9,0.8,0.9c0.5,0,0.9-0.4,0.9-0.8c0-0.1,0-0.1,0-0.2v-1.4L431.8,279.1z"/>
	<path class="st1" d="M435.3,280.3v1.6h-0.4v-1.5c0.1-0.4-0.2-0.8-0.6-0.8c-0.1,0-0.1,0-0.2,0c-0.5,0-0.9,0.3-0.9,0.8
		c0,0.1,0,0.1,0,0.2v1.4h-0.4v-2.7h0.4v0.5c0.2-0.3,0.6-0.5,1-0.5c0.5-0.1,1.1,0.3,1.1,0.9C435.3,280.1,435.3,280.2,435.3,280.3z"/>
	<path class="st1" d="M466.2,281.4l0.2-0.3c0.2,0.3,0.5,0.4,0.8,0.4c0.4,0,0.7-0.3,0.7-0.8v-2.2h-1.3v-0.3h1.7v2.5
		c0,0.8-0.4,1.1-1,1.1C466.8,281.9,466.4,281.7,466.2,281.4z"/>
	<path class="st1" d="M471.7,279.1v2.7h-0.4v-0.5c-0.2,0.3-0.6,0.5-1,0.5c-0.5,0.1-1.1-0.3-1.1-0.8c0-0.1,0-0.2,0-0.3v-1.6h0.4v1.5
		c0,0.6,0.3,0.9,0.8,0.9c0.5,0,0.9-0.3,0.9-0.8c0-0.1,0-0.1,0-0.2v-1.4L471.7,279.1z"/>
	<path class="st1" d="M472.7,278h0.4v3.8h-0.4V278z"/>
	<path class="st1" d="M507.1,280.9h-2l-0.4,1h-0.4l1.6-3.6h0.4l1.6,3.6h-0.4L507.1,280.9z M506.9,280.6l-0.9-1.9l-0.9,1.9H506.9z"/>
	<path class="st1" d="M510.8,279.1v2.7h-0.3v-0.5c-0.2,0.3-0.6,0.5-1,0.5c-0.5,0.1-1.1-0.3-1.1-0.8c0-0.1,0-0.2,0-0.3v-1.6h0.4v1.5
		c0,0.6,0.3,0.9,0.8,0.9c0.5,0,0.9-0.4,0.9-0.8c0-0.1,0-0.1,0-0.2v-1.4L510.8,279.1z"/>
	<path class="st1" d="M514.3,279.1v2.4c0.1,0.6-0.3,1.2-1,1.3c-0.1,0-0.2,0-0.4,0c-0.5,0-0.9-0.1-1.2-0.4l0.2-0.3
		c0.3,0.2,0.7,0.4,1.1,0.4c0.7,0,1-0.3,1-1v-0.4c-0.2,0.3-0.6,0.5-1,0.5c-0.7,0.1-1.4-0.5-1.4-1.2c-0.1-0.7,0.5-1.4,1.2-1.4
		c0.1,0,0.2,0,0.2,0c0.4,0,0.8,0.2,1.1,0.5v-0.5L514.3,279.1z M514,280.4c0-0.6-0.4-1-1-1s-1,0.4-1,1s0.4,1,1,1
		C513.5,281.5,514,281,514,280.4C514,280.5,514,280.4,514,280.4L514,280.4z"/>
	<path class="st1" d="M211.7,279.7c0-0.8,0.4-1.2,1-1.2s1,0.5,1,1.2s-0.4,1.2-1,1.2S211.7,280.5,211.7,279.7z M213.4,279.7
		c0-0.6-0.3-1-0.7-1s-0.7,0.4-0.7,1s0.3,1,0.7,1S213.4,280.4,213.4,279.7z"/>
	<path class="st1" d="M209.4,266.8v2.5h-0.2v-2.2h-0.6v-0.2H209.4z"/>
	<path class="st1" d="M210,268.1c0-0.8,0.4-1.2,1-1.2s1,0.5,1,1.2s-0.4,1.2-1,1.2S210,268.9,210,268.1z M211.7,268.1
		c0-0.7-0.3-1-0.7-1s-0.7,0.4-0.7,1s0.3,1,0.7,1S211.7,268.7,211.7,268.1L211.7,268.1z"/>
	<path class="st1" d="M210.4,259.5v0.2h-1.7v-0.2l1-1c0.3-0.3,0.3-0.4,0.3-0.6s-0.2-0.5-0.6-0.5c-0.3,0-0.5,0.1-0.7,0.3l-0.2-0.1
		c0.2-0.2,0.5-0.4,0.9-0.4c0.5,0,0.8,0.2,0.8,0.7c0,0.3-0.2,0.6-0.4,0.8l-0.8,0.8H210.4z"/>
	<path class="st1" d="M210.7,258.5c0-0.8,0.4-1.2,1-1.2s1,0.5,1,1.2s-0.4,1.2-1,1.2S210.7,259.2,210.7,258.5z M212.4,258.5
		c0-0.6-0.3-1-0.7-1s-0.7,0.4-0.7,1s0.3,1,0.7,1S212.4,259.1,212.4,258.5z"/>
	<path class="st1" d="M210.4,249c0,0.4-0.3,0.7-0.9,0.7c-0.3,0-0.6-0.1-0.9-0.3l0.1-0.2c0.2,0.2,0.5,0.3,0.8,0.3
		c0.4,0,0.6-0.2,0.6-0.5s-0.2-0.5-0.7-0.5h-0.2v-0.2l0.7-0.9h-1.3v-0.2h1.6v0.2l-0.7,0.9C210.1,248.4,210.4,248.6,210.4,249z"/>
	<path class="st1" d="M210.7,248.5c0-0.8,0.4-1.2,1-1.2s1,0.5,1,1.2s-0.4,1.2-1,1.2S210.7,249.3,210.7,248.5z M212.4,248.5
		c0-0.7-0.3-1-0.7-1s-0.7,0.4-0.7,1s0.3,1,0.7,1S212.4,249.2,212.4,248.5z"/>
	<path class="st1" d="M210.8,239.5h-0.5v0.6h-0.2v-0.6h-1.4v-0.2l1.3-1.6h0.3l-1.3,1.6h1.1v-0.6h0.2v0.6h0.5L210.8,239.5z"/>
	<path class="st1" d="M211.1,238.9c0-0.8,0.4-1.2,1-1.2s1,0.5,1,1.2s-0.4,1.2-1,1.2S211.1,239.7,211.1,238.9z M212.8,238.9
		c0-0.7-0.3-1-0.7-1s-0.7,0.4-0.7,1s0.3,1,0.7,1S212.8,239.6,212.8,238.9z"/>
	<path class="st1" d="M210.4,230.2c0,0.4-0.3,0.7-0.9,0.7c-0.3,0-0.6-0.1-0.9-0.3l0.1-0.2c0.2,0.2,0.5,0.3,0.8,0.3
		c0.4,0,0.6-0.2,0.6-0.5s-0.2-0.5-0.8-0.5h-0.5l0.1-1.2h1.4v0.2h-1.1l-0.1,0.8h0.3C210.1,229.4,210.4,229.7,210.4,230.2z"/>
	<path class="st1" d="M210.7,229.7c0-0.8,0.4-1.2,1-1.2s1,0.5,1,1.2s-0.4,1.2-1,1.2S210.7,230.5,210.7,229.7z M212.4,229.7
		c0-0.6-0.3-1-0.7-1s-0.7,0.4-0.7,1s0.3,1,0.7,1S212.4,230.3,212.4,229.7z"/>
	<path class="st1" d="M210.6,220.6c0,0.4-0.3,0.8-0.8,0.8c0,0,0,0-0.1,0c-0.6,0-1-0.4-1-1.2s0.5-1.3,1.1-1.3c0.2,0,0.4,0,0.6,0.1
		l-0.1,0.2c-0.1-0.1-0.3-0.1-0.5-0.1c-0.5,0-0.9,0.3-0.9,1c0,0.1,0,0.1,0,0.2c0.1-0.3,0.4-0.4,0.8-0.4
		C210.2,219.8,210.6,220.1,210.6,220.6C210.6,220.5,210.6,220.5,210.6,220.6z M210.4,220.6c0-0.3-0.2-0.5-0.6-0.5
		c-0.3,0-0.6,0.2-0.6,0.5c0,0,0,0,0,0c0,0.3,0.2,0.5,0.6,0.5C210,221.1,210.3,220.9,210.4,220.6
		C210.3,220.6,210.4,220.6,210.4,220.6z"/>
	<path class="st1" d="M210.9,220.1c0-0.8,0.4-1.2,1-1.2s1,0.5,1,1.2s-0.4,1.2-1,1.2S210.9,220.8,210.9,220.1z M212.6,220.1
		c0-0.7-0.3-1-0.7-1s-0.7,0.4-0.7,1s0.3,1,0.7,1S212.6,220.7,212.6,220.1z"/>
	<g class="st7">
		<rect x="223.5" y="220.7" class="st1" width="294.2" height="0.2"/>
		<rect x="223.5" y="230.2" class="st1" width="294.2" height="0.2"/>
		<rect x="223.5" y="239.8" class="st1" width="294.2" height="0.2"/>
		<rect x="223.5" y="249.4" class="st1" width="294.2" height="0.2"/>
		<rect x="223.5" y="259" class="st1" width="294.2" height="0.2"/>
		<rect x="223.5" y="268.6" class="st1" width="294.2" height="0.2"/>
	</g>
	<path class="st5" d="M289.6,222.7c0-1.6-1.3-2.9-2.9-2.9s-2.9,1.3-2.9,2.9s1.3,2.9,2.9,2.9c0,0,0,0,0,0
		C288.3,225.6,289.6,224.3,289.6,222.7z"/>
	<path class="st8" d="M375.7,268.8c0-1.6-1.3-2.9-2.9-2.9c-1.6,0-2.9,1.3-2.9,2.9c0,1.6,1.3,2.9,2.9,2.9
		C374.4,271.8,375.7,270.5,375.7,268.8C375.7,268.8,375.7,268.8,375.7,268.8z"/>
	<path class="st4" d="M164.1,143.5c-0.1,0-0.2,0-0.2-0.1l-6.7-6.1l-6.7,6.1c-0.1,0.1-0.4,0.1-0.5,0c-0.1-0.1-0.1-0.4,0-0.5
		c0,0,0,0,0,0l7-6.3c0.1-0.1,0.4-0.1,0.5,0l7,6.3c0.1,0.1,0.1,0.4,0,0.5c0,0,0,0,0,0C164.3,143.4,164.2,143.5,164.1,143.5z"/>
	<path class="st4" d="M162.2,148.8h-10.1c-0.2,0-0.4-0.2-0.4-0.4v-7c0-0.2,0.2-0.4,0.4-0.4c0,0,0,0,0,0c0.2,0,0.4,0.2,0.4,0.4
		c0,0,0,0,0,0v6.6h9.4v-6.7c0-0.2,0.2-0.4,0.4-0.4c0,0,0,0,0,0c0.2,0,0.4,0.2,0.4,0.4c0,0,0,0,0,0v7
		C162.7,148.5,162.5,148.7,162.2,148.8C162.3,148.8,162.3,148.8,162.2,148.8z"/>
	<path class="st4" d="M163.5,192.5h-13.2c-0.2,0-0.4-0.2-0.4-0.4v-8.4c0-1,0.8-1.9,1.9-1.9h3.4c0.9,0,1.7,0.5,2,1.3l0.6,1.4h4.2
		c1,0,1.9,0.8,1.9,1.9v5.7C163.9,192.3,163.7,192.5,163.5,192.5C163.5,192.5,163.5,192.5,163.5,192.5z M150.6,191.7h12.4v-5.3
		c0-0.6-0.5-1.1-1.1-1.1h-4.4c-0.2,0-0.3-0.1-0.4-0.2l-0.7-1.6c-0.2-0.5-0.7-0.9-1.3-0.9h-3.4c-0.6,0-1.1,0.5-1.1,1.1L150.6,191.7z"
		/>
	<path class="st4" d="M153.1,347.1c-0.2,0-0.4-0.1-0.6-0.2c-0.3-0.2-0.5-0.6-0.4-1l0.6-3.5c0-0.1,0-0.2-0.1-0.2l-2.5-2.5
		c-0.4-0.4-0.4-1,0-1.4c0.1-0.1,0.3-0.2,0.5-0.3l3.5-0.6c0.1,0,0.1-0.1,0.2-0.1l1.6-3.2c0.3-0.5,0.9-0.7,1.3-0.4
		c0.2,0.1,0.3,0.2,0.4,0.4l1.6,3.2c0,0.1,0.1,0.1,0.2,0.1l3.5,0.6c0.5,0.1,0.9,0.6,0.8,1.1c0,0.2-0.1,0.4-0.3,0.5l-2.5,2.5
		c-0.1,0.1-0.1,0.1-0.1,0.2l0.6,3.5c0.1,0.4-0.1,0.8-0.4,1c-0.3,0.2-0.7,0.2-1,0.1l-3.2-1.6c-0.1,0-0.2,0-0.2,0l-3.2,1.6
		C153.5,347.1,153.3,347.1,153.1,347.1z M156.9,344.6c0.2,0,0.3,0,0.4,0.1l3.2,1.6c0.1,0.1,0.3,0,0.3-0.1c0,0,0-0.1,0-0.1l-0.6-3.5
		c0-0.3,0.1-0.6,0.3-0.9l2.5-2.5c0.1-0.1,0.1-0.3,0-0.4c0,0-0.1-0.1-0.1-0.1l-3.5-0.6c-0.3,0-0.6-0.2-0.7-0.5l-1.6-3.2l0,0
		c0-0.1-0.1-0.1-0.2-0.1c-0.1,0-0.2,0-0.2,0.1l-1.6,3.2c-0.1,0.3-0.4,0.5-0.7,0.5l-3.5,0.6c-0.1,0-0.2,0.1-0.2,0.2
		c0,0.1,0,0.2,0.1,0.2l2.5,2.5c0.2,0.2,0.3,0.5,0.3,0.9l-0.6,3.5c0,0.1,0,0.2,0.1,0.2c0.1,0,0.2,0,0.3,0l3.2-1.6
		C156.5,344.7,156.7,344.6,156.9,344.6z"/>
	<path class="st4" d="M164.3,294.4h-14.8c-0.2,0-0.4-0.2-0.4-0.4v-9.4c0-0.2,0.2-0.4,0.4-0.4h14.8c0.2,0,0.4,0.2,0.4,0.4
		c0,0,0,0,0,0v9.3C164.7,294.2,164.5,294.4,164.3,294.4C164.3,294.4,164.3,294.4,164.3,294.4z M149.8,293.7h14.1v-8.6h-14.1V293.7z"
		/>
	<path class="st4" d="M157,291.8c-0.1,0-0.2,0-0.2-0.1l-7.6-6.7c-0.2-0.1-0.2-0.3-0.1-0.5s0.3-0.2,0.5-0.1c0,0,0.1,0,0.1,0.1
		l7.3,6.5l7-6.5c0.1-0.1,0.4-0.1,0.5,0c0,0,0,0,0,0c0.1,0.1,0.1,0.4,0,0.5l-7.2,6.7C157.2,291.7,157.1,291.8,157,291.8z"/>
	<path class="st4" d="M149.7,294c-0.1,0-0.2,0-0.3-0.1c-0.1-0.1-0.1-0.4,0-0.5c0,0,0,0,0,0l4.5-4.5c0.1-0.1,0.4-0.1,0.5,0
		s0.1,0.4,0,0.5l-4.5,4.5C149.9,294,149.8,294,149.7,294z"/>
	<path class="st4" d="M164.4,294.3c-0.1,0-0.2,0-0.3-0.1l-4.8-4.8c-0.1-0.1-0.1-0.4,0-0.5s0.4-0.1,0.5,0l0,0l4.8,4.8
		c0.1,0.1,0.1,0.4,0,0.5c0,0,0,0,0,0C164.6,294.3,164.5,294.3,164.4,294.3z"/>
	<rect x="156.1" y="234.4" class="st5" width="2.2" height="2.2"/>
	<rect x="160.2" y="234.4" class="st5" width="2.2" height="2.2"/>
	<rect x="151.9" y="234.4" class="st5" width="2.2" height="2.2"/>
	<rect x="160.2" y="237.9" class="st5" width="2.2" height="2.2"/>
	<rect x="156.1" y="237.9" class="st5" width="2.2" height="2.2"/>
	<rect x="151.9" y="237.9" class="st5" width="2.2" height="2.2"/>
	<path class="st5" d="M164.9,243.8h-15.6c-0.2,0-0.4-0.2-0.4-0.4c0,0,0,0,0,0v-12.8c0-0.2,0.2-0.4,0.4-0.4h15.6
		c0.2,0,0.4,0.2,0.4,0.4v12.8C165.3,243.6,165.2,243.8,164.9,243.8C164.9,243.8,164.9,243.8,164.9,243.8z M149.8,243.1h14.8V231
		h-14.8L149.8,243.1z"/>
	<path class="st5" d="M153.6,232.6c-0.2,0-0.4-0.2-0.4-0.4v-4.1c0-0.2,0.1-0.4,0.3-0.4c0.2,0,0.4,0.1,0.4,0.3c0,0,0,0.1,0,0.1v4.1
		C154,232.4,153.8,232.6,153.6,232.6C153.6,232.6,153.6,232.6,153.6,232.6z"/>
	<path class="st5" d="M160.4,232.6c-0.2,0-0.4-0.2-0.4-0.4v-4.1c0-0.2,0.1-0.4,0.3-0.4c0.2,0,0.4,0.1,0.4,0.3c0,0,0,0.1,0,0.1v4.1
		C160.7,232.4,160.6,232.6,160.4,232.6C160.4,232.6,160.4,232.6,160.4,232.6z"/>
	<rect x="267.3" y="368.3" class="st5" width="5" height="16.7"/>
	<rect x="225.6" y="365.8" class="st5" width="5" height="19.1"/>
	<rect x="236" y="361.9" class="st5" width="5" height="23.1"/>
	<rect x="246.4" y="363.1" class="st5" width="5" height="21.8"/>
	<rect x="256.9" y="355.7" class="st5" width="5" height="29.2"/>
	<rect x="277.7" y="355.9" class="st5" width="5" height="29.1"/>
	<rect x="288.1" y="365.4" class="st5" width="5" height="19.5"/>
	<rect x="298.5" y="357.2" class="st5" width="5" height="27.8"/>
	<rect x="308.9" y="350.9" class="st5" width="5" height="34.1"/>
	<rect x="319.3" y="357" class="st5" width="5" height="27.9"/>
	<path class="st1" d="M334.7,405.7H212.1c-5.6,0-10.1-4.5-10.1-10.1v-73.3c0-5.6,4.5-10.1,10.1-10.1h122.6c5.6,0,10.1,4.5,10.1,10.1
		v73.3C344.8,401.1,340.3,405.7,334.7,405.7z M212.1,313.1c-5,0-9.1,4.1-9.1,9.1v73.3c0,5,4.1,9.1,9.1,9.1h122.6
		c5,0,9.1-4.1,9.1-9.1v-73.3c0-5-4.1-9.1-9.1-9.1L212.1,313.1z"/>
	<path class="st1" d="M281.9,336.5c0,0.1-14.2,0.3-31.7,0.3s-31.7-0.1-31.7-0.3s14.2-0.3,31.7-0.3S281.9,336.3,281.9,336.5z"/>
	<path class="st9" d="M393.8,350.8c-1.3,0.7-2.5,1.6-3.5,2.7c-1,1-1.9,2.2-2.7,3.5c-0.7,1.3-1.3,2.7-1.7,4.1c-0.8,2.9-0.8,5.9,0,8.8
		c0.4,1.4,0.9,2.8,1.7,4.1c0.7,1.3,1.6,2.5,2.7,3.5c1,1,2.2,2,3.5,2.7c1.3,0.7,2.6,1.3,4.1,1.7c2.9,0.8,5.9,0.8,8.8,0
		c1.4-0.4,2.8-1,4.1-1.7c1.3-0.7,2.4-1.6,3.5-2.7l0,0c1-1,2-2.2,2.7-3.5c0.7-1.3,1.3-2.7,1.7-4.1c0.8-2.9,0.8-5.9,0-8.8
		c-0.4-1.4-1-2.8-1.7-4.1c-0.7-1.3-1.6-2.5-2.7-3.5c-1-1-2.2-1.9-3.5-2.7c-3.9-2.3-8.5-2.9-12.8-1.7
		C396.4,349.5,395,350.1,393.8,350.8z"/>
	<path class="st5" d="M410.7,380.1c-1.3,0.7-2.6,1.3-4.1,1.7c-2.9,0.8-5.9,0.8-8.8,0c-1.4-0.4-2.8-1-4.1-1.7
		c-1.3-0.7-2.5-1.6-3.5-2.7c-1-1-1.9-2.2-2.7-3.5c-0.7-1.3-1.3-2.7-1.7-4.1c-0.8-2.9-0.8-5.9,0-8.8c0.4-1.4,0.9-2.8,1.7-4.1
		c0.7-1.3,1.6-2.5,2.7-3.5c1-1,2.2-1.9,3.5-2.7c1.3-0.7,2.6-1.3,4.1-1.7c1.4-0.4,2.9-0.6,4.4-0.6v-3.3c-5.4,0-10.5,2.1-14.3,5.9
		c-1.2,1.3-2.3,2.7-3.2,4.2c-0.9,1.5-1.6,3.2-2,4.9c-0.9,3.4-0.9,7.1,0,10.5c0.4,1.7,1.1,3.4,2,4.9c2.7,4.6,7.1,8,12.3,9.4
		c3.4,0.9,7,0.9,10.5,0c1.7-0.4,3.3-1.1,4.9-2c1.5-0.9,2.9-1.9,4.2-3.2l-2.4-2.4C413.1,378.5,411.9,379.4,410.7,380.1z"/>
	<path class="st1" d="M421.8,360.2c-1.9-7-7.3-12.4-14.3-14.3c-1.7-0.5-3.5-0.7-5.2-0.7v3.3c3,0,5.9,0.8,8.5,2.3
		c1.3,0.7,2.5,1.6,3.5,2.7c1,1,2,2.2,2.7,3.5c0.7,1.3,1.3,2.7,1.7,4.1c0.8,2.9,0.8,5.9,0,8.8c-0.4,1.4-1,2.8-1.7,4.1
		c-0.7,1.3-1.6,2.5-2.7,3.5l0,0l2.4,2.4l0,0c3.8-3.8,5.9-8.9,5.9-14.3C422.5,363.7,422.2,361.9,421.8,360.2z"/>
	<path class="st3" d="M399,367.6c0,1-0.8,1.8-1.8,1.8c-0.1,0-0.1,0-0.2,0c-1.6,0-2.4-1.1-2.4-2.9s1.1-3,2.7-3c0.5,0,1,0.1,1.4,0.3
		l-0.2,0.5c-0.3-0.2-0.7-0.3-1.1-0.3c-1.3,0-2.1,0.8-2.1,2.4c0,0.2,0,0.3,0,0.5c0.3-0.7,1-1.1,1.8-1c1-0.1,1.9,0.5,2,1.5
		C399,367.4,399,367.5,399,367.6z M398.4,367.6c0-0.8-0.6-1.3-1.5-1.3c-0.7-0.1-1.4,0.4-1.5,1.2c0,0,0,0.1,0,0.1
		c0,0.6,0.5,1.2,1.5,1.2c0.7,0.1,1.3-0.4,1.4-1.1C398.4,367.7,398.4,367.6,398.4,367.6L398.4,367.6z"/>
	<path class="st3" d="M403.6,367.6c0,1-0.7,1.8-2.1,1.8c-0.8,0-1.5-0.2-2.1-0.8l0.3-0.5c0.5,0.5,1.1,0.7,1.8,0.7
		c1,0,1.5-0.5,1.5-1.2s-0.5-1.2-2-1.2h-1.2l0.3-2.9h3.2v0.5h-2.7l-0.2,1.9h0.8C403,365.9,403.6,366.6,403.6,367.6z"/>
	<path class="st3" d="M404.2,365c0-1,0.5-1.6,1.3-1.6s1.3,0.6,1.3,1.6s-0.5,1.6-1.3,1.6S404.2,366,404.2,365z M406.5,365
		c0-0.8-0.4-1.2-0.9-1.2s-0.9,0.5-0.9,1.2s0.4,1.2,0.9,1.2S406.5,365.8,406.5,365z M409.1,363.5h0.5l-4,5.8h-0.5L409.1,363.5z
		 M407.8,367.8c0-1,0.5-1.6,1.3-1.6s1.3,0.6,1.3,1.6s-0.5,1.6-1.3,1.6S407.8,368.7,407.8,367.8L407.8,367.8z M410,367.8
		c0-0.8-0.4-1.2-0.9-1.2s-0.9,0.5-0.9,1.2s0.4,1.2,0.9,1.2S410,368.5,410,367.8L410,367.8z"/>
	<path class="st1" d="M480.8,365.4c0,1.8-0.2,3.5-0.7,5.2c-1.4,5.2-4.8,9.6-9.4,12.3c-1.5,0.9-3.2,1.6-4.9,2c-3.4,0.9-7,0.9-10.5,0
		c-1.7-0.4-3.3-1.1-4.9-2c-3.1-1.8-5.6-4.3-7.4-7.4c-0.9-1.5-1.6-3.2-2-4.9c-0.3-1.3-0.5-2.5-0.6-3.8h3.4c0.1,1,0.3,2,0.5,3
		c0.4,1.4,0.9,2.8,1.7,4.1c0.7,1.3,1.6,2.5,2.7,3.5c1,1,2.2,1.9,3.5,2.7c1.3,0.7,2.6,1.3,4.1,1.7c2.9,0.8,5.9,0.8,8.8,0
		c1.4-0.4,2.8-1,4.1-1.7c1.3-0.7,2.5-1.6,3.5-2.7c1-1,2-2.2,2.7-3.5c0.7-1.3,1.3-2.6,1.7-4.1c0.8-2.9,0.8-5.9,0-8.8
		c-0.4-1.4-1-2.8-1.7-4.1c-0.7-1.3-1.6-2.5-2.7-3.5c-2.1-2.1-4.7-3.6-7.6-4.4c-1.4-0.4-2.9-0.6-4.4-0.6v-3.3c1.8,0,3.5,0.2,5.2,0.7
		c1.7,0.4,3.4,1.1,4.9,2c4.6,2.7,8,7.1,9.4,12.3C480.6,361.9,480.8,363.7,480.8,365.4z"/>
	<path class="st3" d="M456,363.1v0.4l-2.5,5.4h-0.6l2.4-5.3h-3v1.1h-0.6v-1.6L456,363.1z"/>
	<path class="st3" d="M460.6,367.3c0,1-0.7,1.8-2.1,1.8c-0.8,0-1.5-0.2-2.1-0.8l0.3-0.5c0.5,0.5,1.1,0.7,1.8,0.7
		c1,0,1.5-0.5,1.5-1.2s-0.5-1.2-2-1.2h-1.2l0.3-2.9h3.2v0.5h-2.6l-0.2,1.9h0.8C459.9,365.5,460.6,366.2,460.6,367.3z"/>
	<path class="st3" d="M461.2,364.7c0-1,0.5-1.6,1.3-1.6s1.3,0.6,1.3,1.6s-0.5,1.6-1.3,1.6S461.2,365.6,461.2,364.7z M463.4,364.7
		c0-0.8-0.4-1.2-0.9-1.2s-0.9,0.5-0.9,1.2s0.4,1.2,0.9,1.2S463.4,365.5,463.4,364.7z M466,363.1h0.5l-4,5.8H462L466,363.1z
		 M464.8,367.4c0-1,0.5-1.6,1.3-1.6s1.3,0.6,1.3,1.6s-0.5,1.6-1.3,1.6S464.8,368.4,464.8,367.4L464.8,367.4z M467,367.4
		c0-0.8-0.4-1.2-0.9-1.2s-0.9,0.5-0.9,1.2s0.4,1.2,0.9,1.2S467,368.2,467,367.4L467,367.4z"/>
	<path class="st5" d="M477.5,365.4c0,1.5-0.2,2.9-0.6,4.4c-0.4,1.4-0.9,2.8-1.7,4.1c-0.7,1.3-1.6,2.5-2.7,3.5c-1,1-2.2,1.9-3.5,2.7
		c-1.3,0.7-2.7,1.3-4.1,1.7c-2.9,0.8-5.9,0.8-8.8,0c-1.4-0.4-2.8-1-4.1-1.7c-1.3-0.7-2.5-1.6-3.5-2.7c-1.1-1-2-2.2-2.7-3.5
		c-0.7-1.3-1.3-2.6-1.7-4.1c-0.3-1-0.4-2-0.5-3l0,0c0-0.5-0.1-0.9-0.1-1.4c0-1.5,0.2-3,0.6-4.4c0.8-2.9,2.3-5.5,4.4-7.6
		c3.2-3.2,7.5-5,12-5v-3.3c-5.4,0-10.5,2.1-14.3,5.9c-2.5,2.5-4.3,5.6-5.2,9.1c-0.5,1.7-0.7,3.5-0.7,5.2c0,0.5,0,0.9,0,1.4l0,0
		c0.1,1.3,0.3,2.6,0.6,3.8c0.4,1.7,1.1,3.3,2,4.9c1.8,3.1,4.3,5.6,7.4,7.4c1.5,0.9,3.2,1.6,4.9,2c3.4,0.9,7,0.9,10.5,0
		c1.7-0.4,3.4-1.1,4.9-2c4.6-2.7,8-7.1,9.4-12.3c0.5-1.7,0.7-3.5,0.7-5.2L477.5,365.4z"/>
	<path class="st1" d="M496.8,404.4H366c-4.9,0-8.8-3.9-8.8-8.8v-73.4c0-4.9,3.9-8.8,8.8-8.8h130.8c4.9,0,8.8,3.9,8.8,8.8v73.4
		C505.5,400.4,501.6,404.4,496.8,404.4z M366,314.4c-4.3,0-7.8,3.5-7.8,7.8v73.4c0,4.3,3.5,7.8,7.8,7.8h130.8c4.3,0,7.8-3.5,7.8-7.8
		v-73.4c0-4.3-3.5-7.8-7.8-7.8H366z"/>
	<path class="st1" d="M432.8,334c0,0.1-13.7,0.3-30.5,0.3s-30.5-0.1-30.5-0.3s13.7-0.3,30.5-0.3S432.8,333.9,432.8,334z"/>
	<path class="st1" d="M540.8,233.9L540.8,233.9c-1.2,0-2.1-0.9-2.1-2.1v-39.1c0-1.2,0.9-2.1,2.1-2.1l0,0c1.1,0,2.1,0.9,2.1,2.1v0
		v39.1C542.9,232.9,541.9,233.9,540.8,233.9L540.8,233.9z"/>
	<path class="st5" d="M540.8,234.1L540.8,234.1c-1.1,0-2.1-0.9-2.1-2.1v-25.2c0-1.2,0.9-2.1,2.1-2.1l0,0c1.2,0,2.1,0.9,2.1,2.1V232
		C542.9,233.1,541.9,234.1,540.8,234.1z"/>
	<path class="st3" d="M539.5,235.7v3.5h-0.4V236h-0.8v-0.3L539.5,235.7z"/>
	<path class="st3" d="M540.3,237.4c0-1.1,0.6-1.8,1.4-1.8s1.4,0.7,1.4,1.8s-0.6,1.8-1.4,1.8S540.3,238.5,540.3,237.4z M542.7,237.4
		c0-0.9-0.4-1.4-1-1.4s-1,0.5-1,1.4s0.4,1.4,1,1.4S542.7,238.4,542.7,237.4L542.7,237.4z"/>
	<path class="st1" d="M549.1,233.9L549.1,233.9c-1.1,0-2.1-0.9-2.1-2c0,0,0,0,0,0v-39.1c0-1.1,0.9-2.1,2.1-2.1l0,0l0,0
		c1.1,0,2.1,0.9,2.1,2.1v0v39.1C551.2,232.9,550.2,233.9,549.1,233.9z"/>
	<path class="st5" d="M549.1,234.1L549.1,234.1c-1.1,0-2.1-0.9-2.1-2c0,0,0,0,0,0v-33.1c0-1.2,0.9-2.1,2.1-2.1l0,0
		c1.2,0,2.1,0.9,2.1,2.1V232C551.2,233.1,550.2,234.1,549.1,234.1z"/>
	<path class="st3" d="M548.6,238.9v0.3h-2.4v-0.2l1.4-1.4c0.4-0.4,0.5-0.6,0.5-0.9c0-0.4-0.3-0.6-0.8-0.6c-0.4,0-0.7,0.1-0.9,0.4
		l-0.3-0.2c0.3-0.3,0.8-0.5,1.2-0.5c0.7,0,1.2,0.4,1.2,0.9c0,0.4-0.2,0.8-0.6,1.1l-1.2,1.2L548.6,238.9z"/>
	<path class="st3" d="M549,237.4c0-1.1,0.6-1.8,1.4-1.8s1.4,0.7,1.4,1.8s-0.6,1.8-1.4,1.8S549,238.5,549,237.4z M551.4,237.4
		c0-0.9-0.4-1.4-1-1.4s-1,0.5-1,1.4s0.4,1.4,1,1.4S551.4,238.4,551.4,237.4L551.4,237.4z"/>
	<path class="st1" d="M557.4,233.9L557.4,233.9c-1.1,0-2.1-0.9-2.1-2.1v0v-39.1c0-1.1,0.9-2.1,2.1-2.1l0,0l0,0
		c1.1,0,2.1,0.9,2.1,2.1v0v39.1C559.5,232.9,558.6,233.9,557.4,233.9L557.4,233.9z"/>
	<path class="st5" d="M557.4,234.1L557.4,234.1c-1.1,0-2.1-0.9-2.1-2.1v0v-19.2c0-1.1,0.9-2.1,2.1-2.1l0,0l0,0
		c1.1,0,2.1,0.9,2.1,2.1v0V232C559.5,233.1,558.6,234.1,557.4,234.1z"/>
	<path class="st3" d="M556.9,238.2c0,0.6-0.4,1-1.3,1c-0.5,0-0.9-0.1-1.2-0.4l0.2-0.3c0.3,0.3,0.7,0.4,1.1,0.4
		c0.6,0,0.9-0.3,0.9-0.7s-0.3-0.7-0.9-0.7h-0.2v-0.3l1-1.2h-1.8v-0.3h2.2v0.3l-1,1.2C556.5,237.2,556.9,237.6,556.9,238.2z"/>
	<path class="st3" d="M557.4,237.4c0-1.1,0.6-1.8,1.4-1.8s1.4,0.7,1.4,1.8s-0.6,1.8-1.4,1.8S557.4,238.5,557.4,237.4z M559.8,237.4
		c0-0.9-0.4-1.4-1-1.4s-1,0.5-1,1.4s0.4,1.4,1,1.4S559.8,238.4,559.8,237.4L559.8,237.4z"/>
	<path class="st1" d="M565.8,233.9L565.8,233.9c-1.1,0-2.1-0.9-2.1-2.1v0v-39.1c0-1.1,0.9-2.1,2.1-2.1l0,0l0,0
		c1.1,0,2.1,0.9,2.1,2.1v0v39.1C567.8,232.9,566.9,233.9,565.8,233.9L565.8,233.9z"/>
	<path class="st5" d="M565.8,234.1L565.8,234.1c-1.1,0-2.1-0.9-2.1-2.1v0v-33.1c0-1.2,0.9-2.1,2.1-2.1l0,0c1.2,0,2.1,0.9,2.1,2.1
		V232C567.8,233.1,566.9,234.1,565.8,234.1z"/>
	<path class="st3" d="M565.8,238.3h-0.7v0.9h-0.4v-0.9h-2V238l1.8-2.3h0.4l-1.8,2.2h1.5v-0.8h0.3v0.8h0.7L565.8,238.3z"/>
	<path class="st3" d="M566.1,237.4c0-1.1,0.6-1.8,1.4-1.8s1.4,0.7,1.4,1.8s-0.6,1.8-1.4,1.8S566.1,238.5,566.1,237.4z M568.5,237.4
		c0-0.9-0.4-1.4-1-1.4s-1,0.5-1,1.4s0.4,1.4,1,1.4S568.5,238.4,568.5,237.4z"/>
	<path class="st1" d="M574.1,233.9L574.1,233.9c-1.1,0-2.1-0.9-2.1-2.1v-39.1c0-1.2,0.9-2.1,2.1-2.1l0,0c1.1,0,2.1,0.9,2.1,2.1v0
		v39.1C576.2,232.9,575.2,233.9,574.1,233.9C574.1,233.9,574.1,233.9,574.1,233.9z"/>
	<path class="st5" d="M574.1,234.1L574.1,234.1c-1.1,0-2.1-0.9-2.1-2.1v-26.8c0-1.2,0.9-2.1,2.1-2.1l0,0c1.1,0,2.1,0.9,2.1,2.1v0
		V232C576.2,233.1,575.2,234.1,574.1,234.1L574.1,234.1z"/>
	<path class="st3" d="M573.9,238.1c0,0.6-0.4,1-1.3,1c-0.5,0-0.9-0.1-1.2-0.4l0.2-0.3c0.3,0.3,0.7,0.4,1.1,0.4
		c0.6,0,0.9-0.3,0.9-0.7s-0.3-0.7-1.2-0.7h-0.7l0.2-1.7h1.9v0.4h-1.6l-0.1,1.1h0.5C573.5,237.1,573.9,237.5,573.9,238.1z"/>
	<path class="st3" d="M574.3,237.4c0-1.1,0.6-1.8,1.4-1.8s1.4,0.7,1.4,1.8s-0.6,1.8-1.4,1.8S574.3,238.5,574.3,237.4z M576.8,237.4
		c0-0.9-0.4-1.4-1-1.4s-1,0.5-1,1.4s0.4,1.4,1,1.4S576.8,238.4,576.8,237.4z"/>
	<path class="st1" d="M582.4,233.9L582.4,233.9c-1.1,0-2.1-0.9-2.1-2.1v0v-39.1c0-1.1,0.9-2.1,2.1-2.1l0,0l0,0
		c1.1,0,2.1,0.9,2.1,2.1v0v39.1C584.5,232.9,583.5,233.9,582.4,233.9L582.4,233.9z"/>
	<path class="st5" d="M582.4,233.9L582.4,233.9c-1.1,0-2-0.8-2.1-1.9v-19.2c-0.1-1.2,0.8-2.2,2-2.3c0,0,0.1,0,0.1,0l0,0
		c1.1,0,2.1,0.9,2.1,2.1v0v19.2C584.5,232.9,583.5,233.9,582.4,233.9L582.4,233.9z"/>
	<path class="st3" d="M582.1,238.1c0,0.6-0.5,1.1-1.1,1.1c0,0-0.1,0-0.1,0c-0.9,0-1.4-0.6-1.4-1.7s0.6-1.8,1.6-1.8
		c0.3,0,0.6,0.1,0.8,0.2l-0.2,0.3c-0.2-0.1-0.4-0.2-0.7-0.2c-0.8,0-1.2,0.5-1.2,1.4c0,0.1,0,0.2,0,0.3c0.2-0.4,0.6-0.6,1.1-0.6
		c0.6-0.1,1.1,0.3,1.2,0.9C582.1,238,582.1,238.1,582.1,238.1z M581.8,238.1c0-0.4-0.3-0.8-0.9-0.8c-0.4-0.1-0.8,0.2-0.9,0.6
		c-0.1,0.4,0.2,0.8,0.6,0.9c0.1,0,0.2,0,0.3,0c0.4,0.1,0.8-0.2,0.9-0.6C581.8,238.2,581.8,238.2,581.8,238.1L581.8,238.1z"/>
	<path class="st3" d="M582.5,237.4c0-1.1,0.6-1.8,1.4-1.8s1.4,0.7,1.4,1.8s-0.6,1.8-1.4,1.8S582.5,238.5,582.5,237.4z M584.9,237.4
		c0-0.9-0.4-1.4-1-1.4s-1,0.5-1,1.4s0.4,1.4,1,1.4S584.9,238.4,584.9,237.4z"/>
	<path class="st1" d="M590.7,233.9L590.7,233.9c-1.1,0-2.1-0.9-2.1-2.1v0v-39.1c0-1.1,0.9-2.1,2.1-2.1l0,0l0,0
		c1.1,0,2.1,0.9,2.1,2.1v0v39.1C592.8,232.9,591.9,233.9,590.7,233.9L590.7,233.9z"/>
	<path class="st5" d="M590.7,234.1L590.7,234.1c-1.1,0-2.1-0.9-2.1-2.1v0v-35.1c0-1.1,0.9-2.1,2.1-2.1l0,0l0,0
		c1.1,0,2.1,0.9,2.1,2.1v0V232C592.8,233.1,591.9,234.1,590.7,234.1z"/>
	<path class="st3" d="M590.3,235.7v0.3l-1.5,3.2h-0.4l1.4-3.1h-1.8v0.6h-0.3v-1L590.3,235.7z"/>
	<path class="st3" d="M590.7,237.4c0-1.1,0.6-1.8,1.4-1.8s1.4,0.7,1.4,1.8s-0.6,1.8-1.4,1.8S590.7,238.5,590.7,237.4z M593.1,237.4
		c0-0.9-0.4-1.4-1-1.4s-1,0.5-1,1.4s0.4,1.4,1,1.4S593,238.4,593.1,237.4L593.1,237.4z"/>
	<path class="st1" d="M599,233.9L599,233.9c-1.1,0-2-1-2-2.1v-39.1c0-1.1,0.9-2.1,2.1-2.1l0,0l0,0c1.1,0,2.1,0.9,2.1,2.1v0v39.1
		C601.2,232.9,600.2,233.9,599,233.9C599.1,233.9,599,233.9,599,233.9z"/>
	<path class="st5" d="M599,234.1L599,234.1c-1.1,0-2-1-2-2.1v-15.3c0-1.1,0.9-2.1,2.1-2.1l0,0l0,0c1.1,0,2.1,0.9,2.1,2.1v0V232
		C601.2,233.1,600.2,234.1,599,234.1C599,234.1,599,234.1,599,234.1z"/>
	<path class="st3" d="M598.6,238.2c0,0.6-0.5,1-1.3,1s-1.3-0.4-1.3-1c0-0.4,0.3-0.8,0.7-0.9c-0.3-0.1-0.6-0.4-0.5-0.8
		c0-0.6,0.5-0.9,1.2-0.9s1.2,0.4,1.2,0.9c0,0.3-0.2,0.7-0.5,0.8C598.3,237.4,598.6,237.8,598.6,238.2z M598.3,238.2
		c0-0.4-0.4-0.7-1-0.7s-1,0.3-1,0.7s0.4,0.7,1,0.7S598.3,238.6,598.3,238.2z M597.3,237.2c0.5,0,0.9-0.2,0.9-0.6s-0.3-0.6-0.9-0.6
		s-0.9,0.2-0.9,0.6S596.7,237.2,597.3,237.2L597.3,237.2z"/>
	<path class="st3" d="M599.1,237.4c0-1.1,0.6-1.8,1.4-1.8s1.4,0.7,1.4,1.8s-0.6,1.8-1.4,1.8S599.1,238.5,599.1,237.4z M601.5,237.4
		c0-0.9-0.4-1.4-1-1.4s-1,0.5-1,1.4s0.4,1.4,1,1.4S601.5,238.4,601.5,237.4L601.5,237.4z"/>
	<path class="st1" d="M607.4,233.9L607.4,233.9c-1.1,0-2.1-0.9-2.1-2.1v0v-39.1c0-1.1,0.9-2.1,2.1-2.1l0,0l0,0
		c1.2,0,2.1,0.9,2.1,2.1v39.1C609.4,233,608.5,233.9,607.4,233.9z"/>
	<path class="st5" d="M607.4,233.9L607.4,233.9c-1.1,0-2-0.8-2.1-1.9v-5.4c-0.1-1.2,0.8-2.2,2-2.3c0,0,0.1,0,0.1,0l0,0
		c1.2,0,2.1,0.9,2.1,2.1v5.4C609.4,233,608.5,233.9,607.4,233.9z"/>
	<path class="st3" d="M606.7,237.4c0,1.2-0.7,1.8-1.6,1.8c-0.3,0-0.6-0.1-0.8-0.2l0.1-0.3c0.2,0.1,0.4,0.2,0.7,0.2
		c0.7,0,1.2-0.5,1.2-1.4c0-0.1,0-0.2,0-0.3c-0.2,0.4-0.6,0.6-1.1,0.6c-0.6,0.1-1.1-0.3-1.2-0.9c0,0,0-0.1,0-0.1
		c0-0.6,0.5-1.1,1.1-1.1c0,0,0.1,0,0.1,0C606.2,235.7,606.7,236.3,606.7,237.4z M606.2,236.7c0-0.4-0.3-0.7-0.9-0.7
		c-0.4,0-0.8,0.2-0.8,0.7c0,0,0,0.1,0,0.1c0,0.5,0.3,0.8,0.9,0.8C605.8,237.5,606.2,237.2,606.2,236.7
		C606.2,236.8,606.2,236.7,606.2,236.7L606.2,236.7z"/>
	<path class="st3" d="M607.2,237.4c0-1.1,0.6-1.8,1.4-1.8s1.4,0.7,1.4,1.8s-0.6,1.8-1.4,1.8S607.2,238.5,607.2,237.4z M609.7,237.4
		c0-0.9-0.4-1.4-1-1.4s-1,0.5-1,1.4s0.4,1.4,1,1.4S609.7,238.4,609.7,237.4z"/>
	<path class="st1" d="M615.7,233.9L615.7,233.9c-1.1,0-2.1-0.9-2.1-2.1v0v-39.1c0-1.1,0.9-2.1,2.1-2.1l0,0l0,0
		c1.1,0,2.1,0.9,2.1,2.1v0v39.1C617.8,232.9,616.8,233.9,615.7,233.9L615.7,233.9z"/>
	<path class="st5" d="M615.7,233.9L615.7,233.9c-1.1,0-2-0.8-2.1-1.9v-19.2c-0.1-1.2,0.8-2.2,2-2.3c0,0,0.1,0,0.1,0l0,0
		c1.1,0,2.1,0.9,2.1,2.1v0v19.2C617.8,232.9,616.8,233.9,615.7,233.9L615.7,233.9z"/>
	<path class="st3" d="M612.7,235.7v3.5h-0.3V236h-0.8v-0.3L612.7,235.7z"/>
	<path class="st3" d="M613.5,237.4c0-1.1,0.6-1.8,1.4-1.8s1.4,0.7,1.4,1.8s-0.6,1.8-1.4,1.8S613.5,238.5,613.5,237.4z M615.9,237.4
		c0-0.9-0.4-1.4-1-1.4s-1,0.5-1,1.4s0.4,1.4,1,1.4S615.9,238.4,615.9,237.4z"/>
	<path class="st3" d="M616.8,237.4c0-1.1,0.6-1.8,1.4-1.8s1.4,0.7,1.4,1.8s-0.6,1.8-1.4,1.8S616.8,238.5,616.8,237.4z M619.2,237.4
		c0-0.9-0.4-1.4-1-1.4s-1,0.5-1,1.4s0.4,1.4,1,1.4S619.2,238.4,619.2,237.4z"/>
	<path class="st1" d="M599,171.1c0,0.1-13.5,0.3-30.3,0.3s-30.3-0.1-30.3-0.3s13.5-0.3,30.3-0.3S599,171,599,171.1z"/>
	<path class="st1" d="M617.8,262.5c0,0.1-17.8,0.3-39.7,0.3s-39.7-0.1-39.7-0.3s17.8-0.3,39.7-0.3S617.8,262.4,617.8,262.5z"/>
	<path class="st1" d="M617.8,276.1c0,0.1-17.8,0.3-39.7,0.3s-39.7-0.1-39.7-0.3s17.8-0.3,39.7-0.3S617.8,276,617.8,276.1z"/>
	<path class="st1" d="M617.8,289.8c0,0.1-17.8,0.3-39.7,0.3s-39.7-0.1-39.7-0.3s17.8-0.3,39.7-0.3S617.8,289.6,617.8,289.8z"/>
	<path class="st1" d="M617.8,303.4c0,0.1-17.8,0.3-39.7,0.3s-39.7-0.1-39.7-0.3s17.8-0.3,39.7-0.3S617.8,303.3,617.8,303.4z"/>
	<path class="st1" d="M617.8,317c0,0.1-17.8,0.3-39.7,0.3s-39.7-0.1-39.7-0.3s17.8-0.3,39.7-0.3S617.8,316.9,617.8,317z"/>
	<path class="st5" d="M614.6,363.4c7.4,0,13.4,6,13.4,13.4v11.1c0,7.4-6,13.4-13.4,13.4H540c-7.4,0-13.4-6-13.4-13.4v-11.1
		c0-7.4,6-13.4,13.4-13.4H614.6 M614.7,362.4H540c-7.9,0-14.4,6.4-14.4,14.4v11.1c0,7.9,6.4,14.4,14.4,14.4l0,0h74.7
		c7.9,0,14.3-6.4,14.3-14.4v-11.1C629,368.9,622.6,362.4,614.7,362.4C614.6,362.4,614.6,362.4,614.7,362.4L614.7,362.4z"/>
	<path class="st5" d="M608.4,383.5c0,0.1-13.9,0.3-31.1,0.3s-31.1-0.1-31.1-0.3s13.9-0.3,31.1-0.3S608.4,383.3,608.4,383.5z"/>
	<path class="st5" d="M316.4,111.3c7.7-6,14.5-13.5,23.3-17.7c15.2-7.2,33.1-3.6,49.3,0.9s33.4,9.7,49.5,5
		c15-4.2,26.9-17.4,30.3-32.6H190.5c3.7,30.8,26.9,56.2,57.8,61.5l1.9,0.3C273.7,132.1,297.6,125.8,316.4,111.3z"/>
	<path class="st5" d="M505.3,95.5c7.8,7.1,19.3,9,29.8,7.8c7.1-0.8,14.3-3.1,19.4-8c5.8-5.6,8.2-14.3,6.6-22.3
		c-0.4-2.1-1.1-4.1-2-6.1h-58C494.7,75.4,497.5,88.4,505.3,95.5z"/>
	<g class="st10">
		<path class="st11" d="M316.4,111.3c7.7-6,14.5-13.5,23.3-17.7c15.2-7.2,33.1-3.6,49.3,0.9s33.4,9.7,49.5,5
			c15-4.2,26.9-17.4,30.3-32.6H190.5c3.7,30.8,26.9,56.2,57.8,61.5l1.9,0.3C273.7,132.1,297.6,125.8,316.4,111.3z"/>
		<path class="st11" d="M505.3,95.5c7.8,7.1,19.3,9,29.8,7.8c7.1-0.8,14.3-3.1,19.4-8c5.8-5.6,8.2-14.3,6.6-22.3
			c-0.4-2.1-1.1-4.1-2-6.1h-58C494.7,75.4,497.5,88.4,505.3,95.5z"/>
	</g>
	<path class="st9" d="M563.2,94.3c0.3,0,0.7,0.1,1,0.3l0.8-0.6l1.3,1l-0.4,0.9c0.2,0.3,0.4,0.6,0.5,0.9l1,0.1l0.2,1.6l-0.9,0.3
		c0,0.3-0.1,0.7-0.3,1l0.6,0.8l-1,1.3l-0.9-0.4c-0.3,0.2-0.6,0.4-0.9,0.5l-0.1,1l-1.6,0.2l-0.3-0.9c-0.3,0-0.7-0.1-1-0.3l-0.8,0.6
		l-1.3-1l0.4-0.9c-0.2-0.3-0.4-0.6-0.5-0.9l-1-0.1l-0.2-1.6l0.9-0.3c0.1-0.3,0.1-0.7,0.3-1l-0.6-0.8l1-1.3l0.9,0.4
		c0.3-0.2,0.6-0.4,0.9-0.5l0.1-1l1.6-0.2L563.2,94.3L563.2,94.3z M562.7,96.5c-1,0-1.7,0.8-1.7,1.8c0,1,0.8,1.7,1.8,1.7
		c1,0,1.7-0.8,1.7-1.8c0-0.1,0-0.2,0-0.4C564.2,97,563.5,96.5,562.7,96.5L562.7,96.5z"/>
	<path class="st3" d="M562.7,96.5c0,0,0.2-0.1,0.5-0.1c0.4,0.1,0.8,0.3,1.1,0.6c0.4,0.5,0.6,1.2,0.4,1.8c-0.3,1.1-1.5,1.6-2.5,1.3
		c-0.6-0.2-1-0.6-1.2-1.2c-0.2-0.6-0.1-1.3,0.3-1.9c0.3-0.3,0.6-0.6,1.1-0.7C562.5,96.5,562.7,96.5,562.7,96.5c0,0-0.7,0-1.2,0.8
		c-0.3,0.4-0.3,1-0.1,1.5c0.2,0.6,0.8,1,1.5,0.9c0.6,0,1.2-0.4,1.4-1c0.2-0.5,0.1-1-0.2-1.5C563.6,96.9,563.2,96.6,562.7,96.5z"/>
	<path class="st3" d="M563.2,94.3c-0.2-0.3-0.3-0.6-0.4-0.9h0.1l-1.6,0.3l0.1-0.1c0,0.3,0,0.6-0.1,1v0.1h-0.1
		c-0.3,0.1-0.6,0.3-0.9,0.5l-0.1,0.1h-0.1l-0.9-0.4h0.2l-1,1.3v-0.2l0.6,0.8l0.1,0.1v0.1c-0.1,0.3-0.2,0.7-0.2,1V98h-0.1l-0.9,0.3
		l0.2-0.2c0.1,0.5,0.2,1.1,0.2,1.6l-0.2-0.2l1,0.1h0.2l0.1,0.1c0.1,0.3,0.3,0.6,0.5,0.9l0.1,0.1l-0.1,0.1l-0.4,0.9l-0.1-0.3l1.3,1
		h-0.3l0.8-0.6l0.1-0.1l0.2,0.1c0.3,0.1,0.7,0.2,1,0.3l0,0l0.2,0.2l0,0l0,0v0.1v0.1l0.1,0.2l0.2,0.5l-0.3-0.2l1.6-0.2l-0.2,0.2
		l0.1-1v-0.2l0.1-0.1c0.3-0.1,0.6-0.3,0.9-0.5l0.1-0.1l0.1,0.1l0.9,0.4l-0.3,0.1l1-1.3v0.3l-0.6-0.8l-0.1-0.1v-0.1
		c0.1-0.3,0.2-0.7,0.3-1v-0.1h0.1l0.9-0.3l-0.1,0.2c-0.1-0.6-0.1-1.1-0.2-1.6l0.2,0.2l-1-0.1h-0.1v-0.1c-0.1-0.3-0.3-0.6-0.5-0.9
		l-0.1-0.1l0-0.1l0.4-0.9V95l-1.3-1h0.2l-0.8,0.6l0,0h0C563.5,94.3,563.2,94.3,563.2,94.3c0.1-0.1,0.2-0.1,0.3,0
		c0.3,0,0.5,0.1,0.8,0.2h-0.1l0.7-0.7l0.1-0.1l0.1,0.1l1.3,1l0.1,0.1l0,0.1l-0.4,0.9v-0.2c0.2,0.3,0.4,0.6,0.6,1l-0.2-0.1l1,0.1h0.2
		v0.2c0.1,0.5,0.2,1.1,0.2,1.6v0.2l-0.2,0.1l-0.9,0.4l0.1-0.2c0,0.4-0.1,0.7-0.3,1.1v-0.2l0.6,0.8l0.1,0.1l-0.1,0.2
		c-0.3,0.4-0.7,0.9-1,1.3l-0.1,0.2l-0.2-0.1l-0.9-0.4h0.3c-0.3,0.2-0.6,0.4-1,0.6l0.2-0.2c0,0.3,0,0.7-0.1,1v0.2h-0.2l-1.6,0.2h-0.2
		l-0.1-0.2l-0.2-0.5l-0.1-0.2v-0.1v-0.1l0,0l0,0l0.2,0.2l0,0c-0.4,0-0.7-0.1-1.1-0.3h0.3l-0.8,0.6l-0.2,0.1l-0.2-0.1l-1.3-1
		l-0.2-0.1l0.1-0.2l0.4-0.9v0.3c-0.2-0.3-0.4-0.6-0.6-1l0.2,0.2l-1-0.1h-0.2v-0.2c-0.1-0.6-0.1-1.1-0.2-1.6v-0.2l0.2-0.1l0.9-0.3
		l-0.1,0.2c0-0.4,0.1-0.7,0.3-1.1V97l-0.6-0.8L558,96l0.1-0.1l1-1.3l0.1-0.1l0.1,0.1l0.9,0.4H560c0.3-0.2,0.6-0.4,1-0.5l-0.1,0.1
		c0-0.3,0.1-0.7,0.1-1v-0.1h0.1l1.6-0.2h0.1v0.1C563,93.6,563.1,93.9,563.2,94.3z"/>
	<path class="st3" d="M630.2,423.2h0.3c0.2,0,0.5,0,0.8-0.1c4.2-0.5,7.4-4.1,7.5-8.3c0-1.2,0-2.6,0-4c0-11.4,0-28.1,0-49.8
		c0-43.2,0-105.7-0.1-183c0-19.3,0-39.5,0-60.6c0-10.5,0-21.3,0-32.2V77c0.1-1.4-0.1-2.7-0.5-4c-0.4-1.3-1.2-2.5-2.2-3.4
		c-1-0.9-2.2-1.6-3.5-2c-1.3-0.3-2.7-0.4-4.1-0.3h-8.5h-145H142.7c-3.7,0-7,2.4-8.1,5.9c-0.6,1.7-0.3,3.6-0.4,5.4v70.8
		c0,28.7,0,57,0,84.8c0,55.6,0,109.2,0,160.3c0,6.4,0,12.7,0,19c0,0.8,0,1.6,0.1,2.3c0.3,2.3,1.6,4.4,3.5,5.7
		c1.2,0.9,2.7,1.4,4.2,1.5c1.5,0.1,3.1,0,4.6,0h107.2h126.3l250,0.2l-250,0.2H253.8H146.6c-1.6,0-3.1,0-4.7,0
		c-1.6-0.1-3.2-0.7-4.5-1.6c-2-1.4-3.3-3.6-3.7-6c-0.1-0.8-0.1-1.6-0.1-2.4v-19c0-51.1,0-104.7,0-160.3V75.8c0-0.9,0.1-1.9,0.4-2.8
		c1.2-3.7,4.7-6.3,8.6-6.3h332.3h145h8.5c1.4-0.1,2.9,0,4.2,0.3c2.8,0.8,5.1,2.9,6,5.7c0.4,1.3,0.6,2.8,0.5,4.2v8.3
		c0,10.9,0,21.7,0,32.2c0,21.1,0,41.3,0,60.6c0,77.2-0.1,139.8-0.1,183c0,21.6,0,38.4,0,49.8c0,1.4,0,2.8,0,4
		c-0.1,3.1-1.8,5.8-4.5,7.3c-1,0.5-2,0.9-3.1,1C631,423.2,630.6,423.2,630.2,423.2z"/>
	<path class="st1" d="M426.2,144.6h79.1c5.3,0,9.6,4.3,9.6,9.6v27.3c0,5.3-4.3,9.6-9.6,9.6h-79.1c-5.3,0-9.6-4.3-9.6-9.6v-27.3
		C416.7,148.9,421,144.6,426.2,144.6z"/>
	<path class="st3" d="M443.6,166.9v8.5h-0.9v-7.8h-2v-0.8H443.6z"/>
	<path class="st3" d="M451.4,172.9c0,1.4-1,2.6-3.1,2.6c-1.1,0-2.2-0.4-3.1-1.1l0.4-0.7c0.7,0.7,1.7,1,2.6,1c1.5,0,2.2-0.7,2.2-1.7
		s-0.7-1.8-2.9-1.8h-1.8l0.4-4.3h4.7v0.8h-3.9l-0.3,2.7h1.1C450.4,170.4,451.4,171.4,451.4,172.9z"/>
	<path class="st3" d="M452.5,171.2c0-2.7,1.4-4.3,3.4-4.3s3.4,1.6,3.4,4.3s-1.5,4.4-3.4,4.4S452.5,173.9,452.5,171.2z M458.4,171.2
		c0-2.3-1-3.5-2.5-3.5s-2.5,1.3-2.5,3.5s1,3.5,2.5,3.5S458.4,173.4,458.4,171.2z"/>
	<path class="st3" d="M460.6,171.2c0-2.7,1.4-4.3,3.4-4.3s3.4,1.6,3.4,4.3s-1.4,4.4-3.4,4.4S460.6,173.9,460.6,171.2z M466.5,171.2
		c0-2.3-1-3.5-2.5-3.5s-2.5,1.3-2.5,3.5s1,3.5,2.5,3.5S466.5,173.4,466.5,171.2L466.5,171.2z"/>
	<path class="st3" d="M476,173.2h-1.7v2.2h-0.9v-2.2h-4.8v-0.6l4.5-5.7h1l-4.4,5.5h3.7v-2h0.9v2h1.7V173.2z"/>
	<path class="st3" d="M482.5,174.7v0.8h-6v-0.6l3.5-3.5c1-1,1.1-1.5,1.1-2.1c0-1-0.7-1.6-2-1.6c-0.9,0-1.7,0.3-2.3,1l-0.6-0.5
		c0.8-0.8,1.9-1.3,3-1.2c1.7,0,2.8,0.9,2.8,2.3c0,1.1-0.6,2-1.4,2.7l-2.9,2.9L482.5,174.7z"/>
	<path class="st3" d="M483.6,171.2c0-2.7,1.4-4.3,3.4-4.3s3.4,1.6,3.4,4.3s-1.4,4.4-3.4,4.4S483.6,173.9,483.6,171.2z M489.5,171.2
		c0-2.3-1-3.5-2.5-3.5s-2.5,1.3-2.5,3.5s1,3.5,2.5,3.5S489.5,173.4,489.5,171.2z"/>
	<path class="st3" d="M474.4,158.1c0,0.1-9.5,0.3-21.2,0.3s-21.2-0.1-21.2-0.3s9.5-0.3,21.2-0.3S474.4,158,474.4,158.1z"/>
	<path class="st1" d="M319.1,144.9h79.1c5.3,0,9.6,4.3,9.6,9.6v27.3c0,5.3-4.3,9.6-9.6,9.6h-79.1c-5.3,0-9.6-4.3-9.6-9.6v-27.3
		C309.5,149.2,313.8,144.9,319.1,144.9z"/>
	<path class="st3" d="M332.5,177.9v1.4h-0.6v-1.4c-1.1,0-2.1-0.4-2.9-1.1l0.4-0.7c0.7,0.6,1.6,1,2.6,1v-3.2
		c-1.3-0.3-2.7-0.7-2.7-2.4c0-1.2,0.8-2.2,2.7-2.3v-1.4h0.6v1.4c0.9,0,1.7,0.3,2.5,0.8l-0.3,0.7c-0.7-0.4-1.4-0.7-2.2-0.7v3.2
		c1.4,0.3,2.8,0.7,2.8,2.4C335.4,176.8,334.5,177.8,332.5,177.9z M331.9,173.1V170c-1.3,0.1-1.8,0.8-1.8,1.5
		C330.1,172.5,330.9,172.8,331.9,173.1L331.9,173.1z M334.5,175.6c0-1-0.9-1.3-1.9-1.6v3.1C333.9,177.1,334.5,176.4,334.5,175.6z"/>
	<path class="st3" d="M345.6,177.1v0.8h-6v-0.6l3.5-3.5c1-0.9,1.1-1.5,1.1-2.1c0-1-0.7-1.6-2-1.6c-0.9,0-1.7,0.3-2.3,0.9l-0.6-0.5
		c0.8-0.8,1.9-1.3,3-1.2c1.7,0,2.8,0.9,2.8,2.3c0,1.1-0.6,2-1.4,2.7l-2.9,2.9H345.6z"/>
	<path class="st3" d="M352.4,175.4c0,1.4-1,2.5-3.1,2.5c-1.1,0-2.2-0.4-3.1-1.1l0.4-0.7c0.7,0.7,1.7,1,2.6,1c1.4,0,2.2-0.7,2.2-1.7
		s-0.7-1.7-2.3-1.7h-0.6v-0.6l2.4-3h-4.4v-0.8h5.5v0.6l-2.4,3C351.5,173.1,352.4,174,352.4,175.4z"/>
	<path class="st3" d="M359.3,175.4c0,1.4-1,2.6-3.1,2.6c-1.1,0-2.2-0.4-3.1-1.1l0.4-0.7c0.7,0.7,1.6,1,2.6,1c1.5,0,2.2-0.7,2.2-1.8
		s-0.7-1.8-2.9-1.8h-1.8l0.4-4.3h4.7v0.8h-3.9l-0.3,2.7h1.1C358.3,172.8,359.3,173.8,359.3,175.4z"/>
	<path class="st3" d="M360.4,173.6c0-2.7,1.4-4.4,3.4-4.4s3.4,1.6,3.4,4.4s-1.4,4.3-3.4,4.3S360.4,176.3,360.4,173.6z M366.3,173.6
		c0-2.3-1-3.5-2.5-3.5s-2.5,1.3-2.5,3.5s1,3.5,2.5,3.5S366.3,175.9,366.3,173.6L366.3,173.6z"/>
	<path class="st3" d="M369.7,177.2c0,0.2-0.1,0.5-0.2,0.7l-0.5,1.7h-0.6l0.4-1.8c-0.3-0.1-0.5-0.3-0.4-0.6c0-0.4,0.3-0.7,0.6-0.7
		S369.7,176.9,369.7,177.2C369.7,177.2,369.7,177.2,369.7,177.2z"/>
	<path class="st3" d="M370.8,173.6c0-2.7,1.4-4.4,3.4-4.4s3.4,1.6,3.4,4.4s-1.4,4.3-3.4,4.3S370.8,176.3,370.8,173.6z M376.7,173.6
		c0-2.3-1-3.5-2.5-3.5s-2.5,1.3-2.5,3.5s1,3.5,2.5,3.5S376.7,175.9,376.7,173.6L376.7,173.6z"/>
	<path class="st3" d="M378.9,173.6c0-2.7,1.4-4.4,3.4-4.4s3.4,1.6,3.4,4.4s-1.4,4.3-3.4,4.3S378.9,176.3,378.9,173.6z M384.8,173.6
		c0-2.3-1-3.5-2.5-3.5s-2.5,1.3-2.5,3.5s1,3.5,2.5,3.5S384.8,175.9,384.8,173.6z"/>
	<path class="st3" d="M366.1,159.3c0,0.1-8.6,0.3-19.2,0.3s-19.2-0.1-19.2-0.3s8.6-0.3,19.2-0.3S366.1,159.2,366.1,159.3z"/>
	<path class="st5" d="M211.5,144.9h79.1c5.3,0,9.6,4.3,9.6,9.6v27.3c0,5.3-4.3,9.6-9.6,9.6h-79.1c-5.3,0-9.6-4.3-9.6-9.6v-27.3
		C201.9,149.2,206.2,144.9,211.5,144.9z"/>
	<path class="st11" d="M224.2,177.9v1.4h-0.6v-1.4c-1.1,0-2.1-0.4-2.9-1.1l0.4-0.7c0.7,0.6,1.6,1,2.6,1v-3.2
		c-1.3-0.3-2.7-0.7-2.7-2.4c0-1.2,0.9-2.2,2.7-2.3v-1.4h0.6v1.4c0.9,0,1.7,0.3,2.5,0.8l-0.3,0.7c-0.7-0.4-1.4-0.7-2.2-0.7v3.2
		c1.4,0.3,2.8,0.7,2.8,2.4C227,176.8,226.1,177.8,224.2,177.9z M223.6,173.1V170c-1.2,0.1-1.8,0.8-1.8,1.5
		C221.8,172.5,222.6,172.8,223.6,173.1L223.6,173.1z M226.1,175.6c0-1-0.9-1.3-1.9-1.6v3.1C225.5,177.1,226.1,176.4,226.1,175.6z"/>
	<path class="st11" d="M237.3,177.1v0.8h-6v-0.6l3.6-3.5c1-0.9,1.1-1.5,1.1-2.1c0-1-0.7-1.6-2-1.6c-0.9-0.1-1.7,0.3-2.3,0.9
		l-0.6-0.5c0.8-0.8,1.9-1.3,3-1.2c1.7,0,2.8,0.9,2.8,2.3c0,1.1-0.6,2-1.4,2.7l-2.9,2.9H237.3z"/>
	<path class="st11" d="M240.7,169.3v8.5h-0.9v-7.8h-2v-0.8H240.7z"/>
	<path class="st11" d="M242.8,173.6c0-2.7,1.4-4.4,3.4-4.4s3.4,1.6,3.4,4.4s-1.4,4.3-3.4,4.3S242.8,176.3,242.8,173.6z M248.7,173.6
		c0-2.3-1-3.5-2.5-3.5s-2.5,1.3-2.5,3.5s1,3.5,2.5,3.5S248.7,175.9,248.7,173.6z"/>
	<path class="st11" d="M250.9,173.6c0-2.7,1.4-4.4,3.4-4.4s3.4,1.6,3.4,4.4s-1.4,4.3-3.4,4.3S250.9,176.3,250.9,173.6z M256.8,173.6
		c0-2.3-1-3.5-2.5-3.5s-2.5,1.3-2.5,3.5s1,3.5,2.5,3.5S256.8,175.9,256.8,173.6L256.8,173.6z"/>
	<path class="st11" d="M260.1,177.2c0,0.2-0.1,0.5-0.2,0.7l-0.5,1.7h-0.6l0.4-1.8c-0.3-0.1-0.5-0.3-0.4-0.6c0-0.4,0.3-0.7,0.6-0.7
		S260.1,176.9,260.1,177.2C260.1,177.2,260.1,177.2,260.1,177.2z"/>
	<path class="st11" d="M267.5,173.5c0,2.9-1.6,4.4-3.9,4.4c-0.7,0-1.4-0.1-2-0.5l0.4-0.7c0.5,0.3,1.1,0.4,1.7,0.4c1.9,0,3-1.2,3-3.5
		c0-0.2,0-0.5,0-0.7c-0.5,1-1.5,1.5-2.6,1.5c-1.4,0.2-2.7-0.9-2.9-2.3c0-0.1,0-0.2,0-0.3c0-1.5,1.2-2.7,2.7-2.6c0.1,0,0.1,0,0.2,0
		C266.3,169.2,267.5,170.8,267.5,173.5z M266.3,171.8c0-0.9-0.8-1.8-2.2-1.8c-1-0.1-2,0.6-2.1,1.6c0,0.1,0,0.1,0,0.2
		c0,1.1,0.8,1.9,2.1,1.9C265.2,173.8,266.2,173,266.3,171.8C266.3,171.9,266.3,171.8,266.3,171.8L266.3,171.8z"/>
	<path class="st11" d="M268.8,173.6c0-2.7,1.4-4.4,3.4-4.4s3.4,1.6,3.4,4.4s-1.4,4.3-3.4,4.3S268.8,176.3,268.8,173.6z M274.7,173.6
		c0-2.3-1-3.5-2.5-3.5s-2.5,1.3-2.5,3.5s1,3.5,2.5,3.5S274.7,175.9,274.7,173.6L274.7,173.6z"/>
	<path class="st11" d="M254.6,159.3c0,0.1-7.9,0.3-17.7,0.3s-17.7-0.1-17.7-0.3s7.9-0.3,17.7-0.3S254.6,159.2,254.6,159.3z"/>
	<path class="st11" d="M157.2,106.9L157.2,106.9c-4.7,0-8.6-3.8-8.6-8.6l0,0c0-4.7,3.8-8.6,8.5-8.6c0,0,0,0,0,0l0,0
		c4.7,0,8.6,3.8,8.6,8.5v0l0,0C165.7,103.1,161.9,106.9,157.2,106.9C157.2,106.9,157.2,106.9,157.2,106.9z"/>
</g>
<path class="st5" d="M608.2,319.1c0,0,9.6,3.2,13.7,27c3.9,22.6,12.3,33.9,12.3,33.9l32.3,5.6l-15.2,26.9L607.4,397l-2.3-44.9
	L608.2,319.1z"/>
<path class="st5" d="M550,318.5c0,0-14.5,1.9-18.5,16.5s-8.5,49.2-8.5,49.2L496.5,429l17.6,10.9l26.2-35.5c3-4.1,5-8.8,5.8-13.8
	c0.3-1.9,0.3-3.8,0.2-5.8l-0.6-11L550,318.5z"/>
<path class="st5" d="M546.5,319.3l-5.2,36.2c-0.8,5.2-0.4,10.6,1.1,15.7l6.4,22.1c0,0-5.5,12.4,1.7,16.7c1.4,0.9,36.9,1.4,36.9,1.4
	h15.6l5.7-55l-0.4-37.4c0,0-13-4.7-18.1-5.3c-9.5-0.6-19-0.5-28.4,0.2L546.5,319.3z"/>
<path class="st3" d="M532.1,390.8c-1.2-1.5-2.6-2.8-4.1-4c-1.1-0.8-2.3-1.5-3.5-1.9c-0.5-0.2-1.1-0.4-1.5-0.7c0.6,0,1.1,0.2,1.7,0.4
	c1.3,0.4,2.6,1,3.7,1.9C530,387.5,531.3,389,532.1,390.8z"/>
<path class="st3" d="M544.6,338.2c-0.1,0.6-0.3,1.1-0.5,1.7c-0.2,0.5-0.4,1.2-0.6,2s-0.5,1.6-0.6,2.6c-0.5,2.3-0.9,4.6-1.1,6.9
	c-0.2,2.8-0.3,5.7-0.2,8.6c0.3,5.2,1,10.3,2.2,15.4c0.4,2,0.8,3.5,1.1,4.6c0.2,0.6,0.3,1.1,0.3,1.7c-0.2-0.5-0.4-1.1-0.5-1.6
	c-0.3-1.1-0.8-2.6-1.2-4.6c-1.3-5.1-2.1-10.3-2.3-15.5c-0.1-2.9,0-5.8,0.2-8.6c0.2-2.3,0.7-4.7,1.2-6.9c0.2-1,0.5-1.9,0.7-2.6
	c0.2-0.7,0.4-1.3,0.6-1.9C544.1,339.3,544.3,338.7,544.6,338.2z"/>
<path class="st3" d="M608.1,340.3c0.1,0.6,0.1,1.1,0.1,1.7c0,1.1,0.1,2.7,0.1,4.6c0,3.9,0,9.3-0.3,15.2s-0.7,11.3-1.1,15.2
	c-0.2,1.9-0.4,3.5-0.5,4.6c0,0.6-0.1,1.1-0.3,1.7c0-0.6,0-1.1,0.1-1.7c0.1-1.2,0.2-2.7,0.3-4.6c0.3-3.9,0.7-9.2,0.9-15.2
	s0.4-11.3,0.5-15.2c0-1.9,0.1-3.4,0.1-4.6C608,341.4,608,340.8,608.1,340.3z"/>
<g class="st12">
	<path d="M593.9,383.3c0.7,1.2-0.4,3.5-3.3,5.9c-1.7,1.4-3.5,2.6-5.5,3.5c-4.8,2.3-10,3.5-15.4,3.5c-2.2,0-4.3-0.3-6.5-0.8
		c-3.6-1-5.7-2.5-5.5-3.9s2.3-2.5,5.5-3.5s7.4-1.9,12-2.9s8.8-2.1,12.1-2.6S593.2,382.1,593.9,383.3z"/>
</g>
<path class="st3" d="M595.4,384.7c-0.3,0.4-0.7,0.9-1.1,1.2c-0.4,0.5-0.9,0.9-1.4,1.4c-0.6,0.6-1.3,1.1-2,1.6l-1.2,0.9
	c-0.4,0.3-0.9,0.6-1.4,0.9c-1,0.6-2.1,1.2-3.2,1.7c-2.5,1.2-5.1,2.1-7.8,2.7c-2.7,0.6-5.5,0.9-8.2,0.9c-1.2,0-2.4-0.1-3.6-0.2
	c-0.6-0.1-1.1-0.1-1.6-0.2l-1.5-0.3c-0.9-0.2-1.7-0.4-2.5-0.6c-0.6-0.2-1.2-0.4-1.8-0.6c-0.5-0.2-1-0.4-1.5-0.7c0-0.1,2.2,0.9,6,1.6
	l1.5,0.3c0.5,0.1,1,0.1,1.6,0.2c1.1,0.1,2.3,0.1,3.6,0.2c5.5,0,10.9-1.2,15.8-3.5c1.1-0.5,2.1-1.1,3.2-1.7c0.5-0.3,1-0.5,1.4-0.8
	l1.2-0.9C593.7,386.4,595.3,384.6,595.4,384.7z"/>
<path class="st3" d="M610.2,320.2c0.1,0.1-1.3,2-2.4,4.9s-1.2,5.2-1.4,5.2C606.3,326.6,607.7,323,610.2,320.2z"/>
<g class="st13">
	<path class="st11" d="M613.7,356.7c-2.1,0.8-1.2,0.5-2.1,2.3c-1,1.8-1.1,3.9-0.2,5.7c0.9,1.5,2.3,2.5,4,3c1.9,0.7,4.2,0.9,5.9-0.3
		c1.6-1.4,2.2-3.6,1.5-5.7c-1.2-3.9-5.3-6.1-9.2-5c-0.1,0-0.2,0-0.2,0.1"/>
	<path class="st11" d="M588,377.8c-0.7-1.4-4.1-2.1-5.4-1.2c-0.9,1.3-0.9,3,0,4.3c1,1.3,2.7,1.6,4.2,0.9
		C588.2,381,588.7,379.2,588,377.8z"/>
	<path class="st11" d="M541,381.4c-0.7-1.4-4.2-2.1-5.4-1.2c-0.9,1.3-0.9,3,0,4.3c1,1.3,2.7,1.6,4.2,0.9
		C541.2,384.6,541.7,382.9,541,381.4z"/>
	<path class="st11" d="M553.5,322.2c-3.9,0.6-7.3,3-9.1,6.5c-0.6,1.1-0.9,2.3-0.8,3.6c0.1,1.3,0.8,2.4,1.9,3c1.6,0.8,3.6,0,5.2-1
		c1.4-0.8,2.7-1.7,3.8-2.8c1.2-1.1,1.9-2.6,2.1-4.2c0.2-1.6-0.4-3.2-1.7-4.2c-1.3-1-3.2-0.9-4.4,0.2"/>
	<path class="st11" d="M525.8,398.2c-3.9,0.6-7.3,3-9.2,6.5c-0.6,1.1-0.9,2.3-0.8,3.6c0.1,1.3,0.8,2.4,1.9,3c1.6,0.8,3.6,0,5.2-1
		c1.4-0.8,2.7-1.7,3.8-2.8c1.1-1.1,1.9-2.6,2.1-4.2c0.2-1.6-0.4-3.2-1.7-4.2c-1.3-1-3.2-0.9-4.4,0.2"/>
	<path class="st11" d="M595.3,322.7c-2.1,0.8-1.2,0.5-2.1,2.3c-1,1.8-1.1,3.9-0.2,5.7c0.9,1.5,2.3,2.5,4,3c1.9,0.7,4.2,0.9,5.9-0.3
		c1.6-1.4,2.2-3.6,1.5-5.7c-1.2-3.9-5.3-6.1-9.2-5c-0.1,0-0.2,0.1-0.2,0.1"/>
	<path class="st11" d="M586.9,348.5c0.2,1.5,0.1,0.9,1.2,1.8c1,1,2.5,1.4,3.9,1.1c1.2-0.4,2.1-1.2,2.7-2.2c0.9-1.1,1.2-2.7,0.8-4.1
		c-0.7-1.3-2.1-2.1-3.6-2C589,343.3,586.8,345.7,586.9,348.5c0,0.1,0,0.2,0,0.2"/>
	<path class="st11" d="M528.5,364.6c0.2,1.5,0.1,0.9,1.2,1.8c1,1,2.5,1.4,3.8,1.1c1.1-0.4,2.1-1.2,2.7-2.2c0.9-1.1,1.2-2.7,0.8-4.1
		c-0.7-1.3-2.1-2.1-3.6-2c-2.9,0.1-5.1,2.6-4.9,5.4c0,0.1,0,0.1,0,0.2"/>
	<path class="st11" d="M572.9,345.2c-0.4-0.6-1-0.9-1.7-0.9c-0.7,0.1-1.3,0.3-1.9,0.6l-0.7,1.4c0.7,1.3,2.3,1.7,3.6,1
		c0.1,0,0.1-0.1,0.2-0.1C572.9,346.8,573.2,346,572.9,345.2z"/>
	<path class="st11" d="M540,344.5c-0.4-0.6-1-0.9-1.7-0.9c-0.7,0.1-1.3,0.3-1.9,0.6l-0.7,1.4c0.7,1.3,2.3,1.7,3.6,1
		c0,0,0.1-0.1,0.1-0.1C540.1,346.2,540.3,345.3,540,344.5z"/>
	<path class="st11" d="M603.7,371.7c-0.4-0.6-1-0.9-1.7-0.9c-0.7,0.1-1.3,0.3-1.9,0.6l-0.7,1.4c0.7,1.3,2.3,1.7,3.6,1
		c0.1,0,0.1-0.1,0.2-0.1C603.7,373.4,604,372.5,603.7,371.7z"/>
	<path class="st11" d="M554.7,402.5c-0.4-0.6-1-0.9-1.7-0.9c-0.7,0.1-1.3,0.3-1.9,0.6l-0.7,1.4c0.7,1.3,2.3,1.7,3.6,1
		c0.1,0,0.1-0.1,0.2-0.1C554.7,404.1,555,403.2,554.7,402.5z"/>
	<path class="st11" d="M580.1,360.6c-1.7-1.9-3.9-3.1-6.4-3.5c-2.9,0.1-5,2-7,4.1c-1.8,1.3-2.1,3.9-0.7,5.6c0.4,0.5,1,1,1.6,1.2
		c2.8,1.9,6.3,2.4,9.6,1.5c1.3-0.3,2.5-1,3.4-2C582,365.5,581.6,362.5,580.1,360.6z"/>
	<path class="st11" d="M595.5,359.6c-0.6-1-3.1-1.6-4.1-0.9c-0.7,1-0.7,2.3,0,3.3c0.8,0.9,2.1,1.2,3.2,0.7
		C595.6,362,596,360.7,595.5,359.6z"/>
	<path class="st11" d="M577.8,403.6c-0.6-1-3.1-1.6-4.1-0.9c-0.7,1-0.7,2.3,0,3.3c0.8,0.9,2.1,1.2,3.2,0.7
		C577.9,406.1,578.3,404.7,577.8,403.6z"/>
	<path class="st11" d="M617.9,340.1c-0.6-1-3.1-1.6-4.1-0.9c-0.7,1-0.7,2.3,0,3.3c0.8,0.9,2.1,1.2,3.2,0.7
		C618,342.5,618.4,341.2,617.9,340.1z"/>
	<path class="st11" d="M557.8,376.7c-0.7-0.6-1.7-0.9-2.7-0.8l0,0c-1.9,0-3.4,0.7-3.6,2.5c-0.2,1.8,0.5,3.5,1.9,4.7
		c1,1,2.4,1.3,3.7,0.9c1-0.5,1.6-1.4,1.9-2.5C559.5,379.8,559.1,377.9,557.8,376.7z"/>
	<path class="st11" d="M601.8,394.9c-0.3-1.3-1.2-2.5-2.5-3.1c-1.3-0.5-2.8-0.3-3.9,0.6c-1.1,0.9-2,2-2.5,3.3c-0.7,1.4-1.1,3-1,4.6
		c0.1,1.6,2.5,3.4,4.3,2.9l0,0c1.3,0.1,2.7-0.3,3.7-1.1C602,400.2,602.7,397.4,601.8,394.9z"/>
	<path class="st11" d="M550.9,346.6c-2.1,0.8-1.2,0.5-2.1,2.3c-1,1.8-1.1,3.9-0.2,5.7c0.9,1.5,2.3,2.5,4,3c1.9,0.7,4.2,0.9,5.9-0.3
		c1.6-1.4,2.2-3.6,1.5-5.7c-1.2-3.9-5.3-6.1-9.2-5c-0.1,0-0.2,0.1-0.2,0.1"/>
</g>
<path class="st5" d="M586,443.5c0,0,38.3,10.6,39.8,11.1c2.3,0.8,1.9,9.3-1.7,9.1c-1.7-0.1-29.4,1-32.9,0.8s-14.1-4.4-14.1-4.4
	L586,443.5z"/>
<path class="st3" d="M601.9,458.1c0.2,0,0.5-2,1.7-4.1s2.8-3.4,2.7-3.5s-2,0.9-3.3,3.2S601.7,458.2,601.9,458.1z"/>
<path class="st3" d="M597.9,456.3c0.2,0,0.6-1.8,1.6-3.8s2.2-3.4,2.1-3.5s-1.6,1.1-2.7,3.2S597.7,456.3,597.9,456.3z"/>
<path class="st3" d="M594.2,455.3c0.2,0,0-1.9,0.9-4s2.2-3.5,2.1-3.6s-1.8,1-2.7,3.4S594,455.4,594.2,455.3z"/>
<path class="st3" d="M594.8,450.4c0.3-0.9,0.5-1.9,0.4-2.9c0-1.7-0.4-3.3-1-4.9c-0.1-0.4-0.3-0.7-0.6-0.9c-0.4-0.3-0.9-0.3-1.3,0.1
	c-0.3,0.3-0.5,0.7-0.5,1.1c0,0.3-0.1,0.7,0,1c0,0.6,0.1,1.3,0.2,1.9c0.3,1,0.7,2,1.2,2.9c0.4,0.9,1,1.6,1.7,2.3
	c0.1-0.1-0.5-1-1.3-2.5c-0.4-0.9-0.8-1.9-1-2.9c-0.1-0.6-0.2-1.2-0.2-1.8c0-0.6,0-1.3,0.3-1.6c0.1-0.1,0.3-0.2,0.5,0
	c0.2,0.2,0.3,0.4,0.4,0.7c0.2,0.6,0.4,1.1,0.6,1.7c0.3,1,0.4,2,0.5,3C594.9,449.3,594.7,450.4,594.8,450.4z"/>
<path class="st3" d="M594.8,450c-0.8-0.3-1.6-0.5-2.5-0.4c-0.9,0-1.8,0.1-2.7,0.3c-0.5,0.1-1.1,0.3-1.6,0.6c-0.6,0.3-1,1-0.9,1.8
	c0.2,0.7,0.7,1.2,1.4,1.4c0.6,0.1,1.2,0.1,1.7,0c1.7-0.5,3.2-1.6,4.3-3c-0.7,0.4-1.4,0.9-2,1.4c-0.7,0.5-1.5,0.8-2.3,1
	c-0.5,0.1-1,0.1-1.4,0c-0.5-0.1-0.8-0.5-0.9-0.9c-0.1-0.4,0.2-0.9,0.6-1.1c0.4-0.2,0.9-0.4,1.4-0.5c0.8-0.2,1.7-0.4,2.6-0.5
	C593.8,450,594.8,450.1,594.8,450z"/>
<path class="st3" d="M607.8,458.5c0.2,0,0-1.6,0.8-3.5s2-2.9,1.9-3s-1.7,0.8-2.5,2.8S607.6,458.6,607.8,458.5z"/>
<path class="st3" d="M581.1,460.3c0.5,0.3,1,0.5,1.5,0.7c1.4,0.5,2.8,1,4.3,1.3c4.8,1.1,9.7,1.5,14.6,1.4c5.7-0.1,10.9-0.3,14.7-0.5
	l4.4-0.2c0.5,0,1.1,0,1.6-0.2c-0.5-0.1-1.1-0.1-1.6-0.1h-4.5l-14.7,0.3c-4.9,0.1-9.7-0.3-14.5-1.2
	C583.2,461.1,581.1,460.2,581.1,460.3z"/>
<path class="st3" d="M579.9,461.2c1-0.4,1.9-0.8,2.9-1.3c2.3-1.1,4.8-1.5,7.2-1.2c2.9,0.4,4.9,2.4,6.3,3.7c0.7,0.8,1.4,1.6,2.2,2.2
	c-0.5-0.9-1.1-1.8-1.9-2.6c-0.7-0.9-1.6-1.7-2.5-2.4c-1.2-0.9-2.6-1.4-4-1.7c-2.6-0.3-5.2,0.2-7.5,1.4
	C581.6,459.9,580.7,460.5,579.9,461.2z"/>
<g class="st12">
	<path d="M586,443.5c0,0,38.3,10.6,39.8,11.1c2.3,0.8,1.9,9.3-1.7,9.1c-1.7-0.1-29.4,1-32.9,0.8s-14.1-4.4-14.1-4.4L586,443.5z"/>
</g>
<path class="st3" d="M552,410.2l-12.5,14.5c0,0-41.5-12.6-52-12s-19,4.8-21,13.3s-2.3,20.2,9.9,28.3s72.8,12.6,72.8,12.6h24
	l39.2-51.7l-3.5-2.9L552,410.2z"/>
<path class="st8" d="M560.3,443.8c-0.3,0-0.5,0-0.8,0c-0.5,0-1.3,0-2.2-0.2c-2.8-0.3-5.5-0.9-8.1-1.7c-3.9-1.2-7.8-2.7-11.5-4.5
	c-4.2-2-8.7-4.4-13.4-6.9c-4.4-2.4-8.9-4.6-13.5-6.5c-3.8-1.6-7.7-2.7-11.7-3.5c-2.7-0.5-5.5-0.8-8.2-0.7c-1,0-1.7,0.1-2.2,0.1
	c-0.3,0-0.5,0-0.8,0c0.3-0.1,0.5-0.1,0.8-0.1c0.5,0,1.3-0.2,2.2-0.2c2.8-0.1,5.5,0.1,8.3,0.6c4.1,0.7,8,1.9,11.8,3.4
	c4.7,1.9,9.2,4.1,13.6,6.5c4.7,2.5,9.2,5,13.3,7c3.7,1.8,7.5,3.3,11.4,4.6c2.6,0.8,5.3,1.4,8,1.8c1,0.2,1.7,0.2,2.2,0.3
	C559.8,443.7,560,443.7,560.3,443.8z"/>
<path class="st3" d="M588.7,462.7c7.7-3,50.1-16.5,65.1-33.9c12.5-14.4-7.4-27.4-7.4-27.4s-13.9-0.5-18.6,0s-71.2,45.4-71.2,45.4
	s11.6,22.6,11.4,23.5L588.7,462.7z"/>
<path class="st8" d="M609.5,412.4c0,0-0.1,0.1-0.2,0.1s-0.3,0.2-0.6,0.4l-2.2,1.4l-8.1,5.1l-26.7,16.8l-14.5,9l0.1-0.3l7.6,18.3
	l2.1,5.2l0.5,1.4c0.1,0.2,0.1,0.3,0.2,0.5c-0.1-0.1-0.2-0.3-0.2-0.5l-0.6-1.4l-2.3-5.2c-1.9-4.5-4.6-10.8-7.8-18.2L557,445l0.2-0.1
	l14.5-9.1l26.8-16.6l8.1-5l2.2-1.3l0.6-0.3C609.4,412.5,609.5,412.4,609.5,412.4z"/>
<path class="st8" d="M551,432.4c-0.7-0.1-1.4-0.4-2-0.7c-1.5-0.7-3-1.6-4.3-2.6c-1.4-1-2.6-2.1-3.8-3.4c-0.5-0.5-1-1-1.3-1.7
	c0.1-0.1,2.2,2.3,5.4,4.6S551,432.3,551,432.4z"/>
<path class="st8" d="M569.1,411c0.1,0.9,0.1,1.8,0.1,2.6c0,1.6,0.1,3.9,0.3,6.4s0.6,4.7,0.8,6.3c0.2,0.9,0.3,1.7,0.4,2.6
	c-0.3-0.8-0.6-1.7-0.7-2.6c-0.5-2.1-0.8-4.2-1-6.4c-0.2-2.1-0.2-4.3-0.2-6.4C568.8,412.8,568.9,411.9,569.1,411z"/>
<path class="st8" d="M575,413.2c0,0,0.2,0,0.5,0.1c0.5,0.2,0.8,0.5,1.1,0.9c0.4,0.6,0.5,1.4,0.3,2.1c-0.3,0.9-1.2,1.5-2.2,1.5
	c-1,0.1-1.9-0.4-2.3-1.3c-0.3-0.7-0.1-1.5,0.3-2.1c0.3-0.4,0.7-0.7,1.2-0.9c0.3-0.1,0.5,0,0.5,0c-0.6,0.2-1.1,0.6-1.4,1.1
	c-0.3,0.5-0.4,1.2-0.2,1.8c0.3,0.7,1.1,1.1,1.8,1c0.8,0,1.4-0.5,1.7-1.1c0.2-0.6,0.1-1.2-0.2-1.8C576,413.9,575.5,413.5,575,413.2z"
	/>
<path class="st8" d="M558.5,411.4c0.2,0.2,0.3,0.5,0.4,0.8c0.2,0.8,0.4,1.6,0.3,2.4c0,1.2-0.3,2.4-0.8,3.4c-0.6,1.3-1.6,2.5-2.8,3.3
	c-1.2,0.8-2.7,1.3-4.1,1.3c-1.2,0.1-2.4-0.1-3.5-0.6c-0.7-0.3-1.4-0.7-2-1.2c-0.4-0.4-0.6-0.6-0.6-0.6c0.9,0.6,1.8,1.1,2.8,1.5
	c1.1,0.4,2.2,0.5,3.3,0.5c1.4-0.1,2.7-0.5,3.9-1.3c1.1-0.8,2-1.8,2.6-3.1c0.5-1,0.8-2.1,0.8-3.2
	C558.9,413.5,558.8,412.4,558.5,411.4z"/>
<path class="st8" d="M598.1,419.3c-0.5,0.1-1.1,0-1.6-0.2c-1.2-0.4-2.3-1.3-3-2.4c-0.7-1.1-1.1-2.4-1-3.7c0-0.5,0.1-1.1,0.4-1.5
	c0.1,0-0.1,0.6-0.1,1.5c0,2.5,1.5,4.7,3.7,5.7C597.5,419.1,598.1,419.2,598.1,419.3z"/>
<path class="st14" d="M642.1,390.5c0,0,6.5-9.4,7.9-10.1s13.4-3.2,14.3-2.8s14.3,4.9,12.5,6.3s-11.2-1.9-11.2-1.9l-1.4,0.5
	c0,0,8.1,2.6,9.7,3.9s0.6,3.1-0.9,2.7s-8.5-2.9-9-2.6s7.5,3.1,8.3,3.8c1.1,0.9,0.9,3-0.6,2.7c-0.9-0.2-8.4-3.4-8.4-3.4
	s5.8,3.3,6.3,4c0.8,1-0.1,2.3-1.4,1.8c-0.9-0.3-4.9-3.1-6.1-3.5c0,0-1.2,0.1-2.6,2.3s-9.8,6.9-9.8,6.9L642.1,390.5z"/>
<path class="st14" d="M645.2,391.1c0.9,0.8,2.1,1,3.2,0.5c1.1-0.5,2-1.2,3-1.8c3.1-1.5,7-0.5,10.1-2.2c0.4-0.2,0.9-0.7,0.7-1.1
	s-0.7-0.6-1.1-0.6l-11.4-1.5"/>
<path class="st15" d="M649.8,384.5c0.4-0.1,0.8-0.1,1.2,0c0.8,0.1,2,0.2,3.4,0.3l5,0.6l1.4,0.2c0.6,0,1.2,0.2,1.6,0.6
	c0.2,0.3,0.2,0.8,0,1.1c-0.2,0.3-0.4,0.5-0.7,0.6c-0.5,0.3-1,0.5-1.6,0.7c-2.2,0.6-4.3,0.5-6.1,0.8c-0.9,0.1-1.7,0.3-2.5,0.7
	c-0.7,0.4-1.4,0.8-2,1.2c-1,0.7-2.2,0.9-3.4,0.6c-0.8-0.3-1-0.8-1-0.8c0.3,0.2,0.7,0.4,1.1,0.5c1.1,0.2,2.2-0.1,3-0.8
	c0.6-0.4,1.2-0.9,2-1.3c0.8-0.4,1.7-0.7,2.6-0.8c1.9-0.3,4-0.2,6-0.8c0.5-0.1,1-0.3,1.4-0.6c0.4-0.2,0.7-0.6,0.5-0.8
	s-0.7-0.3-1.2-0.4l-1.4-0.2l-5-0.7c-1.4-0.2-2.5-0.4-3.3-0.5C650.5,384.7,650.1,384.6,649.8,384.5z"/>
<path class="st15" d="M676.8,383.9c-0.8,0.3-1.7,0.4-2.6,0.3c-1,0-1.9-0.1-2.8-0.3c-1-0.3-2.2-0.6-3.3-1l-2.5-0.8h0.2
	c-3.6,0.7-6.2,1.1-6.2,1c2-0.7,4-1.2,6.1-1.6h0.1h0.1l2.5,0.7l3.3,1c0.9,0.2,1.8,0.4,2.7,0.4C675.8,383.9,676.8,383.8,676.8,383.9z"
	/>
<path class="st3" d="M618,287.2c-2.7-3.2-5.9-6.5-6-10.6c-0.1-2.2,0.7-4.7-0.6-6.5c-1.2-1.5-3.5-1.8-4.8-3.2c-1.7-1.9-1-4.9-1.6-7.4
	c-0.8-2.7-2.9-4.9-5.6-5.8c-2.7-0.8-5.5-1.1-8.3-0.6l-2.6,57.4c1.3-1.4,4.6-2,6.3-1.3s3.4,1.8,5.3,1.9c4.2,0.4,7.2-3.9,10.8-6.1
	s8.2-2.8,10.1-6.4S620.7,290.4,618,287.2z"/>
<path class="st8" d="M610.1,305.4c0.5-0.1,1-0.3,1.4-0.6c1.2-0.8,1.6-2.3,1.2-3.6c-0.4-0.9-1.1-1.6-1.9-2c-0.5-0.3-0.9-0.7-1.3-1.1
	c-0.4-0.5-0.6-1.1-0.5-1.8c0.2-1.3,0.6-2.5,1.2-3.6c0.2-0.6,0.4-1.2,0.4-1.8c0-0.6-0.2-1.3-0.5-1.8c-0.8-1-1.7-1.9-2.8-2.6
	c-1-0.7-2-1.5-2.9-2.4c-1.4-1.6-2.4-3.6-2.8-5.7c-0.3-1.4-0.3-2.9,0-4.3c0.1-0.4,0.2-0.8,0.3-1.1c0.1-0.2,0.1-0.4,0.2-0.4
	s-0.1,0.5-0.2,1.5c-0.5,3.5,0.6,7,2.9,9.6c0.8,0.9,1.8,1.7,2.8,2.3c1.2,0.7,2.2,1.7,3,2.8c0.4,0.6,0.6,1.3,0.6,2
	c0,0.7-0.2,1.4-0.4,2c-0.5,1.1-0.9,2.2-1.2,3.4c0,0.5,0.1,1.1,0.4,1.5c0.3,0.4,0.7,0.7,1.2,1c0.4,0.3,0.9,0.6,1.2,1
	c0.4,0.4,0.6,0.8,0.8,1.3c0.3,0.8,0.2,1.7-0.1,2.5c-0.3,0.6-0.7,1.1-1.3,1.4c-0.3,0.2-0.7,0.3-1.1,0.4
	C610.4,305.4,610.3,305.4,610.1,305.4z"/>
<path class="st16" d="M589.2,318.1l-0.2-9.6c0,0,9.6-1.4,11.8-13.8c1.1-6.2,1-16.3,0.6-24.6c-0.3-7.5-8.2-15.1-15.7-14.4l-24.2,4.2
	v4l0.7,54.7c0.1,7.4,6.1,13.4,13.5,13.4l0,0c7.5,0,13.5-6.1,13.5-13.5C589.2,318.3,589.2,318.2,589.2,318.1z"/>
<path class="st3" d="M597.5,278.7c0,0.9-0.7,1.6-1.6,1.6c-0.8,0-1.6-0.6-1.6-1.4c0,0,0,0,0,0c0-0.9,0.7-1.6,1.6-1.6
	C596.8,277.1,597.5,277.8,597.5,278.7C597.5,278.6,597.5,278.6,597.5,278.7z"/>
<path class="st3" d="M599.1,275.3c-0.2,0.2-1.4-0.7-3.1-0.7s-3,0.8-3.2,0.6s0.1-0.5,0.7-0.9c0.7-0.5,1.6-0.8,2.5-0.7
	c0.9,0,1.8,0.3,2.5,0.9C599,274.8,599.2,275.2,599.1,275.3z"/>
<path class="st3" d="M581.8,278.2c0,0.9-0.7,1.6-1.6,1.6c-0.8,0.1-1.6-0.6-1.6-1.4c0,0,0,0,0,0c0-0.9,0.7-1.6,1.6-1.6
	C581,276.7,581.7,277.4,581.8,278.2C581.8,278.2,581.8,278.2,581.8,278.2z"/>
<path class="st3" d="M582.2,275.3c-0.2,0.2-1.4-0.7-3.1-0.7s-3,0.8-3.2,0.6s0.1-0.5,0.7-0.9c0.7-0.5,1.6-0.8,2.5-0.7
	c0.9,0,1.8,0.3,2.5,0.9C582.1,274.8,582.3,275.2,582.2,275.3z"/>
<path class="st3" d="M588.2,288.1c0.9-0.3,1.9-0.4,2.8-0.5c0.4,0,0.8-0.1,0.9-0.4c0-0.5,0-0.9-0.3-1.3l-1.2-3.4
	c-1.7-4.8-3-8.7-2.8-8.8s1.7,3.8,3.5,8.5l1.2,3.4c0.3,0.5,0.3,1.1,0.2,1.7c-0.1,0.3-0.4,0.5-0.7,0.6c-0.2,0.1-0.5,0.1-0.7,0.1
	C590.1,288.3,589.1,288.3,588.2,288.1z"/>
<path class="st17" d="M589,308.5c-5.9,0-11.6-1.7-16.6-4.7c0,0,4.2,8.7,16.6,7.8L589,308.5z"/>
<path class="st18" d="M587.4,292.3c-0.6-0.8-1.7-1.3-2.8-1.2c-0.8,0-1.5,0.4-2,1c-0.5,0.6-0.5,1.4-0.2,2c0.6,0.6,1.4,0.9,2.2,0.6
	c0.8-0.3,1.6-0.7,2.2-1.3c0.2-0.1,0.4-0.3,0.5-0.5C587.6,292.8,587.6,292.5,587.4,292.3"/>
<path class="st3" d="M583.1,289.2c0.3,0,0.2,1.9,1.8,3.2s3.6,1.2,3.6,1.4s-0.5,0.4-1.3,0.4c-1.1,0-2.2-0.4-3-1.1
	c-0.8-0.7-1.3-1.6-1.4-2.7C582.8,289.7,583,289.2,583.1,289.2z"/>
<path class="st3" d="M582.8,268.6c-0.2,0.5-1.9,0.2-3.9,0.4s-3.7,0.7-3.9,0.3c-0.1-0.2,0.2-0.6,0.8-1.1c1.8-1.1,4-1.3,6-0.5
	C582.5,268,582.8,268.4,582.8,268.6z"/>
<path class="st3" d="M598.5,270.3c-0.3,0.4-1.5,0-2.9-0.1s-2.6,0.2-2.9-0.2c-0.1-0.2,0.1-0.6,0.6-1c1.5-0.9,3.3-0.8,4.7,0.2
	C598.5,269.7,598.7,270.1,598.5,270.3z"/>
<path class="st8" d="M567.8,274.5c4.1-5,15.7-14,21.4-16.5c0.9-0.4,1.8-1.2,2.3-1.2c1.2,0.6,2.3,1.4,3.3,2.2c3,2.6,5.4,8.9,6.6,12.7
	c1.7-4.8,1.1-11.6-2.2-15.5s-6.9-5.9-11.9-6.2c-4.7-0.3-9.3,0.9-13.2,3.5c-1.7,1-7.9,6.2-9.6,9.1L567.8,274.5z"/>
<path class="st3" d="M589.6,250.2c0.8,0.1-4.8-4.5-8.3-5.2c-3.6-0.6-7.3,0.1-10.3,2.2c-2,1.3-3.7,3.2-5.9,4.2
	c-1.7,0.7-3.6,0.8-5.4,1.4c-4.8,1.5-8.2,5.7-8.6,10.7c-0.2,2.1,0.2,4.1,0.2,6.2c0.2,2.1-0.4,4.2-1.8,5.8c-1.2,1.3-3,1.9-4.5,2.9
	c-3.7,2.4-5.6,6.7-5,11c0.4,2.3,1.4,4.6,0.7,6.7c-0.5,1.4-1.8,2.4-2.6,3.7c-1.7,2.6-1.5,6,0.3,8.5c2.1,0.2,3.8,1.8,5.4,3.2
	s3.7,2.6,5.8,2c2.6-0.8,3.9-4.3,6.6-4.7s4.6,2.5,7.1,3.4c2.9,1.1,6.2-0.5,8-3.1s2.2-5.7,2.2-8.8c0.1-3.9-0.4-7.9-2.7-11
	c-1.6-2.2-4.2-4.1-4.3-6.9s2.4-4.8,2.8-7.4c0.4-2.3-0.9-4.5-1.8-6.6s-2.7-5.3-1.4-7.2C566.2,261.1,575.4,248.6,589.6,250.2z"/>
<path class="st3" d="M590.7,252.3c0,0,0.4,0.2,0.8,0.9c0.8,1.6,0.2,3.5-1.4,4.3c-0.2,0.1-0.4,0.2-0.7,0.2c-0.7,0.2-1.2,0-1.2,0
	s0.4-0.1,1-0.3c0.8-0.3,1.4-0.9,1.8-1.6c0.3-0.8,0.3-1.6,0.1-2.4C590.9,252.7,590.7,252.4,590.7,252.3z"/>
<path class="st3" d="M594.2,257.6c0,0.1-0.9,0-1.7-0.6s-1.1-1.4-1-1.5s0.6,0.5,1.3,1S594.3,257.5,594.2,257.6z"/>
<path class="st3" d="M586,254.4c0-0.1,0.8-0.1,1.6-0.4s1.5-0.6,1.6-0.5s-0.5,0.7-1.4,1S586,254.5,586,254.4z"/>
<path class="st3" d="M586.1,252.1c0-0.1,0.7-0.1,1.6,0s1.6,0.4,1.5,0.5s-0.8,0.1-1.6,0S586.1,252.2,586.1,252.1z"/>
<path class="st3" d="M594.5,252.9c0,0.1-0.3,0.3-0.7,0.3s-0.7-0.1-0.7-0.2s0.3-0.3,0.7-0.3S594.5,252.7,594.5,252.9z"/>
<path class="st3" d="M594.6,254.3c0,0.1-0.4,0.3-1,0.3s-1-0.1-1-0.3s0.4-0.3,1-0.3S594.6,254.1,594.6,254.3z"/>
<path class="st3" d="M572.7,262.6c0.1,0.1-1.2,1.5-2.5,3.3s-2.2,3.5-2.3,3.5C568.7,266.7,570.4,264.4,572.7,262.6z"/>
<path class="st3" d="M573.1,259c0.1,0.1-1.4,2-3,4.5s-2.6,4.7-2.7,4.6C568.6,264.7,570.5,261.5,573.1,259z"/>
<path class="st3" d="M539.6,276.7c-0.1-0.1-0.2-0.2-0.3-0.3c-0.3-0.3-0.4-0.7-0.6-1.1c-0.5-1.5-0.2-3.1,0.7-4.4c1.5-1.9,4-2.7,6.2-2
	c1.3,0.5,2.5,1.1,3.5,2c0.5,0.4,1.1,0.7,1.8,0.9c0.6,0.2,1.3,0,1.8-0.4c0.5-0.4,0.9-1,1-1.7c0.2-0.7,0.2-1.3,0.1-2
	c-0.2-1.3-0.5-2.6-0.5-3.9c-0.2-2.3,0.4-4.6,1.8-6.5c1-1.2,2.3-2.1,3.9-2.3c0.4-0.1,0.8-0.1,1.2,0c0.1,0,0.3,0.1,0.4,0.1
	c-0.5,0-1.1,0-1.6,0.1c-1.5,0.3-2.7,1.2-3.6,2.3c-1.2,1.8-1.8,4-1.6,6.2c0,1.2,0.4,2.5,0.5,3.9c0.3,1.5-0.2,3.1-1.3,4.1
	c-0.6,0.5-1.5,0.7-2.3,0.5c-0.7-0.2-1.4-0.5-2-0.9c-1-0.8-2.1-1.5-3.3-1.9c-2.1-0.7-4.4,0-5.8,1.7c-0.9,1.2-1.2,2.7-0.8,4.2
	C539,275.7,539.3,276.2,539.6,276.7z"/>
<path class="st3" d="M616,277.6c0,0-0.2,0-0.4,0c-0.4,0-0.8,0.3-1,0.6c-0.4,0.5-0.4,1.2,0,1.7c0.6,0.6,1.4,0.8,2.2,0.5
	c0.9-0.5,1.5-1.4,1.5-2.4c0-1.2-0.2-2.4-0.6-3.4c-0.4-1.2-1.1-2.3-2.2-3.1c-0.6-0.3-1.2-0.5-1.9-0.4c-0.7,0.1-1.4,0.2-2.1,0.5
	c-0.7,0.2-1.5,0.3-2.2,0.3c-0.8-0.1-1.5-0.4-2-1c-0.8-1.2-1.2-2.6-0.9-4c0.2-1.3,0.4-2.5,0.5-3.6c0-1-0.2-2.1-0.6-3
	c-0.6-1.4-1.6-2.6-2.8-3.5c-0.9-0.6-1.5-0.8-1.5-0.8s0.2,0,0.4,0.1c0.4,0.1,0.8,0.3,1.1,0.6c1.3,0.8,2.4,2,3,3.5
	c0.5,1,0.7,2.1,0.7,3.2c0,1.2-0.3,2.4-0.4,3.6c-0.2,1.3,0.1,2.6,0.8,3.6c0.4,0.5,1,0.8,1.7,0.9c0.7,0,1.4-0.1,2.1-0.3
	c0.7-0.2,1.4-0.4,2.2-0.5c0.8-0.1,1.5,0.1,2.2,0.5c1.1,0.8,2,2,2.4,3.4c0.5,1.2,0.7,2.4,0.6,3.7c-0.1,1.1-0.8,2.2-1.8,2.7
	c-0.9,0.4-1.9,0.1-2.6-0.6c-0.3-0.3-0.4-0.7-0.3-1.1c0-0.3,0.2-0.6,0.4-0.9c0.3-0.4,0.7-0.6,1.1-0.6
	C615.7,277.5,615.9,277.5,616,277.6z"/>
<path class="st3" d="M534.3,294c0,0,0.1,0.1,0.4,0.1c0.4,0,0.7-0.2,0.9-0.6c0.1-0.2,0.2-0.5,0.1-0.7c-0.1-0.3-0.3-0.5-0.5-0.7
	c-0.7-0.4-1.5-0.3-2.1,0.3c-0.7,0.7-1,1.6-1,2.6c0,0.5,0.1,1,0.4,1.5c0.3,0.5,0.8,0.8,1.3,0.9c1.2,0.3,2.4-0.1,3.2-1
	c0.8-1,1.3-2.3,1.2-3.6c0-1.4-0.2-2.7-0.4-4c-0.2-1.3-0.2-2.6,0.1-3.9c0.3-1.2,0.9-2.2,1.8-3.1c0.7-0.7,1.6-1.3,2.5-1.8
	c1.3-0.6,2.7-1.1,4.2-1.4c0.5-0.1,1.1-0.2,1.6-0.3c-0.5,0.2-1,0.3-1.5,0.5c-1.4,0.3-2.8,0.8-4.1,1.5c-0.9,0.4-1.7,1-2.3,1.7
	c-0.8,0.8-1.4,1.8-1.6,2.9c-0.2,1.2-0.3,2.5-0.1,3.7c0.2,1.4,0.4,2.7,0.4,4.1c0,1.5-0.5,2.9-1.4,4c-0.5,0.5-1.1,0.9-1.7,1.1
	c-0.7,0.2-1.3,0.2-2,0c-0.6-0.2-1.2-0.6-1.5-1.1c-0.3-0.5-0.5-1.1-0.4-1.7c0-1.1,0.4-2.1,1.2-2.9c0.7-0.7,1.7-0.8,2.5-0.3
	c0.3,0.2,0.6,0.5,0.6,0.9c0.1,0.7-0.4,1.4-1.1,1.5c-0.1,0-0.1,0-0.2,0C534.5,294.2,534.4,294.1,534.3,294z"/>
<path class="st3" d="M569,246.5c0,0-0.1-0.1-0.2-0.4c-0.2-0.4-0.5-0.6-0.8-0.8c-0.6-0.2-1.2-0.3-1.8-0.1c-0.8,0.2-1.4,0.8-1.5,1.6
	c-0.3,1.8,1.7,4,4.2,3.6c1.3-0.2,2.4-0.8,3.4-1.6c1-0.9,2-2,2.8-3.1c0.8-1.2,1.8-2.3,2.9-3.2c1-0.9,2.3-1.5,3.7-1.7
	c1.3-0.1,2.5,0.2,3.6,0.9c0.9,0.6,1.7,1.4,2.2,2.3c0.8,1.3,1.3,2.8,1.5,4.3c0.1,0.5,0.1,0.9,0.2,1.2c0,0.1,0,0.3,0,0.4
	c0,0-0.1-0.6-0.4-1.6c-0.3-1.5-0.8-2.9-1.6-4.2c-0.6-0.9-1.3-1.6-2.1-2.1c-1-0.6-2.1-0.9-3.3-0.8c-1.3,0.2-2.5,0.8-3.4,1.6
	c-1,0.9-2,2-2.8,3.1c-0.8,1.2-1.8,2.3-2.9,3.2c-1,0.9-2.3,1.5-3.7,1.7c-1.3,0.2-2.6-0.2-3.5-1.1c-0.8-0.8-1.3-1.9-1.1-3
	c0.1-0.5,0.3-0.9,0.7-1.3c0.3-0.3,0.7-0.5,1.1-0.6c0.7-0.2,1.4-0.1,2,0.2c0.4,0.2,0.7,0.5,0.8,0.9C569,246.2,569,246.4,569,246.5z"
	/>
<path class="st8" d="M584.3,250c0-0.1-0.1-0.1-0.1-0.2c-0.1-0.2-0.1-0.4-0.3-0.6c-0.5-0.6-1.1-1.1-1.9-1.4c-1.2-0.4-2.4-0.6-3.7-0.5
	c-0.8,0-1.5,0.1-2.3,0.4c-0.8,0.3-1.6,0.7-2.2,1.3c-1.6,1.3-2.9,2.8-4,4.5c-0.3,0.5-0.5,1-0.7,1.5c-0.2,0.6-0.5,1.1-0.9,1.5
	c-0.9,0.9-2,1.5-3.2,1.9c-0.6,0.2-1.2,0.3-1.8,0.4c-0.6,0.1-1.2,0.3-1.8,0.6c-1.2,0.5-2.1,1.4-2.9,2.4c-0.7,1.1-1.1,2.4-1,3.7
	c0.1,1.4,0.2,2.8,0.5,4.1c0.3,1.4,0.4,2.8,0.2,4.3c-0.2,1.4-0.9,2.7-2,3.6c-2.1,1.9-4.6,2.6-6.5,4.2c-0.9,0.7-1.6,1.7-2,2.8
	c-0.3,1-0.2,2.2,0.3,3.1c0.4,1,1.1,1.8,1.5,2.8c0.5,0.9,0.6,2,0.4,3c-0.3,0.9-0.9,1.7-1.7,2.1c-0.6,0.4-1.3,0.9-1.9,1.4
	c-0.9,0.9-1.3,2.1-1.1,3.4c0.1,0.8,0.2,1.6,0.5,2.3c0.1,0.3,0.2,0.5,0.2,0.8c0,0,0-0.1-0.1-0.2s-0.1-0.3-0.2-0.6
	c-0.3-0.8-0.5-1.5-0.5-2.3c-0.1-0.6,0-1.2,0.1-1.8c0.2-0.7,0.5-1.3,1-1.8c0.6-0.5,1.2-1,1.9-1.5c0.7-0.5,1.2-1.2,1.5-2
	c0.1-0.9,0-1.9-0.5-2.7c-0.4-0.9-1-1.8-1.5-2.8c-0.5-1.1-0.7-2.3-0.3-3.5c0.4-1.2,1.2-2.2,2.1-3c1.9-1.7,4.5-2.5,6.4-4.2
	c1-0.9,1.6-2.1,1.8-3.4c0.2-1.4,0.1-2.7-0.2-4.1c-0.3-1.4-0.4-2.8-0.5-4.2c0-1.4,0.4-2.8,1.2-4c0.8-1.1,1.9-2,3.1-2.6
	c0.6-0.3,1.2-0.5,1.9-0.6c0.6-0.1,1.2-0.2,1.8-0.4c1.1-0.3,2.2-0.9,3-1.7c0.4-0.4,0.7-0.9,0.8-1.4c0.2-0.5,0.5-1,0.8-1.5
	c1.1-1.7,2.5-3.3,4.1-4.6c0.7-0.6,1.5-1,2.4-1.3c0.8-0.2,1.6-0.3,2.4-0.3c1.3,0,2.6,0.2,3.8,0.6c0.8,0.3,1.4,0.8,1.9,1.5
	c0.1,0.2,0.2,0.4,0.2,0.6C584.3,249.8,584.3,249.9,584.3,250z"/>
<g class="st12">
	<path d="M543.8,398.3c-5.5-14.6-5.7-31.2-2.3-46.4c-0.8,8.1,0.4,16.2,2.1,24.1c1.6,7.5,3.5,7.6,2.1,15.9c-0.2,1.1-0.5,2.2-0.9,3.3
		L543.8,398.3z"/>
</g>
<path class="st5" d="M559,449.9c0,0-38.3,10.6-39.8,11.1c-2.3,0.8-1.9,9.3,1.7,9.1c1.7-0.1,29.4,1,32.9,0.8s12.9-3.9,12.9-3.9
	L559,449.9z"/>
<path class="st3" d="M543,464.5c-0.2,0-0.5-2-1.7-4.1s-2.8-3.4-2.7-3.5s2,0.9,3.3,3.2S543.2,464.5,543,464.5z"/>
<path class="st3" d="M547,462.7c-0.2,0-0.6-1.8-1.6-3.8s-2.2-3.4-2.1-3.5s1.6,1.1,2.7,3.2S547.2,462.7,547,462.7z"/>
<path class="st3" d="M550.7,461.7c-0.2,0,0-1.9-0.9-4s-2.2-3.4-2.1-3.6s1.8,1,2.7,3.3S550.9,461.8,550.7,461.7z"/>
<path class="st3" d="M550.1,456.8c-0.3-0.9-0.5-1.9-0.4-2.9c0-1.1,0.1-2.1,0.4-3.1c0.1-0.6,0.3-1.2,0.6-1.8c0.1-0.4,0.3-0.7,0.6-0.9
	c0.4-0.3,1-0.3,1.3,0.1c0.3,0.3,0.5,0.7,0.5,1.1c0,0.3,0.1,0.7,0,1c0,0.6-0.1,1.3-0.2,1.9c-0.3,1-0.7,2-1.2,2.9
	c-0.4,0.9-1,1.7-1.7,2.3c-0.1-0.1,0.6-1,1.3-2.5c0.4-0.9,0.8-1.9,1-2.9c0.1-0.6,0.2-1.2,0.2-1.7c0-0.6,0-1.3-0.3-1.6
	c-0.1-0.1-0.4-0.1-0.5,0c-0.2,0.2-0.3,0.4-0.4,0.7c-0.2,0.5-0.4,1.1-0.6,1.7c-0.3,1-0.4,2-0.5,3C550,455.7,550.2,456.8,550.1,456.8z
	"/>
<path class="st3" d="M550.1,456.4c0.8-0.3,1.6-0.5,2.5-0.4c0.9,0,1.8,0.1,2.7,0.3c0.5,0.1,1.1,0.3,1.6,0.6c0.7,0.3,1,1,0.9,1.8
	c-0.2,0.7-0.7,1.2-1.4,1.4c-0.6,0.1-1.2,0.1-1.7,0c-0.9-0.2-1.8-0.6-2.5-1.2c-0.7-0.5-1.3-1.1-1.8-1.8c0.7,0.4,1.4,0.9,2,1.4
	c0.7,0.5,1.5,0.8,2.3,1c0.5,0.1,1,0.1,1.4,0c0.5-0.1,0.8-0.5,0.9-0.9c0.1-0.4-0.2-0.9-0.6-1.1c-0.4-0.2-0.9-0.4-1.4-0.5
	c-0.8-0.2-1.7-0.4-2.6-0.5C551.1,456.3,550.1,456.5,550.1,456.4z"/>
<path class="st3" d="M537.1,464.9c-0.2,0,0-1.7-0.8-3.5s-2-2.9-1.9-3s1.7,0.8,2.5,2.8S537.3,465,537.1,464.9z"/>
<path class="st3" d="M563.8,466.7c-0.5,0.3-1,0.5-1.5,0.7c-1.4,0.5-2.8,1-4.3,1.3c-4.8,1.1-9.7,1.5-14.6,1.4
	c-5.7-0.1-10.9-0.3-14.7-0.5l-4.4-0.2c-0.5,0-1.1-0.1-1.6-0.2c0.5-0.1,1.1-0.1,1.6-0.1h4.4l14.7,0.3c4.9,0.1,9.7-0.3,14.5-1.2
	C561.7,467.5,563.8,466.6,563.8,466.7z"/>
<path class="st3" d="M565,467.6c0,0.1-1.1-0.5-2.9-1.3c-2.3-1.1-4.8-1.5-7.2-1.2c-2.9,0.4-4.9,2.4-6.3,3.7c-0.7,0.8-1.4,1.6-2.2,2.2
	c0.5-0.9,1.1-1.8,1.9-2.6c0.8-0.9,1.6-1.7,2.5-2.4c1.2-0.9,2.6-1.5,4-1.7c2.6-0.3,5.2,0.2,7.5,1.4
	C563.3,466.3,564.2,466.9,565,467.6z"/>
<path class="st3" d="M526.6,469.2c-0.1,0,0.3-0.5,0.6-1.4c0.8-2.3,0.3-5-1.3-6.9c-0.6-0.7-1.1-1.1-1-1.2s0.6,0.2,1.3,0.9
	c1.9,1.9,2.4,4.8,1.3,7.2C527,468.8,526.6,469.3,526.6,469.2z"/>
<path class="st8" d="M566.5,410.4L566.5,410.4c0-0.7,0.5-1.2,1.2-1.2l35.6-0.5l14-43.5c0.5-1.5,1.9-2.4,3.4-2.4l54,1.5
	c1.9,0.1,3.4,1.7,3.4,3.6c0,0.4-0.1,0.8-0.2,1.1l-17,45l-93.2-2.3C567,411.6,566.5,411,566.5,410.4z"/>
<path class="st11" d="M646.3,387.1c-0.6-1.2-3.3-1.6-4.6-0.6c-0.8,0.5-1.4,1.2-1.7,2.2c-0.4,1.5,0.4,3,1.9,3.6
	c1.4,0.3,2.9-0.2,3.8-1.4C646.6,389.8,646.8,388.4,646.3,387.1z"/>
<g id="freepik--Plant--inject-14">
	<path class="st3" d="M58.2,180.4c0,0,0-0.2,0.1-0.5l0.3-1.4c0.3-1.2,0.7-3,1.2-5.2c1-4.5,2.5-11,4.3-19.1l14.5-63.1l0.3-1.1
		l0.2,1.1l0.3,1.4c5.6,25,10.7,47.6,14.4,64.1c1.8,8.2,3.3,14.8,4.3,19.4c0.5,2.3,0.9,4.1,1.2,5.3l0.3,1.4c0.1,0.3,0.1,0.5,0.1,0.5
		s0-0.1-0.1-0.5l-0.3-1.4c-0.3-1.2-0.7-3-1.2-5.3c-1.1-4.6-2.6-11.2-4.5-19.4c-3.7-16.4-8.9-39-14.6-64l-0.3-1.4H79l-14.6,63
		c-1.9,8-3.4,14.5-4.5,19c-0.5,2.2-1,4-1.2,5.2c-0.2,0.6-0.3,1-0.3,1.3S58.2,180.4,58.2,180.4z"/>
	<path class="st8" d="M58.2,199.2v-15.8h42.2v15.8c0,10.2-8.2,18.4-18.4,18.4h-5.4C66.4,217.6,58.2,209.3,58.2,199.2
		C58.2,199.2,58.2,199.2,58.2,199.2z"/>
	<path class="st3" d="M58.2,183.3c0.2,0.2,0.3,0.4,0.5,0.7c0.3,0.5,0.8,1.1,1.3,2l4.7,7.3l15.2,24l0.1,0.2h-0.4l14.7-24.2
		c1.9-3.1,3.4-5.5,4.5-7.3c0.5-0.8,0.9-1.5,1.2-2c0.1-0.2,0.3-0.5,0.5-0.7c-0.1,0.3-0.2,0.5-0.4,0.7c-0.3,0.5-0.7,1.2-1.2,2
		c-1.1,1.8-2.5,4.3-4.4,7.4l-14.6,24.3l-0.2,0.4l-0.2-0.4l-0.1-0.2l-15.1-24.1l-4.5-7.4l-1.2-2C58.4,183.8,58.3,183.6,58.2,183.3z"
		/>
	<circle class="st3" cx="78.9" cy="91.2" r="4.6"/>
	<path class="st3" d="M78.9,12.7c0.1,0,0.3,17.8,0.3,39.7S79,92,78.9,92s-0.3-17.8-0.3-39.7S78.7,12.7,78.9,12.7z"/>
	<path class="st3" d="M81.3,219.3c0,1.1-0.9,2-2,2s-2-0.9-2-2s0.9-2,2-2S81.3,218.2,81.3,219.3z"/>
	<path class="st3" d="M78.4,220.1l0.3-0.1c-1.1,0.7-1.9,1.9-2,3.3c-0.1,1.3,0,2.6,0.3,3.9c0.1,0.4,0.3,0.9,0.7,0.9s0.6-0.5,0.6-0.8
		c0.1-0.8,0.1-1.6,0.1-2.4c0,1,0.3,2,0.9,2.8c0.1,0.1,0.3,0.3,0.5,0.3s0.3-0.2,0.3-0.4c0.2-0.7,0.3-1.3,0.3-2c0,0.6,0.3,1.2,0.6,1.6
		c0.4,0.5,1.1,0.5,1.6,0.1c0,0,0,0,0,0c0.2-0.3,0.3-0.8,0.2-1.1c-0.3-2.4-1.3-4.6-2.8-6.5"/>
	<path class="st5" d="M60.8,183.3c0,0-19-21.9-16.9-22.7S63,172,63,172s-14.5-32.4-11.6-34.8S69.5,166,69.5,166s-2.4-45.3,0-45.8
		s11.1,45.3,11.1,45.3s12.9-41.9,16.6-41.9s-3.9,40.3-3.9,40.3s15.3-25.8,17.7-22.4s-10.8,31.4-10.8,31.4s19.2-16.1,20-14
		s-20.8,24.5-20.8,24.5L60.8,183.3z"/>
	<path class="st3" d="M58.2,150.4c0.1-0.1,3.5,7.2,7.5,16.1s7.2,16.3,7,16.3s-3.5-7.1-7.5-16.1S58.1,150.5,58.2,150.4z"/>
	<path class="st3" d="M73.5,154.4c0.1,0,0.7,6.4,1.2,14.2s0.9,14.2,0.7,14.2s-0.7-6.4-1.2-14.2S73.4,154.4,73.5,154.4z"/>
	<path class="st3" d="M94.7,134.1c0,0.2,0,0.4-0.1,0.5l-0.4,1.4c-0.4,1.3-0.9,3.1-1.6,5.3c-1.3,4.5-3.1,10.6-5,17.5
		s-3.3,13.1-4.4,17.6c-0.5,2.2-0.9,4-1.3,5.4l-0.3,1.5c0,0.2-0.1,0.3-0.2,0.5c0-0.2,0-0.3,0-0.5l0.3-1.5c0.2-1.3,0.6-3.1,1.1-5.4
		c1-4.6,2.4-10.8,4.3-17.7s3.7-13,5.1-17.5c0.7-2.2,1.3-4,1.8-5.2l0.5-1.4C94.5,134.4,94.6,134.3,94.7,134.1z"/>
	<path class="st3" d="M103.8,157.5c0.1,0.1-3.6,5.6-8.3,12.3s-8.6,12.1-8.7,12s3.6-5.6,8.3-12.3S103.7,157.4,103.8,157.5z"/>
	<path class="st3" d="M67.2,182.9c-0.6-0.3-1.2-0.7-1.7-1.2c-1.3-1-2.5-2.2-3.6-3.3c-1.1-1.2-2.2-2.4-3.2-3.7
		c-0.5-0.5-0.9-1.1-1.2-1.7c0.1-0.1,2.1,2.3,4.8,5C65,180.7,67.3,182.8,67.2,182.9z"/>
	<path class="st3" d="M78.8,174.2c0.4,1.5,0.6,3,0.7,4.5c0.2,1.5,0.3,3,0.2,4.6c-0.4-1.5-0.6-3-0.7-4.5
		C78.7,177.2,78.7,175.7,78.8,174.2z"/>
	<path class="st11" d="M100.4,193.2c-0.5,0.2-1.1,0.3-1.6,0.3c-1.1,0.2-2.6,0.4-4.5,0.7c-3.8,0.5-9.1,1.1-14.9,1.3
		c-5,0.2-10,0-15-0.6c-1.9-0.2-3.4-0.5-4.5-0.7c-0.6-0.1-1.1-0.2-1.6-0.4c0.6,0,1.2,0.1,1.7,0.2c1.1,0.2,2.6,0.4,4.5,0.6
		c5,0.5,9.9,0.6,14.9,0.5c5.8-0.2,11.1-0.8,14.9-1.2l4.5-0.5C99.3,193.2,99.9,193.2,100.4,193.2z"/>
	<path class="st11" d="M100.4,197.9c-0.5,0.2-1.1,0.3-1.6,0.3c-1.1,0.2-2.6,0.4-4.5,0.7c-4.9,0.7-9.9,1.1-14.9,1.3
		c-5,0.2-10,0-15-0.6c-1.9-0.2-3.4-0.5-4.5-0.7c-0.6-0.1-1.1-0.2-1.6-0.4c0.6,0,1.1,0.1,1.7,0.2c1.1,0.2,2.6,0.4,4.5,0.6
		c5,0.5,9.9,0.6,14.9,0.5c5.8-0.2,11.1-0.7,14.9-1.2l4.5-0.5C99.3,198,99.9,197.9,100.4,197.9z"/>
</g>
</svg>
