<svg id="Layer_1" data-name="Layer 1" xmlns="http://www.w3.org/2000/svg" viewBox="0 0 583.33 716.67"><defs><style>.cls-1,.cls-2{fill:none;stroke:#5864ff;stroke-miterlimit:133.33;stroke-width:50px;}.cls-1{stroke-linecap:round;}</style></defs><path class="cls-1" d="M133.33,600V200" transform="translate(-108.33 -41.67)"/><path class="cls-1" d="M666.67,200V600" transform="translate(-108.33 -41.67)"/><path class="cls-2" d="M400,333.33c147.28,0,266.67-59.69,266.67-133.33S547.28,66.67,400,66.67,133.33,126.36,133.33,200,252.72,333.33,400,333.33Z" transform="translate(-108.33 -41.67)"/><path class="cls-2" d="M666.67,400c0,73.64-119.39,133.33-266.67,133.33S133.33,473.64,133.33,400" transform="translate(-108.33 -41.67)"/><path class="cls-2" d="M666.67,600c0,73.64-119.39,133.33-266.67,133.33S133.33,673.64,133.33,600" transform="translate(-108.33 -41.67)"/></svg>