<svg id="Layer_1" data-name="Layer 1" xmlns="http://www.w3.org/2000/svg" viewBox="0 0 59.56 49.55"><defs><style>.cls-1{fill:none;}.cls-2{fill:#5864ff;}.cls-3{fill:#fff;}.cls-4{fill:#d6eeff;}.cls-5{fill:#288ed9;}</style></defs><g id="Group_7080" data-name="Group 7080"><g id="firewall"><g id="Rectangle_3015" data-name="Rectangle 3015"><rect class="cls-1" x="0.9" y="17.55" width="16.7" height="10.4"/><path class="cls-2" d="M18.72,34.07H.22V21.87h18.5Zm-16.6-1.8h14.8v-8.5H2.12Z" transform="translate(-0.22 -5.23)"/></g><g id="Rectangle_3016" data-name="Rectangle 3016"><rect class="cls-3" x="17.6" y="17.55" width="16.7" height="10.4"/><path class="cls-2" d="M35.42,34.07H16.92V21.87h18.5Zm-16.7-1.8h14.8v-8.5H18.72Z" transform="translate(-0.22 -5.23)"/></g><g id="Rectangle_3017" data-name="Rectangle 3017"><rect class="cls-4" x="34.3" y="17.55" width="17.6" height="10.4"/><path class="cls-5" d="M53,34.07H33.62V21.87H53Zm-17.6-1.8h15.8v-8.5H35.42Z" transform="translate(-0.22 -5.23)"/></g><g id="Rectangle_3018" data-name="Rectangle 3018"><rect class="cls-1" x="8.84" y="27.95" width="16.7" height="10.4"/><path class="cls-2" d="M26.62,44.47H8.12V32.27h18.5Zm-16.7-1.9h14.8v-8.5H9.92Z" transform="translate(-0.22 -5.23)"/></g><g id="Rectangle_3019" data-name="Rectangle 3019"><rect class="cls-3" x="0.9" y="27.95" width="8.8" height="10.4"/><path class="cls-2" d="M10.92,44.47H.32V32.27h10.6Zm-8.8-1.9h7v-8.5h-7Z" transform="translate(-0.22 -5.23)"/></g><g id="Rectangle_3020" data-name="Rectangle 3020"><rect class="cls-1" x="42.3" y="27.95" width="9.7" height="10.4"/><path class="cls-2" d="M52.82,44.42H41.32V32.22h11.5Zm-9.6-1.9h7.9V34h-7.9Z" transform="translate(-0.22 -5.23)"/></g><g id="Rectangle_3021" data-name="Rectangle 3021"><rect class="cls-3" x="25.5" y="27.95" width="16.7" height="10.4"/><path class="cls-2" d="M43.42,44.47H24.92V32.27h18.5Zm-16.8-1.9h14.8v-8.5H26.62Z" transform="translate(-0.22 -5.23)"/></g><g id="Rectangle_3022" data-name="Rectangle 3022"><rect class="cls-1" x="9.7" y="7.25" width="16.7" height="10.4"/><path class="cls-2" d="M27.52,23.77H9V11.57h18.5Zm-16.6-1.9h14.8v-8.5H10.92Z" transform="translate(-0.22 -5.23)"/></g><g id="Path_5970" data-name="Path 5970"><path class="cls-3" d="M9.92,22.77H1.12V14a1.67,1.67,0,0,1,1.7-1.6h7.1v10.4Z" transform="translate(-0.22 -5.23)"/><path class="cls-2" d="M10.92,23.77H.32v-9.7A2.59,2.59,0,0,1,3,11.57h8l-.1,12.2Zm-8.8-1.9h7v-8.5H3c-.5,0-.8.3-.8.6Z" transform="translate(-0.22 -5.23)"/></g><g id="Path_5971" data-name="Path 5971"><path class="cls-4" d="M52.12,22.77h-8.8V12.37h7.1a1.66,1.66,0,0,1,1.7,1.6v8.8Z" transform="translate(-0.22 -5.23)"/><path class="cls-5" d="M53,23.77H42.42V11.57h8a2.59,2.59,0,0,1,2.7,2.5Zm-8.8-1.9h7V14a.66.66,0,0,0-.7-.6h-6.2v8.5Z" transform="translate(-0.22 -5.23)"/></g><g id="Rectangle_3023" data-name="Rectangle 3023"><rect class="cls-3" x="26.4" y="7.25" width="16.7" height="10.4"/><path class="cls-2" d="M44.22,23.77H25.72V11.57h18.5Zm-16.7-1.9h14.8v-8.5H27.52Z" transform="translate(-0.22 -5.23)"/></g><g id="Path_5972" data-name="Path 5972"><path class="cls-1" d="M17,53.87H2.76a1.52,1.52,0,0,1-1.6-1.6v-8.8H17Z" transform="translate(-0.22 -5.23)"/><path class="cls-2" d="M2.72,54.77a2.48,2.48,0,0,1-2.5-2.5v-9.7h17.7v12.2Zm-.6-10.3v7.9a.66.66,0,0,0,.7.6h13.3v-8.5Z" transform="translate(-0.22 -5.23)"/></g><g id="Rectangle_3024" data-name="Rectangle 3024"><rect class="cls-3" x="16.7" y="38.25" width="16.7" height="10.4"/><path class="cls-2" d="M34.62,54.77H16.12V42.57h18.5ZM17.82,53h14.8v-8.5H17.82Z" transform="translate(-0.22 -5.23)"/></g><g id="Path_5973" data-name="Path 5973"><path class="cls-1" d="M50.32,53.87H33.62V43.47H52v8.8A1.55,1.55,0,0,1,50.32,53.87Z" transform="translate(-0.22 -5.23)"/><path class="cls-2" d="M50.42,54.77H32.62V42.57h20.2v9.7A2.34,2.34,0,0,1,50.42,54.77ZM34.62,53h15.8a.71.71,0,0,0,.8-.7v-7.8H34.62V53Z" transform="translate(-0.22 -5.23)"/></g></g><g id="Group_7057" data-name="Group 7057"><g id="fire"><g id="Group_7055" data-name="Group 7055"><g id="Path_5974" data-name="Path 5974"><path class="cls-3" d="M59,25.24c-.4-4.9-2.7-8-4.9-10.6-1.9-2.5-3.7-4.7-3.7-7.9a.68.68,0,0,0-.4-.6.59.59,0,0,0-.7.1,17.77,17.77,0,0,0-6.8,9.3,32.32,32.32,0,0,0-.7,6.9c-2.9-.6-3.6-4.8-3.6-4.8a.66.66,0,0,0-.4-.5.63.63,0,0,0-.6,0c-.2.1-3.8,1.8-4,8.8v.7c0,6.8,5.8,12.3,12.9,12.3h0c7.1,0,12.9-5.5,12.9-12.3Z" transform="translate(-0.22 -5.23)"/><path class="cls-2" d="M46.08,39.74h0c-7.7,0-13.9-6-13.9-13.2v-.7c.2-7.3,4.1-9.3,4.5-9.5a2,2,0,0,1,1.5,0,1.21,1.21,0,0,1,.8,1.2,6.47,6.47,0,0,0,1.8,3.5,37,37,0,0,1,.7-5.7,19,19,0,0,1,7.1-9.8,1.36,1.36,0,0,1,1.6-.1,1.69,1.69,0,0,1,.9,1.4c0,2.8,1.6,4.9,3.5,7.2,2.2,2.8,4.7,6,5.1,11.1h0s.1,1,.1,1.4c.2,7.2-6,13.1-13.7,13.2ZM37.28,18c-.7.5-3.1,2.4-3.2,7.9v.6c0,6.2,5.4,11.4,12,11.4h0c6.6,0,12-5.1,12-11.4,0-.3-.1-1.2-.1-1.2h0c-.4-4.6-2.7-7.5-4.7-10.2-1.9-2.4-3.7-4.8-3.8-8a16.85,16.85,0,0,0-6.1,8.5,29,29,0,0,0-.7,6.6v1.1l-1.1-.2C38.58,22.64,37.58,19,37.28,18Z" transform="translate(-0.22 -5.23)"/></g></g></g><g id="fire-2"><g id="Group_7056" data-name="Group 7056"><g id="Path_5975" data-name="Path 5975"><path class="cls-2" d="M45.74,34.47a6.32,6.32,0,0,1-6.4-6.4v-.4a8.66,8.66,0,0,1,.6-3.2,3.58,3.58,0,0,0,3.5,2.4,1.27,1.27,0,0,0,1.1-1h0a17.91,17.91,0,0,1,.4-4.6,8.88,8.88,0,0,1,2.1-3.8,13,13,0,0,0,2.2,3.8,10.29,10.29,0,0,1,2.7,6.2V28A6.18,6.18,0,0,1,45.74,34.47Z" transform="translate(-0.22 -5.23)"/></g></g></g></g></g></svg>