<svg id="Layer_1" data-name="Layer 1" xmlns="http://www.w3.org/2000/svg" viewBox="0 0 716.67 716.67"><defs><style>.cls-1{fill:none;stroke:#5864ff;stroke-linecap:round;stroke-miterlimit:133.33;stroke-width:50px;}</style></defs><path class="cls-1" d="M105.72,694.28c39.05,39.05,101.91,39.05,227.61,39.05H466.67c125.7,0,188.56,0,227.61-39.05s39.05-101.91,39.05-227.61c0-39,0-71.94-1.16-100M694.28,239.05C655.23,200,592.37,200,466.67,200H333.33c-125.7,0-188.56,0-227.61,39.05s-39,101.91-39,227.62c0,39,0,71.93,1.16,100" transform="translate(-41.67 -41.67)"/><path class="cls-1" d="M400,66.67c62.85,0,94.28,0,113.81,19.52s19.52,51,19.52,113.81M286.19,86.19c-19.52,19.53-19.52,51-19.52,113.81" transform="translate(-41.67 -41.67)"/><path class="cls-1" d="M400,577.78c36.82,0,66.67-24.88,66.67-55.56S436.82,466.67,400,466.67s-66.67-24.88-66.67-55.56,29.85-55.55,66.67-55.55m0,222.22c-36.82,0-66.67-24.88-66.67-55.56M400,577.78V600m0-266.67v22.23m0,0c36.82,0,66.67,24.87,66.67,55.55" transform="translate(-41.67 -41.67)"/></svg>