<svg id="Layer_1" data-name="Layer 1" xmlns="http://www.w3.org/2000/svg" viewBox="0 0 423.39 426.14"><defs><style>.cls-1{fill:none;}.cls-2{fill:#5864ff;}</style></defs><path class="cls-1" d="M434.66,210.4S529.75,351,591.16,355c0,0,17.82-101,2-146.58C593.13,208.42,517.86,186.63,434.66,210.4ZM200.92,361l65.37,17.83,39.61-69.33S202.9,345.1,200.92,361ZM426.74,527.34l11.88,65.37,17.83-15.85,29.71-53.49,2-35.65Zm-118.86-107-65.36,25.75,9.9,17.83L222.7,543.2l4,13.87,15.84-5.94L290.05,563s43.58,11.89,63.38-7.93l25.75-31.69,4-21.79-75.26-81.22Z" transform="translate(-188.43 -186.93)"/><path class="cls-1" d="M361.37,369.87a62.4,62.4,0,0,0,124.79,0h0a62.4,62.4,0,1,0-124.79,0Z" transform="translate(-188.43 -186.93)"/><path class="cls-2" d="M419.7,541.77a11.88,11.88,0,0,1-8.4-3.48L260.17,387.15a11.88,11.88,0,0,1-2.52-13.09c24.6-57.4,106.46-137.81,160.47-168.67,16.21-9.26,38.88-15.17,67.36-17.57a11.9,11.9,0,0,1,2,23.7c-25,2.1-44.39,7-57.57,14.51-47.18,27-121.37,99.36-147.06,150.21L422.21,515.6c50.84-25.69,123.25-99.88,150.2-147.07,23.3-40.77,14.69-126.61,11.23-153.75q-24.21-3.1-48.62-4.08a11.9,11.9,0,0,1-11.41-12.34,11.65,11.65,0,0,1,11.89-11.42H536a569.18,569.18,0,0,1,57.68,5.21,10.84,10.84,0,0,1,3.92.52,12.49,12.49,0,0,1,6,4,11.59,11.59,0,0,1,2.24,4,12.48,12.48,0,0,1,.57,4.35C609.22,225,622.52,328.72,593,380.31c-30.86,54-111.27,135.89-168.67,160.49a11.69,11.69,0,0,1-4.66,1Z" transform="translate(-188.43 -186.93)"/><path class="cls-2" d="M268.58,390.63a11.89,11.89,0,0,1-2.79-.33l-68.25-16.43a11.89,11.89,0,0,1-6-19.53c51-56.42,116.29-55.64,119-55.73a11.89,11.89,0,0,1,11.64,12.13h0a12,12,0,0,1-12.09,11.63c-.6,0-45.27-.25-85.87,33.46l47.15,11.35a11.88,11.88,0,0,1-2.77,23.44Zm170.6,222.44a11.86,11.86,0,0,1-11.55-9.1L411.2,535.72a11.89,11.89,0,0,1,23-6.06l.12.5,11.35,47.15c33.66-40.54,33.47-85.37,33.45-85.87a11.89,11.89,0,0,1,11.69-12.06H491A11.89,11.89,0,0,1,502.9,491c0,2.74.72,67.93-55.73,119a12,12,0,0,1-8,3.05ZM584.51,376.72a11.88,11.88,0,0,1-6.44-1.9C477,309.57,427.19,225.23,425.11,221.67a11.9,11.9,0,0,1,20.54-12c.48.82,49.25,83.13,145.32,145.14a11.9,11.9,0,0,1-6.46,21.88ZM424,447.36a76.2,76.2,0,0,1-53.89-130.1,11.88,11.88,0,0,1,16.8,16.81,52.44,52.44,0,1,0,41.71-15.17,11.88,11.88,0,0,1,2.06-23.67A76.21,76.21,0,0,1,424,447.36Z" transform="translate(-188.43 -186.93)"/><path class="cls-2" d="M348.52,571.92a11.88,11.88,0,0,1-5.6-22.36c15.23-8.13,25.73-25,31.22-50a11.89,11.89,0,0,1,23.23,5.09c-7.06,32.18-21.61,54.36-43.26,65.91a11.72,11.72,0,0,1-5.59,1.39ZM291.57,576a12.15,12.15,0,0,1-2.94-.37A127.11,127.11,0,0,1,264.72,567a13.55,13.55,0,0,1-1.67-1c-6.87-5-24.38,1.48-34.05,7.47a11.88,11.88,0,1,1-18.16-10.3c.95-52.25,17.39-83.73,29.49-99.93a54,54,0,0,1-8.44-7.69,11.89,11.89,0,0,1,.35-16c33.46-35,77.51-26.11,79.36-25.72a11.9,11.9,0,0,1-4.9,23.28c-1.16-.24-24.75-4.76-46.65,9.9h.29a11.88,11.88,0,0,1,7.25,21.31c-1.09.88-25.93,21.42-31.79,75.93,12.23-4.16,27.93-6.46,40.34,1.93a109.47,109.47,0,0,0,18.36,6.43A11.89,11.89,0,0,1,303.1,567h0A12,12,0,0,1,291.57,576Z" transform="translate(-188.43 -186.93)"/><path class="cls-2" d="M273.22,530.3a11.89,11.89,0,0,1-9.88-18.48,64.38,64.38,0,0,1,10.49-11.68,11.88,11.88,0,1,1,15.88,17.68,39.72,39.72,0,0,0-6.59,7.19A11.88,11.88,0,0,1,273.22,530.3Zm37.39-26.56a11.89,11.89,0,0,1-3.43-23.27c7.59-2.28,14.44-2.63,20.36-1,1.8-1.21,6.9-11,9.07-19.4a11.89,11.89,0,0,1,23,6c-1.12,4.28-7.39,26.06-21.13,34a22.17,22.17,0,0,1-17.19,2.33c-.53-.16-2.68-.54-7.26.84A12,12,0,0,1,310.61,503.74Z" transform="translate(-188.43 -186.93)"/></svg>