<svg id="Layer_1" data-name="Layer 1" xmlns="http://www.w3.org/2000/svg" viewBox="0 0 644.33 716.33"><defs><style>.cls-1{fill:none;stroke:#5864ff;stroke-linecap:round;stroke-linejoin:round;stroke-width:50px;}</style></defs><path class="cls-1" d="M697,370.67c0,163-118.33,315.66-280,360.33a65.35,65.35,0,0,1-34,0C221.33,686.33,103,533.67,103,370.67V224.33c0-27.33,20.67-58.33,46.33-68.66L335,79.67a172.9,172.9,0,0,1,130.33,0l185.67,76C676.33,166,697.33,197,697.33,224.33Z" transform="translate(-78 -41.92)"/><path class="cls-1" d="M400,416.67A66.67,66.67,0,1,0,333.33,350,66.67,66.67,0,0,0,400,416.67Z" transform="translate(-78 -41.92)"/><path class="cls-1" d="M400,416.67v100" transform="translate(-78 -41.92)"/></svg>