<svg id="Layer_1" data-name="Layer 1" xmlns="http://www.w3.org/2000/svg" viewBox="0 0 525 450"><defs><style>.cls-1,.cls-2,.cls-3{fill:none;stroke-linejoin:round;stroke-width:25px;}.cls-1,.cls-2{stroke:#7384f9;}.cls-2,.cls-3{stroke-linecap:round;}.cls-3{stroke:#5864ff;}</style></defs><path class="cls-1" d="M458.75,475H342.5q-3.75,0-3.75-3.75V380q0-3.75,3.75-3.75H458.75q3.75,0,3.75,3.75v91.25Q462.5,475,458.75,475Z" transform="translate(-137.5 -175)"/><path class="cls-1" d="M437.5,375h-75q-3.75,0-3.75-3.75v-17.5A41.62,41.62,0,0,1,400,312.5h0a41.62,41.62,0,0,1,41.25,41.25v17.5Q441.25,375,437.5,375Z" transform="translate(-137.5 -175)"/><line class="cls-2" x1="262.5" y1="250" x2="262.5" y2="250"/><polyline class="cls-3" points="325 12.5 137.5 12.5 12.5 225 137.5 437.5 387.5 437.5 512.5 225 387.5 12.5"/></svg>