<?xml version="1.0" encoding="utf-8"?>
<!-- Generator: Adobe Illustrator 25.4.1, SVG Export Plug-In . SVG Version: 6.00 Build 0)  -->
<svg version="1.1" id="Layer_1" xmlns="http://www.w3.org/2000/svg" xmlns:xlink="http://www.w3.org/1999/xlink" x="0px" y="0px"
	 viewBox="0 0 500 500" style="enable-background:new 0 0 500 500;" xml:space="preserve">
<style type="text/css">
	.st0{fill:#5762FF;}
	.st1{opacity:0.7;fill:#FFFFFF;enable-background:new    ;}
	.st2{fill:none;stroke:#263238;stroke-linecap:round;stroke-linejoin:round;}
	.st3{fill:#FFFFFF;stroke:#263238;stroke-linecap:round;stroke-linejoin:round;}
	.st4{fill:#263238;stroke:#263238;stroke-linecap:round;stroke-linejoin:round;}
	.st5{fill:#A6A6A6;stroke:#263238;stroke-linecap:round;stroke-linejoin:round;}
	.st6{fill:#5762FF;stroke:#263238;stroke-linecap:round;stroke-linejoin:round;}
	.st7{fill:none;stroke:#263238;stroke-width:2;stroke-linecap:round;stroke-linejoin:round;}
	.st8{fill:#263238;stroke:#FFFFFF;stroke-linecap:round;stroke-linejoin:round;}
	.st9{fill:none;stroke:#FFFFFF;stroke-linecap:round;stroke-linejoin:round;}
</style>
<g id="freepik--background-simple--inject-15">
	<path class="st0" d="M84.3,85.4c2-2.1,4.1-4.1,6.3-6.1c28.8-26.1,70.4-38.7,108.5-39.6c16.7-0.3,33.4,1.2,49.8,4.7
		c107.2,22.4,129,116.5,158.9,146.7s74.9,80.3,52.3,156.9c-17.1,58.2-63.8,106.5-133.2,116.6c-7.9,1.2-15.8,1.8-23.8,1.9
		c-16.3,0.2-32.5-1.3-48.4-4.6c-109.2-21.9-104.5-72.3-160.4-105.1c-37-21.7-55.6-68.9-60.4-109.5C27.3,192.1,44.3,126.4,84.3,85.4z
		"/>
	<path class="st1" d="M84.3,85.4c2-2.1,4.1-4.1,6.3-6.1c28.8-26.1,70.4-38.7,108.5-39.6c16.7-0.3,33.4,1.2,49.8,4.7
		c107.2,22.4,129,116.5,158.9,146.7s74.9,80.3,52.3,156.9c-17.1,58.2-63.8,106.5-133.2,116.6c-7.9,1.2-15.8,1.8-23.8,1.9
		c-16.3,0.2-32.5-1.3-48.4-4.6c-109.2-21.9-104.5-72.3-160.4-105.1c-37-21.7-55.6-68.9-60.4-109.5C27.3,192.1,44.3,126.4,84.3,85.4z
		"/>
</g>
<g id="freepik--Plant--inject-15">
	<line class="st2" x1="65.4" y1="309.8" x2="65.4" y2="422.6"/>
	<line class="st2" x1="74.6" y1="366.6" x2="74.6" y2="422.6"/>
	<path class="st3" d="M44.7,320c-5.9-9.4-6.2-34.1-3.7-51.1s10-16.8,24.4,4.1s14,39.7,10.2,47s-13,8.4-13,8.4S50.6,329.3,44.7,320z"
		/>
	<path class="st2" d="M53.2,274.4c2.4,3.6,4.4,8.8,6.1,14.6"/>
	<path class="st2" d="M60.5,292.9c2.7,11.2,4.7,22.6,6,34.1"/>
	<path class="st3" d="M41.3,366.7c-8-4-18.6-20.9-24-33.7s-0.1-15.7,18.5-7.4s26.2,21.5,26.7,28.1s-5.4,11.2-5.4,11.2
		S49.3,370.7,41.3,366.7z"/>
	<path class="st2" d="M28.1,331.7c3.1,1.5,6.7,4.2,10.3,7.5"/>
	<path class="st2" d="M65.4,381.6c-1.4-12.8-6.2-19.2-6.2-19.2c-5.7-7.4-11.8-14.4-18.4-21"/>
	<path class="st3" d="M51.3,404c-4.6-2.3-10.8-12.1-13.9-19.5s-0.1-9.1,10.7-4.3s15.2,12.5,15.5,16.3s-3.1,6.5-3.1,6.5
		S55.9,406.4,51.3,404z"/>
	<path class="st2" d="M43.6,383.8c2.2,1.1,4.2,2.6,6,4.3"/>
	<path class="st2" d="M65.3,412.7c-0.8-7.4-3.6-11.1-3.6-11.1c-3.3-4.3-6.9-8.3-10.7-12.1"/>
	<path class="st3" d="M89.6,351.4c8-4,18.6-20.9,24-33.7s0.1-15.7-18.5-7.4s-26.2,21.5-26.7,28.1s5.4,11.2,5.4,11.2
		S81.6,355.4,89.6,351.4z"/>
	<path class="st2" d="M102.8,316.4c-3.8,2-7.2,4.5-10.3,7.5"/>
	<path class="st2" d="M65.5,366.3c1.4-12.8,6.2-19.2,6.2-19.2c5.7-7.4,11.8-14.4,18.4-21"/>
	<path class="st3" d="M87.5,394.7c3-5.5,1.2-18.7-1.8-27.7s-7.8-8.1-15.3,4.2s-5.7,22.4-2.7,26s9,3.4,9,3.4S84.5,400.2,87.5,394.7z"
		/>
	<path class="st2" d="M75.6,395.1c0-1.2,0.1-2.4,0.2-3.7"/>
	<path class="st2" d="M76,388.5c0.8-7.5,2.3-14.9,4.3-22.1"/>
</g>
<g id="freepik--Window--inject-15">
	<polyline class="st2" points="325.2,45.2 325.2,327.7 463.6,327.7 	"/>
	<polyline class="st2" points="316.7,45.2 316.7,327.7 178.3,327.7 	"/>
	<polyline class="st2" points="121.8,45.2 121.8,327.7 260.2,327.7 	"/>
	<line class="st2" x1="198.4" y1="165" x2="150" y2="111.5"/>
	<line class="st2" x1="190.3" y1="167.7" x2="176.9" y2="152.9"/>
	<line class="st2" x1="309.6" y1="126.4" x2="283.5" y2="97.5"/>
	<line class="st2" x1="258.8" y1="70.9" x2="276.4" y2="90.5"/>
	<line class="st2" x1="347.8" y1="287.9" x2="330.8" y2="269.2"/>
	<line class="st2" x1="367.9" y1="278.9" x2="336.5" y2="244.2"/>
</g>
<g id="freepik--Clock--inject-15">
	
		<ellipse transform="matrix(0.7071 -0.7071 0.7071 0.7071 -63.4316 79.4371)" class="st2" cx="64.2" cy="116.3" rx="50.1" ry="50.1"/>
	<circle class="st2" cx="64.2" cy="116.3" r="43.7"/>
	<circle class="st2" cx="64.2" cy="116.3" r="3"/>
	<line class="st2" x1="64.2" y1="134" x2="64.2" y2="119.3"/>
	<line class="st2" x1="102.8" y1="116.3" x2="67.1" y2="116.3"/>
</g>
<path class="st4" d="M316.6,222.8c24.1,26.3,63.5,31.7,93.8,13c34.9-21.6,45.7-67.3,24.1-102.2s-67.3-45.7-102.2-24.1
	s-45.7,67.3-24.1,102.2l-16.5,25.6L316.6,222.8z"/>
<path class="st3" d="M315,216.5c24.1,26.3,63.4,31.7,93.7,13c34.9-21.5,45.7-67.2,24.1-102.1s-67.2-45.7-102.1-24.1
	s-45.7,67.2-24.1,102.1L290.1,231L315,216.5z"/>
<path class="st4" d="M321.6,177v-6.9l11.4-17.5c0.9-1.3,1.7-2.6,2.4-3.8c0.7-1.2,1.4-2.4,1.9-3.7c0.5-1.3,0.7-2.6,0.7-3.9
	c0.1-1.1-0.2-2.2-0.8-3.1c-0.5-0.7-1.4-1-2.2-1c-0.9-0.1-1.8,0.3-2.5,0.9c-0.6,0.6-1,1.5-1.2,2.4c-0.2,1.1-0.3,2.2-0.3,3.3v2.3h-9.5
	v-2.5c0-2.6,0.4-5.1,1.4-7.5c0.8-2.2,2.3-4,4.3-5.2c2.3-1.4,5-2,7.7-1.9c4.3,0,7.5,1.1,9.7,3.3c2.2,2.2,3.3,5.3,3.3,9.2
	c0,1.8-0.3,3.6-0.9,5.4c-0.6,1.7-1.4,3.3-2.4,4.8c-1,1.6-2.1,3.2-3.2,4.9l-8.7,13h13.9v7.6H321.6z"/>
<path class="st4" d="M364.6,177v-10.6h-14.6v-7.2l12.4-29.7h11.4v29.6h4.4v7.3h-4.4V177H364.6z M357.4,159h7.2v-19.7L357.4,159z"/>
<path class="st4" d="M381.8,177l14.6-47.6h5.2L386.9,177H381.8z"/>
<path class="st4" d="M407.9,177l10.3-40.1h-13v-7.5h22.5v6.8L417.4,177H407.9z"/>
<path class="st4" d="M330.9,207.5c-1.2,0-2.3-0.2-3.3-0.8c-0.9-0.6-1.6-1.4-2-2.3c-0.5-1.1-0.8-2.3-0.8-3.5l2-0.6
	c0.1,0.9,0.3,1.9,0.6,2.8c0.2,0.8,0.7,1.4,1.2,1.9c0.7,0.5,1.5,0.8,2.3,0.7c0.9,0.1,1.8-0.3,2.5-0.9c0.7-0.7,1-1.7,0.9-2.7
	c0-1-0.3-2-0.8-2.8c-0.6-0.9-1.4-1.8-2.2-2.5l-4.3-4.2c-0.7-0.7-1.3-1.5-1.7-2.3c-0.4-0.8-0.6-1.7-0.5-2.6c-0.1-1.5,0.5-2.9,1.5-3.9
	c1.1-0.9,2.5-1.4,4-1.4c0.8,0,1.6,0.1,2.4,0.3c0.7,0.2,1.3,0.6,1.8,1.1c0.5,0.6,0.9,1.2,1.2,1.9c0.3,0.9,0.5,1.9,0.6,2.9l-2,0.5
	c-0.1-0.9-0.2-1.8-0.5-2.7c-0.2-0.7-0.6-1.3-1.2-1.7c-0.7-0.4-1.4-0.6-2.2-0.6c-0.9,0-1.8,0.2-2.5,0.8c-0.7,0.6-1.1,1.5-1,2.5
	c0,0.6,0.1,1.2,0.4,1.8c0.4,0.7,0.9,1.3,1.5,1.8l4.3,4.1c1,0.9,1.8,1.9,2.5,3c0.7,1.1,1.1,2.4,1.1,3.8c0,1.1-0.2,2.1-0.7,3.1
	c-0.5,0.8-1.2,1.5-2,1.9C332.9,207.3,331.9,207.5,330.9,207.5z"/>
<path class="st4" d="M339.6,207.2v-24.6h8.9v1.8h-6.6v9.2h5.4v1.7h-5.4v10.1h6.6v1.7H339.6z"/>
<path class="st4" d="M351.7,207.2v-24.6h5.6c1.3-0.1,2.5,0.2,3.6,0.7c0.9,0.5,1.5,1.2,1.9,2.2c0.4,1.1,0.6,2.2,0.6,3.4
	c0,0.9-0.1,1.7-0.3,2.6c-0.2,0.8-0.5,1.5-1,2.1c-0.5,0.6-1.3,1-2.1,1.1l3.8,12.6h-2.2l-3.6-12.1H354v12.1L351.7,207.2z M354,193.4
	h3.1c0.8,0,1.7-0.1,2.4-0.5c0.6-0.3,1-0.9,1.2-1.5c0.3-0.8,0.4-1.7,0.4-2.5c0.1-1.2-0.2-2.4-0.8-3.4c-0.5-0.8-1.6-1.1-3.1-1.1H354
	V193.4z"/>
<path class="st4" d="M367.4,207.2v-24.6h2.3v24.6H367.4z"/>
<path class="st4" d="M378.4,207.2l-5.8-24.6h2.2l4.6,20.4l4.4-20.4h2.1l-5.6,24.6L378.4,207.2z"/>
<path class="st4" d="M389,207.2v-24.6h2.3v24.6H389z"/>
<path class="st4" d="M401.4,207.5c-1.4,0.1-2.7-0.3-3.8-1c-0.9-0.7-1.6-1.7-1.9-2.8c-0.4-1.3-0.5-2.6-0.5-3.9V190
	c0-1.4,0.2-2.7,0.5-4c0.3-1.1,1-2,1.9-2.7c1.1-0.7,2.5-1.1,3.8-1c1.2-0.1,2.4,0.2,3.5,0.9c0.9,0.6,1.5,1.4,1.8,2.4
	c0.4,1.2,0.6,2.5,0.6,3.7v1.5H405v-1.4c0-0.9-0.1-1.9-0.3-2.8c-0.1-0.7-0.5-1.3-1-1.8c-0.7-0.5-1.5-0.7-2.3-0.6
	c-0.9-0.1-1.8,0.2-2.5,0.7c-0.6,0.5-1,1.2-1.1,1.9c-0.2,0.9-0.3,1.9-0.3,2.9v10.5c0,1,0.1,2,0.4,3c0.2,0.7,0.6,1.4,1.2,1.8
	c0.7,0.4,1.5,0.7,2.3,0.6c0.8,0.1,1.7-0.2,2.3-0.7c0.6-0.5,0.9-1.1,1-1.9c0.2-0.9,0.3-1.9,0.3-2.8v-1.6h2.2v1.5
	c0,1.3-0.2,2.6-0.5,3.8c-0.3,1-0.9,1.9-1.8,2.6C403.9,207.2,402.6,207.5,401.4,207.5z"/>
<path class="st4" d="M410.8,207.2v-24.6h8.9v1.8h-6.6v9.2h5.4v1.7h-5.4v10.1h6.6v1.7H410.8z"/>
<g id="freepik--Character--inject-15">
	<path class="st4" d="M182,423.3h-54.3c5.5-31.9-23.5-103.2-23.5-103.2h53.6C171.9,341.9,182,423.3,182,423.3z"/>
	<path class="st4" d="M212.7,222.1c11,9.1,8.8,40.8-8.3,57.9s-32.9,49.6-46.4,52.3s-25.5-1.1-32.5-8.9s-16.9-29-0.3-36.2
		s11-13.4,7.5-19.6s-3.8-18.5,6.4-26.5s28.4-2.4,46.4-8s18.5-15.3,18.5-15.3S201.8,213,212.7,222.1z"/>
	<path class="st5" d="M210.3,189.9c0,0-3.4-6.8-7.8-3.8s-3.4,22.4-3.4,22.4l-4,0.9c0,0,0.6-17.1,2.5-23.4s9.3-3,9.3-3L210.3,189.9z"
		/>
	<path class="st4" d="M276.9,348.8l-17.3-51.4c0,0,6.3,51.9,6.6,52.9s-1.5,27.5-1.5,27.5l25.3,13.5L276.9,348.8z"/>
	<path class="st6" d="M205.1,258.9L219,262l30.1,26.3c0,0,8.5,6.5,10.5,9.1c2,2.6,14.2,52.8,13.6,61s-4.3,15-3.7,23.5
		c0.6,8.5,21.8,41.1,21.8,41.1H165.5c0,0-17-95.9-17-107.2s-2-28.7,1.4-30.1s28.4-15,28.4-15L205.1,258.9z"/>
	<line class="st2" x1="265.8" y1="399.8" x2="261.6" y2="391.2"/>
	<path class="st2" d="M260.2,387.7l-4-7.8c0,0,1.4-4.8,4.5-7.1c3.1-2.3-3.1-6.5-3.1-6.5"/>
	<path class="st2" d="M222.9,387.3c1.9,0,3.6-0.1,5.3-0.3"/>
	<path class="st2" d="M233.5,386.5c14.8-1.9,21.6-6.5,21.6-6.5"/>
	<path class="st5" d="M269.9,198.3l-0.8,2.5c2.1,0.6,3.6,2.4,4,4.6c0.6,3.6-3.6,13.7-3.6,13.7l2.3,0.8c0,0,4-9.7,4-14.6
		c0.1-2.7-1.3-5.3-3.8-6.4L269.9,198.3z"/>
	<path class="st3" d="M269.5,216.1c3,0.6,4.7,5.1,3.8,10.1c-1,5-4.2,8.6-7.2,8c-3-0.6-4.8-5.1-3.8-10.1
		C263.2,219.1,266.4,215.5,269.5,216.1z"/>
	<path class="st4" d="M264.8,213.4c4.6,1.3,6.8,7.6,4.9,14c-1.9,6.4-7.2,10.4-11.8,9.1c-4.6-1.3-6.8-7.6-4.9-14
		S260.2,212.1,264.8,213.4z"/>
	<path class="st3" d="M205.8,227.4l-7,32.6l-14.7,8c0,0,3.5,13.3,18.6,35.1s45.6,57.1,45.6,57.1s0-1.7,1.4-8.1s-1.1-47.3-1.1-47.3
		l-2.5-14.4l-14.8-18.6l4.5-14.6L205.8,227.4z"/>
	<polygon class="st4" points="236.6,254.9 231.4,271.8 212.6,243.1 	"/>
	<path class="st3" d="M199.3,298.1c1,1.6,2.1,3.2,3.3,5c15.1,21.7,45.6,57.1,45.6,57.1s0-1.7,1.4-8.1s-1.1-47.3-1.1-47.3l-0.1-0.8
		C237.5,304.7,218.2,304.6,199.3,298.1z"/>
	<path class="st3" d="M214.3,170.4c-8.9,9.1-8.4,19.6-9.1,30.4s-1.1,27.5-1.1,27.5s0.4,8.3,2.5,12.1s15.4,19.9,18.6,22.2
		s7,2.7,9.1,1.5c2.1-1.1,14.4-7.4,18.2-11.6c3.8-4.2,11-25.6,13.1-31.1s7.4-19.4,5.9-32.3s-15.6-21.4-15.6-21.4
		C247.1,161.1,223.2,161.3,214.3,170.4z"/>
	<path class="st4" d="M204.6,210.6c1.3,0,2.6-0.3,3.8-0.7c2.3-1.1,6.6-4.9,14.4-14.2s9.5-8.9,9.5-8.9l-2.1-1.9
		c-2.1-1.9-7.8-14.2-8.2-16.3s1.3-1.1,1.3-1.1s4.8,15.9,19.4,26.2c12.2,8.6,23.1,15.2,26.4,17.2c1.8-6.3,3.2-14.1,2.3-21.6
		c-1.5-12.9-15.6-21.4-15.6-21.4c-8.7-6.7-32.6-6.5-41.6,2.6s-8.3,19.5-9.1,30.4C205,203.7,204.8,207.2,204.6,210.6z"/>
	<path class="st4" d="M230.5,218.6c0.9,0.2,1.4,1.4,1.1,2.8s-1.1,2.4-2,2.2s-1.4-1.4-1.1-2.8C228.8,219.5,229.7,218.5,230.5,218.6z"
		/>
	<path class="st4" d="M251.8,221.7c0.9,0.2,1.4,1.4,1.1,2.8s-1.1,2.4-2,2.2s-1.4-1.4-1.1-2.8C250,222.5,250.9,221.5,251.8,221.7z"/>
	<path class="st2" d="M225.3,211.4c5.7-4,12,0.9,12,0.9"/>
	<path class="st2" d="M262.5,217.9c-5.1-6.5-12.5-2.9-12.5-2.9"/>
	<path class="st2" d="M243.1,222.4c0.4-4.7,5.5-7.2,5.5-7.2"/>
	<path class="st2" d="M237.3,235.9c3.6,1.1,5.7-0.4,5.7-0.4"/>
	<path class="st2" d="M222.8,233.8c0,0,2.7,4,9.3,6.8c3.9,1.7,8.1,2.7,12.3,2.9"/>
	<path class="st2" d="M229.3,239.3c0,0,3,6.1,6.5,6.1c2,0,4-0.7,5.5-2.1C238,243.1,229.3,239.3,229.3,239.3z"/>
	<ellipse class="st4" cx="201.8" cy="217.2" rx="8.7" ry="12.1"/>
	<ellipse class="st3" cx="198.1" cy="215.1" rx="5.6" ry="9.2"/>
	<path class="st7" d="M241.6,249.7c0,0,14.1,3.4,19.2,1.7S266,230,266,230"/>
	<path class="st4" d="M238.6,246.9c2.3,0,4.2,1.2,4.2,2.8s-1.9,2.8-4.2,2.8s-4.2-1.2-4.2-2.8S236.3,246.9,238.6,246.9z"/>
	<path class="st6" d="M252.5,290.3c0,0,2.4,4.8,6.6,34.3s-8.2,30.9-8.2,30.9l-6-3.7c0,0,2.8-6.2-1.4-37.4s-10.2-41.7-10.2-41.7
		L252.5,290.3z"/>
	<path class="st6" d="M173.4,273.3c0,0,3.4,8.5,5.7,12.2s24.1,40.8,45.7,57s31.8,21,31.8,21s-19.3-28.9-33.4-49S195.2,262,195.2,262
		L173.4,273.3z"/>
	<path class="st3" d="M301.4,398.1c-2.6-0.3-10.2,5.8-13.6,8.4c-3.5,2.6-3.2,7.2-3.2,7.2s4.9,1.7,9,0.6s10.7-4.9,10.7-4.9
		s5.5,1.7,8.4,2.9c2.9,1.2,13.6,5.1,15.7,2.9s1.5-1.7-4.9-4.4c-3.6-1.4-7.1-3.2-10.4-5.2C313,405.6,304,398.4,301.4,398.1z"/>
	<path class="st3" d="M313.3,402.5l3.5,1.2c0,0,4.1,2.9,6.4,4.9s2.9,1.2,2.6-0.3s-2.9-7-5.2-8.7s-5.8-0.9-5.8-0.9L313.3,402.5z"/>
	<path class="st3" d="M305.5,399.3l3.5,0.6c0,0,1.5,2,4.1,5.8c2.6,3.8,4.6,5.5,6.1,4.6s-3.5-12.5-4.9-14.5s-8.4,0.3-8.4,0.3
		L305.5,399.3z"/>
	<path class="st3" d="M295,404.3l7.1-3.7c0,0,3.7,3.2,6.8,6c3.1,2.8,7.1,3.9,6.2,1.7s-8.2-13.3-10.5-15c-2.3-1.7-11.3,5.4-11.3,5.4
		L295,404.3z"/>
	<path class="st3" d="M261.6,415.7l9.6,0.3c1.6,0.4,3.2,0.7,4.8,0.9c2.6,0.3,9.4-1.7,12.2-4.2c2.5-2.5,4.8-5.3,6.8-8.2
		c1.8,0.9,3.5,1.9,5.1,3.1c2.6,2,8,5.7,10.3,5.4c2.2-0.3,2.5-0.9,0.2-3.2c-2.3-2.3-13.1-12.8-15.9-13c-2.8-0.3-12.5,3.4-17.3,5.1
		c-4.8,1.7-16.7,2.3-16.7,2.3L261.6,415.7z"/>
	<path class="st6" d="M164,280.4c0,0-16.7,5.4-18.1,8.2s-2.8,19,0,55s13.6,70.3,14.2,72.3s5.4,7.4,5.4,7.4L263,423l-0.6-21.5
		l-61.3-6.2v-2.6c0-2.5-6.5,0.6-6.5,0.6L187,347c0,0,0.3-4.2,0.9-8.5s-9.9-16.5-9.9-16.5"/>
	<path class="st3" d="M177.9,400.4c5.4-1.4,14.5-7.4,14.5-7.4"/>
	<path class="st3" d="M289,329.1l-5.5-21.3l0.9-12.2c0,0-1.2-4-1.9-5.3s-11-10.4-11-10.4l-6.2-5.1c0,0-5.9-2.7-7.6-5.5
		c-1.7-2.7-3-8.7-5.5-5.1s-1.4,8.5,0.4,11.2s8.5,10.3,8,12s-0.5,11.2,2.5,16.3c2.1,3.4,4.6,6.5,7.4,9.3l7,22.5L289,329.1z"/>
	<path class="st2" d="M267.1,273c0,0-5.2-10.1-5.7-14.6c-0.5-4.5,1.1-7.8,2.5-8.5c1.5-0.7,3.8,9.4,5.3,12c1.5,2.6,6.6,10.6,6.6,10.6
		L267.1,273z"/>
	<path class="st3" d="M274.5,310.5c0,0-5.3-2.8-5.5-7c-0.2-4.2,3.2-12.9,3.2-12.9l-4.9-1.9l-3.2,0.4h-4c-1.4,0-2.7-0.3-4-0.8
		c-1.3-0.6,4-4,4-4c-1.5,0-3-0.1-4.4-0.4c-1.5-0.4-1.9-2.3-1.9-2.3l6.1-4c0,0-3.6,1-5.5,0.6s-2.7-2.7-1.9-2.7s10.8-5.3,10.8-5.3
		l16.3,2.1l5.9,11.4l-1.9,24.1l4.4,15"/>
	<path class="st2" d="M278.7,276.9c0,0-11.6-2.1-13.5-2.1s-5.3,2.8-5.3,2.8"/>
	<path class="st2" d="M282.3,284.7c0,0-13.3-3.4-15-3.4c-1.7,0-7.2,3-7.2,3"/>
	<path class="st6" d="M315.2,374.1c0.2,7.8-6.3,13.8-13.8,15.8c-7.5,2-10.8,2.5-13.5-0.2s-8.2-12-9-15.5s-8.4-44.5-8.4-44.5
		l17.1-11.6C287.7,318,315,366.3,315.2,374.1z"/>
</g>
<g id="freepik--Device--inject-15">
	<rect x="376.3" y="417.4" class="st3" width="5" height="1.5"/>
	<rect x="369.4" y="417.4" class="st3" width="5" height="1.5"/>
	<rect x="362.5" y="417.4" class="st3" width="5" height="1.5"/>
	<rect x="355.6" y="417.4" class="st3" width="5" height="1.5"/>
	<rect x="348.7" y="417.4" class="st3" width="5" height="1.5"/>
	<rect x="341.8" y="417.4" class="st3" width="5" height="1.5"/>
	<rect x="334.9" y="417.4" class="st3" width="5" height="1.5"/>
	<rect x="328" y="417.4" class="st3" width="5" height="1.5"/>
	<rect x="321.1" y="417.4" class="st3" width="5" height="1.5"/>
	<rect x="314.2" y="417.4" class="st3" width="5" height="1.5"/>
	<rect x="307.3" y="417.4" class="st3" width="5" height="1.5"/>
	<rect x="300.4" y="417.4" class="st3" width="5" height="1.5"/>
	<rect x="293.5" y="417.4" class="st3" width="5" height="1.5"/>
	<rect x="286.6" y="417.4" class="st3" width="5" height="1.5"/>
	<rect x="279.7" y="417.4" class="st3" width="5" height="1.5"/>
	<rect x="272.8" y="417.4" class="st3" width="5" height="1.5"/>
	<rect x="260.8" y="418.6" class="st3" width="123.4" height="4.3"/>
	<rect x="260.8" y="418.6" class="st3" width="47.3" height="4.3"/>
	<polygon class="st8" points="365.2,277.5 462.2,277.5 442.7,380.6 345.7,380.6 	"/>
	<polygon class="st8" points="367.1,280.1 461.2,280.1 442.7,378 348.6,378 	"/>
	<polygon class="st8" points="380.5,297.4 450.5,297.4 436.7,370.2 366.8,370.2 	"/>
	<line class="st2" x1="461.2" y1="280.1" x2="450.5" y2="297.4"/>
	<line class="st9" x1="367.1" y1="280.1" x2="380.5" y2="297.4"/>
	<line class="st9" x1="348.6" y1="378" x2="366.8" y2="370.2"/>
	<line class="st2" x1="442.7" y1="378" x2="436.7" y2="370.2"/>
	<polygon class="st8" points="398.1,339.4 414.1,339.4 424.2,348.4 408.3,348.4 	"/>
	<rect x="355.4" y="417.5" class="st8" width="58.3" height="5.8"/>
	<polygon class="st8" points="408.3,401.1 424.2,401.1 404.7,423.3 388.7,423.3 	"/>
	<rect x="408.3" y="348.8" class="st8" width="15.9" height="52.1"/>
</g>
<g id="freepik--Table--inject-15">
	<path class="st3" d="M165.1,423.1c4.2-2.2,7.7-5.5,9.9-9.6"/>
	<line class="st2" x1="18.2" y1="423.3" x2="474.4" y2="423.3"/>
</g>
</svg>
