<svg id="Layer_1" data-name="Layer 1" xmlns="http://www.w3.org/2000/svg" viewBox="0 0 47.88 54.75"><defs><style>.cls-1,.cls-2,.cls-4{fill:none;}.cls-1,.cls-2,.cls-3,.cls-4{stroke:#5864ff;}.cls-1{stroke-miterlimit:10;}.cls-2,.cls-3,.cls-4{stroke-width:2px;}.cls-3{fill:#fff;}.cls-3,.cls-4{stroke-linejoin:round;}</style></defs><g id="Group_8732" data-name="Group 8732"><g id="Rectangle_3617" data-name="Rectangle 3617"><path class="cls-1" d="M14,3.4h38.3a1,1,0,0,1,1,1V29.6a1,1,0,0,1-1,1H14a1,1,0,0,1-1-1V4.3A.92.92,0,0,1,14,3.4Z" transform="translate(-5.9 -2.9)"/><rect class="cls-2" x="8.08" y="1.4" width="38.3" height="25.2"/></g><g id="Group_8729" data-name="Group 8729"><path id="Path_6506" data-name="Path 6506" class="cls-3" d="M23.3,15.09l-2.8-4.7H6.9v28.3H46.7V15.09Z" transform="translate(-5.9 -2.9)"/><g id="Group_8707" data-name="Group 8707"><line id="Line_730" data-name="Line 730" class="cls-4" x1="21.02" y1="39.34" x2="21.02" y2="50.74"/><line id="Line_731" data-name="Line 731" class="cls-4" x1="9.32" y1="50.64" x2="33.02" y2="50.64"/><g id="Ellipse_1586" data-name="Ellipse 1586"><circle class="cls-1" cx="35.38" cy="50.45" r="2.3"/><circle class="cls-4" cx="35.39" cy="50.45" r="3.3"/></g><g id="Ellipse_1587" data-name="Ellipse 1587"><circle class="cls-1" cx="6.82" cy="50.45" r="2.3"/><circle class="cls-4" cx="6.82" cy="50.45" r="3.3"/></g></g></g></g></svg>