<svg id="Layer_1" data-name="Layer 1" xmlns="http://www.w3.org/2000/svg" viewBox="0 0 723.18 800"><defs><style>.cls-1{fill:#5864ff;}</style></defs><path class="cls-1" d="M267.34,407.61a62,62,0,0,0,88.71,1L467.89,296.81a62,62,0,0,0,0-87.71L356.05,97.27a62,62,0,0,0-88.92,1.24c-22.86,24.15-22,63.24,1.89,87.14l8.76,8.76c-56.28,12.81-107.28,41-148.92,82.67A308.93,308.93,0,0,0,289.57,798.92,62,62,0,0,0,312.83,677a184.91,184.91,0,0,1-53.51-344.27C245.37,356.35,247.92,387.29,267.34,407.61Zm-84.65-52.95A216.54,216.54,0,0,0,306.92,708.34a30.18,30.18,0,0,1-11.46,59.26,277,277,0,0,1-144.06-468c44.09-44.09,99.85-71.4,161.27-79A15.93,15.93,0,0,0,322,193.54l-30.42-30.42c-11.81-11.81-12.38-31-1.28-42.7a30,30,0,0,1,21.5-9.44h.43a29.9,29.9,0,0,1,21.31,8.83L445.35,231.64a30.14,30.14,0,0,1,0,42.63L333.52,386.11a30.16,30.16,0,0,1-43.14-.51c-11.21-11.74-10.69-30.93,1.16-42.78l34.11-34.12a15.93,15.93,0,0,0-13.87-27A217,217,0,0,0,182.69,354.66Z" transform="translate(-38.41 0)"/><path class="cls-1" d="M372.05,311.61a16,16,0,0,0-22.54,0l-2.21,2.22a15.93,15.93,0,0,0,22.53,22.54l2.22-2.22A16,16,0,0,0,372.05,311.61Z" transform="translate(-38.41 0)"/><path class="cls-1" d="M439.74,244a16,16,0,0,0-22.54,0l-36.59,36.6a15.93,15.93,0,1,0,22.53,22.53l36.6-36.59A16,16,0,0,0,439.74,244Z" transform="translate(-38.41 0)"/><path class="cls-1" d="M761.59,304.55A309,309,0,0,0,510.43,1.08,62,62,0,0,0,487.17,123a184.91,184.91,0,0,1,53.51,344.27c14-23.6,11.4-54.54-8-74.86a62,62,0,0,0-88.71-1L332.11,503.19a62.09,62.09,0,0,0,0,87.71L444,702.73a61.49,61.49,0,0,0,43.83,18.17h.88a61.58,61.58,0,0,0,44.21-19.4c22.85-24.15,22-63.24-1.89-87.15l-8.76-8.75c56.28-12.81,107.28-41,148.92-82.67A306.79,306.79,0,0,0,761.59,304.55ZM487.33,579.37A15.94,15.94,0,0,0,478,606.46l30.42,30.42c11.81,11.81,12.38,31,1.28,42.69a30.13,30.13,0,0,1-43.23.62L354.65,568.36a30.2,30.2,0,0,1,0-42.64L466.49,413.89a30.14,30.14,0,0,1,43.13.51c11.21,11.74,10.69,30.93-1.16,42.78L474.35,491.3a15.93,15.93,0,0,0,13.87,27,216.67,216.67,0,0,0,4.87-426.63A30.18,30.18,0,0,1,504.55,32.4a277,277,0,0,1,144.05,468C604.51,544.47,548.75,571.78,487.33,579.37Z" transform="translate(-38.41 0)"/></svg>